<svg version="1.2" baseProfile="tiny" xmlns="http://www.w3.org/2000/svg" width="64" height="50.092" viewBox="0 0 64 50.092"><path fill="#4B4B4B" d="M29.165.679c-5.266.699-9.953 1.91-13.948 3.587-3.943 1.655-7.192 3.757-9.636 6.258-1.789 1.83-3.147 3.851-4.075 6.052C.58 18.773.077 21.164 0 23.738h.004v1.418H0c.027.908.104 1.842.232 2.8.128.956.31 1.945.546 2.968l.003.013H.78c1.023 3.93 3.155 7.274 6.372 10.015 3.275 2.789 7.688 4.97 13.216 6.521 3.208.9 6.557 1.522 9.894 1.936 3.362.416 6.674.619 9.799.684v-.004h4.671v.004c1.071-.021 2.137-.058 3.184-.104.976-.045 1.96-.103 2.933-.169v-.001c3.793-.314 6.482-1.358 8.387-2.683 1.866-1.297 2.983-2.86 3.652-4.256a11.16 11.16 0 0 0 .77-2.167 12.69 12.69 0 0 0 .344-2.338H64v-1.518a15.565 15.565 0 0 0-.817-4.172 16.64 16.64 0 0 0-1.968-3.959 11.793 11.793 0 0 0-1.538-1.818c-.569-.559-1.192-1.089-1.805-1.61v-.004c-.607-.518-1.198-1.02-1.713-1.516a12.927 12.927 0 0 1-1.579-1.798h-.006c-1.114-1.554-1.914-3.216-2.385-4.938a13.658 13.658 0 0 1-.396-5.277c.223-1.838.819-3.632 1.765-5.332.934-1.679 2.201-3.26 3.779-4.697l.006-.005h-.002A82.241 82.241 0 0 0 48.804.443 90.47 90.47 0 0 0 39.873 0v.005c-1.866 0-3.698.056-5.476.168a76.893 76.893 0 0 0-5.232.506"/></svg>