<svg version="1.2" baseProfile="tiny" xmlns="http://www.w3.org/2000/svg" width="28" height="20" viewBox="0 0 28 20"><path fill="#F30" d="M.855 0A.858.858 0 0 0 0 .861v18.277c0 .476.383.862.855.862h26.288a.86.86 0 0 0 .857-.861V.861A.86.86 0 0 0 27.144 0M1.713 2.836l4.093 3.816-4.093 3.9V2.836zm1.33-1.111h21.913L13.999 11.938 3.043 1.725zm23.243 1.111v7.716l-4.095-3.9 4.095-3.816zM1.713 18.276v-5.348l5.354-5.102 6.351 5.92a.859.859 0 0 0 1.165 0l6.351-5.92 5.231 4.985a.747.747 0 0 0 .122.096v5.369H1.713z"/></svg>