<svg version="1.2" baseProfile="tiny" xmlns="http://www.w3.org/2000/svg" width="20" height="20" viewBox="0 0 20 20"><path fill="none" d="M11.238 14.522c-1.574-.237-5.363-3.773-5.76-5.761-.128-.642.057-1.159.202-1.501L1.844 3.423c-.01.008-1.467 1.513.316 4.825.577 1.071 2.073 3.612 4.083 5.617 1.974 1.969 4.457 3.409 5.509 3.975 3.311 1.783 4.816.325 4.824.317l-3.838-3.836c-.34.144-.715.32-1.5.201z"/><path fill="#F30" d="M14.544 11.751a.61.61 0 0 0-.801.055l-1.295 1.295c-1.315 1.314-3.711-1.457-3.913-1.636-.178-.202-2.867-2.681-1.635-3.914l1.295-1.294a.611.611 0 0 0 .053-.802L4.267.24A.612.612 0 0 0 3.35.178L1.045 2.484c-.324.373-2.201 2.084.036 6.332 1.541 2.925 3.308 4.866 4.287 5.816.951.979 2.892 2.746 5.816 4.286 4.247 2.237 5.958.359 6.332.037l2.306-2.307a.614.614 0 0 0 .178-.473.616.616 0 0 0-.238-.443l-5.218-3.981z"/></svg>