<svg xmlns="http://www.w3.org/2000/svg" viewBox="0 0 303.3 206.9"><path fill="#E6E0DF" stroke="#000" stroke-width=".709" stroke-miterlimit="22.926" d="M67.7 18.3C45.6 29.1 33 44 33 59.2c0 12.2 12.7 25.2 15.2 27.7l1.1 1c2.5 2.1 2.8 2.9 2.5 4.1-.4 1.7-2.8 3.7-6 5.2C17.2 110 1.4 125.7 1.4 141.5c0 17.1 15.6 33.2 44 45.3 28.4 12.1 66.1 18.8 106.2 18.8 40.1 0 77.9-6.7 106.2-18.8 28.4-12.1 44-28.2 44-45.3 0-15.8-15.8-31.5-44.5-44.3-3.2-1.4-5.6-3.4-6-5-.3-1.3 0-2 2.5-4.2l1.1-1c1.6-1.5 15.3-15.3 15.3-27.8 0-15.2-12.7-30.1-34.8-40.8-22.2-11-52-17-83.7-17-31.7 0-61.6 6-84 16.9z"/><path fill="#FFF" stroke="#000" stroke-width=".709" stroke-miterlimit="22.926" d="M255.1 180.2c-27.5 11.7-64.3 18.2-103.5 18.2s-75.9-6.5-103.5-18.2C23 169.5 8.5 155.3 8.5 141.5c0-12.6 14.7-26.3 40.2-37.8 1.3-.6 8.6-3.8 10-10 1.6-6.7-4-10.3-5.6-11.9C47 75.8 40 66.1 40 59.1c0-12.4 11.2-24.9 30.8-34.5C92.3 14.3 121 8.5 151.7 8.5c30.6 0 59.4 5.8 80.8 16.2 19.6 9.5 30.8 22.1 30.8 34.5 0 7.1-7.5 17.2-13.2 22.7-1.6 1.6-7.2 5.2-5.6 12 1.5 6 8.7 9.2 10 9.8 25.6 11.4 40.3 25.2 40.3 37.8 0 13.8-14.5 28-39.7 38.7z"/><path d="M121.8 111.9h-2.1V98.5c-.5.5-1.2 1-2 1.5s-1.6.8-2.2 1.1v-2c1.2-.6 2.2-1.2 3.1-2 .9-.8 1.5-1.6 1.9-2.3h1.4v17.1zm7.5-8.4c0 2.8.3 4.7 1 5.6.7.9 1.5 1.4 2.4 1.4 1 0 1.8-.5 2.4-1.4.7-.9 1-2.8 1-5.6s-.3-4.7-1-5.6c-.7-.9-1.5-1.4-2.5-1.4s-1.7.4-2.3 1.2c-.6 1-1 3-1 5.8m-2.1 0c0-2 .2-3.7.6-4.9.4-1.2 1-2.2 1.9-2.9.8-.7 1.9-1 3.1-1 .9 0 1.7.2 2.4.6.7.4 1.3.9 1.7 1.6.5.7.8 1.6 1.1 2.6.3 1 .4 2.4.4 4.1 0 2-.2 3.6-.6 4.9-.4 1.2-1 2.2-1.9 2.9-.8.7-1.9 1-3.1 1-1.7 0-3-.6-3.9-1.8-1.2-1.6-1.7-3.9-1.7-7.1zm21.3 8.4h-2.1V98.5c-.5.5-1.2 1-2 1.5s-1.6.8-2.2 1.1v-2c1.2-.6 2.2-1.2 3.1-2 .9-.8 1.5-1.6 1.9-2.3h1.4v17.1zm4.5 0l4.5-6.5-4.2-6h2.6l1.9 2.9c.4.6.6 1 .9 1.4.3-.5.7-1 1-1.4l2.1-2.9h2.5l-4.3 5.9 4.6 6.6H162l-2.6-3.9-.7-1-3.3 4.9H153zm15.2-5.5c0 .7.2 1.4.5 2.1.3.7.7 1.2 1.3 1.5.6.3 1.1.5 1.7.5.9 0 1.7-.4 2.3-1.1.6-.7 1-1.7 1-2.9s-.3-2.1-.9-2.8c-.6-.7-1.4-1-2.4-1s-1.8.3-2.4 1c-.8.7-1.1 1.6-1.1 2.7m8.6-7.4l-2.1.2c-.2-.8-.5-1.4-.8-1.8-.6-.6-1.3-.9-2.1-.9-.7 0-1.3.2-1.8.6-.7.5-1.2 1.2-1.6 2.1-.4.9-.6 2.3-.6 4 .5-.8 1.1-1.3 1.9-1.7.7-.4 1.5-.6 2.3-.6 1.4 0 2.6.5 3.6 1.6 1 1 1.5 2.4 1.5 4 0 1.1-.2 2.1-.7 3-.5.9-1.1 1.6-1.9 2.1-.8.5-1.7.7-2.8.7-1.8 0-3.2-.6-4.3-1.9-1.1-1.3-1.7-3.4-1.7-6.4 0-3.3.6-5.7 1.8-7.2 1.1-1.3 2.5-2 4.3-2 1.3 0 2.5.4 3.3 1.1 1 .7 1.5 1.7 1.7 3.1zm2.6-2v-2h11.1v1.6c-1.1 1.2-2.2 2.7-3.3 4.6-1.1 1.9-1.9 3.9-2.5 6-.4 1.4-.7 3-.8 4.7h-2.2c0-1.4.3-3 .8-4.9.5-1.9 1.2-3.8 2.2-5.5 1-1.8 2-3.3 3-4.5h-8.3z"/></svg>