<svg xmlns="http://www.w3.org/2000/svg" viewBox="0 0 306.1 218.3"><path fill="#E6E0DF" stroke="#000" stroke-width=".709" stroke-miterlimit="22.926" d="M216 1.5l-.1-.1H92.7c-49.6 0-90 39.7-91.2 88.8v.6c0 .5-.1 1-.1 1.5V128l.1.1c1.2 48.3 40.2 87.2 88.6 88.6l.1.1h125.6l.2-.1c49.1-1.4 88.6-41.5 88.6-90.8V92.4c.1-49.3-39.4-89.5-88.6-90.9z"/><path fill="none" stroke="#000" stroke-width=".56" d="M213.4 209.1H92.9l-2.6-.1c-44.4-1.3-79.9-36.8-81-81l-.1-2.5V90.4c.6-21.7 9.5-42.1 25.2-57.4C50.1 17.7 70.8 9.2 92.7 9.2H213h-.1.7-.1.2l.1.1 2 .1c21.8.6 42.2 9.5 57.4 25.1 15.3 15.6 23.7 36.2 23.7 58V126c0 21.7-8.4 42.3-23.7 57.9-15.2 15.6-35.6 24.5-57.4 25.1l-2.4.1z"/><path fill="#FFF" stroke="#000" stroke-width=".709" d="M213.4 209.1H92.9l-2.6-.1c-44.4-1.3-79.9-36.8-81-81l-.1-2.5V90.4c.6-21.7 9.5-42.1 25.2-57.4C50.1 17.7 70.8 9.2 92.7 9.2H213h-.1.7-.1.2l.1.1 2 .1c21.8.6 42.2 9.5 57.4 25.1 15.3 15.6 23.7 36.2 23.7 58V126c0 21.7-8.4 42.3-23.7 57.9-15.2 15.6-35.6 24.5-57.4 25.1l-2.4.1z"/><path d="M117 102.7v-2h11.1v1.6c-1.1 1.2-2.2 2.7-3.3 4.6-1.1 1.9-1.9 3.9-2.5 6-.4 1.4-.7 3-.8 4.7h-2.2c0-1.4.3-3 .8-4.9.5-1.9 1.2-3.8 2.2-5.5 1-1.8 2-3.3 3-4.5H117zm15.4 6.4c0 2.8.3 4.7 1 5.6.7.9 1.5 1.4 2.4 1.4 1 0 1.8-.5 2.4-1.4.7-.9 1-2.8 1-5.6s-.3-4.7-1-5.6c-.7-.9-1.5-1.4-2.5-1.4s-1.7.4-2.3 1.2c-.6 1.1-1 3-1 5.8m-2.2 0c0-2 .2-3.7.6-4.9.4-1.2 1-2.2 1.9-2.9.8-.7 1.9-1 3.1-1 .9 0 1.7.2 2.4.6.7.4 1.3.9 1.7 1.6.5.7.8 1.6 1.1 2.6.3 1 .4 2.4.4 4.1 0 2-.2 3.6-.6 4.9-.4 1.2-1 2.2-1.9 2.9-.8.7-1.9 1-3.1 1-1.7 0-3-.6-3.9-1.8-1.1-1.5-1.7-3.8-1.7-7.1zm12.6 8.5l4.5-6.5-4.2-6h2.6l1.9 2.9c.4.6.6 1 .9 1.4.3-.5.7-1 1-1.4l2.1-2.9h2.5l-4.3 5.9 4.6 6.6h-2.6l-2.6-3.9-.7-1-3.3 4.9h-2.4zm20.7 0h-2.1v-13.4c-.5.5-1.2 1-2 1.5s-1.6.8-2.2 1.1v-2c1.2-.6 2.2-1.2 3.1-2 .9-.8 1.5-1.6 1.9-2.3h1.4v17.1zm7.6-8.5c0 2.8.3 4.7 1 5.6.7.9 1.5 1.4 2.4 1.4 1 0 1.8-.5 2.4-1.4.7-.9 1-2.8 1-5.6s-.3-4.7-1-5.6c-.7-.9-1.5-1.4-2.5-1.4s-1.7.4-2.3 1.2c-.6 1.1-1 3-1 5.8m-2.2 0c0-2 .2-3.7.6-4.9.4-1.2 1-2.2 1.9-2.9.8-.7 1.9-1 3.1-1 .9 0 1.7.2 2.4.6.7.4 1.3.9 1.7 1.6.5.7.8 1.6 1.1 2.6.3 1 .4 2.4.4 4.1 0 2-.2 3.6-.6 4.9-.4 1.2-1 2.2-1.9 2.9-.8.7-1.9 1-3.1 1-1.7 0-3-.6-3.9-1.8-1.1-1.5-1.7-3.8-1.7-7.1zm21.3 8.5h-2.1v-13.4c-.5.5-1.2 1-2 1.5s-1.6.8-2.2 1.1v-2c1.2-.6 2.2-1.2 3.1-2 .9-.8 1.5-1.6 1.9-2.3h1.4v17.1z"/></svg>