<svg xmlns="http://www.w3.org/2000/svg" viewBox="0 0 331.7 243.8"><path fill="#E6E0DF" stroke="#000" stroke-width=".709" stroke-miterlimit="22.926" d="M230.8 242.4H102.7l-4.2-.1-.3-.2c-51.8-3.5-93-44.7-96.5-96.3l-.4-.4v-40.2c0-.6 0-1.2.1-1.7v-.8.2C2.2 75.5 13.3 50.1 32.8 31 52 12.2 77.3 1.8 104.2 1.4h124.9l4.3.1.3.2c25.5 1.8 49.2 12.7 67.2 31.1 18.5 18.9 28.9 43.5 29.5 69.8v38.6c-.6 26.2-11.1 50.8-29.5 69.7-18 18.3-41.6 29.3-67.1 31.1l-.5.4h-2.5z"/><path fill="none" stroke="#000" stroke-width=".709" stroke-miterlimit="10" d="M230.7 235.3H101l-.1-.1-2.1-.1c-48-3.3-86.7-41.9-89.9-89.7l-.2-2.3-.2-.2v-37.6c0-.4 0-.8.1-1.2v-1c.6-25.3 10.9-49 29.1-66.8C56 18.3 80 8.5 105.5 8.5h125.3l.1.1 2.2.1c23.7 1.6 46 11.9 62.7 29 17.8 18.1 27.5 42.1 27.5 67.4v33.5c0 25.3-9.8 49.2-27.5 67.3-16.7 17-38.9 27.3-62.5 29l-2.2.2-.4.2z"/><path fill="#FFF" stroke="#000" stroke-width=".709" d="M230.7 235.3H101l-.1-.1-2.1-.1c-48-3.3-86.7-41.9-89.9-89.7l-.2-2.3-.2-.2v-37.6c0-.4 0-.8.1-1.2v-1c.6-25.3 10.9-49 29.1-66.8C56 18.3 80 8.5 105.5 8.5h125.3l.1.1 2.2.1c23.7 1.6 46 11.9 62.7 29 17.8 18.1 27.5 42.1 27.5 67.4v33.5c0 25.3-9.8 49.2-27.5 67.3-16.7 17-38.9 27.3-62.5 29l-2.2.2-.4.2z"/><path d="M137.8 130.4h-2.1V117c-.5.5-1.2 1-2 1.5s-1.6.8-2.2 1.1v-2c1.2-.6 2.2-1.2 3.1-2 .9-.8 1.5-1.6 1.9-2.3h1.4v17.1zm11.5 0h-2.1V117c-.5.5-1.2 1-2 1.5s-1.6.8-2.2 1.1v-2c1.2-.6 2.2-1.2 3.1-2 .9-.8 1.5-1.6 1.9-2.3h1.4v17.1zm11.6 0h-2.1V117c-.5.5-1.2 1-2 1.5s-1.6.8-2.2 1.1v-2c1.2-.6 2.2-1.2 3.1-2 .9-.8 1.5-1.6 1.9-2.3h1.4v17.1zm4.6 0l4.5-6.5-4.2-6h2.6l1.9 2.9c.4.6.6 1 .9 1.4.3-.5.7-1 1-1.4l2.1-2.9h2.5l-4.3 5.9 4.6 6.6h-2.6l-2.6-3.9-.7-1-3.3 4.9h-2.4zm14.9-5c0 .6.1 1.2.4 1.7.3.6.7 1 1.3 1.3.6.3 1.2.5 1.8.5 1 0 1.8-.3 2.5-1 .7-.6 1-1.5 1-2.5s-.3-1.9-1-2.5c-.7-.7-1.5-1-2.5-1s-1.8.3-2.5 1c-.6.7-1 1.5-1 2.5m.7-7.9c0 .8.3 1.5.8 2s1.2.8 2 .8 1.5-.3 2-.8.8-1.1.8-1.9c0-.8-.3-1.4-.8-2-.5-.5-1.2-.8-2-.8s-1.5.3-2 .8-.8 1.2-.8 1.9zm.4 3.6c-.9-.3-1.5-.8-1.9-1.4-.4-.6-.6-1.3-.6-2.1 0-1.3.4-2.3 1.3-3.2.9-.9 2.1-1.3 3.6-1.3s2.7.4 3.6 1.3c.9.9 1.4 1.9 1.4 3.2 0 .8-.2 1.5-.6 2.1-.4.6-1.1 1-1.9 1.4 1.1.3 1.9.9 2.4 1.7.5.8.8 1.7.8 2.7 0 1.5-.5 2.7-1.6 3.7-1 1-2.4 1.5-4.1 1.5s-3.1-.5-4.1-1.5c-1-1-1.6-2.3-1.6-3.8 0-1.1.3-2.1.9-2.8.6-.8 1.4-1.3 2.4-1.5zm12.3.8c0 2.8.3 4.7 1 5.6.7.9 1.5 1.4 2.4 1.4 1 0 1.8-.5 2.4-1.4.7-.9 1-2.8 1-5.6s-.3-4.7-1-5.6c-.7-.9-1.5-1.4-2.5-1.4s-1.7.4-2.3 1.2c-.6 1-1 3-1 5.8m-2.2 0c0-2 .2-3.7.6-4.9.4-1.2 1-2.2 1.9-2.9.8-.7 1.9-1 3.1-1 .9 0 1.7.2 2.4.6.7.4 1.3.9 1.7 1.6.5.7.8 1.6 1.1 2.6.3 1 .4 2.4.4 4.1 0 2-.2 3.6-.6 4.9-.4 1.2-1 2.2-1.9 2.9-.8.7-1.9 1-3.1 1-1.7 0-3-.6-3.9-1.8-1.1-1.5-1.7-3.9-1.7-7.1z"/></svg>