<svg xmlns="http://www.w3.org/2000/svg" viewBox="0 0 462 306.1"><path fill="#E6E0DF" stroke="#000" stroke-width=".709" stroke-miterlimit="22.926" d="M231 1.4c126.8 0 229.6 67.9 229.6 151.7 0 83.7-102.8 151.7-229.6 151.7S1.4 236.9 1.4 153.1C1.4 69.3 104.2 1.4 231 1.4z"/><path fill="#FFF" stroke="#000" stroke-width=".709" stroke-miterlimit="22.926" d="M231 8.5c122.9 0 222.5 64.7 222.5 144.6 0 79.8-99.6 144.6-222.5 144.6S8.5 233 8.5 153.1C8.5 73.2 108.2 8.5 231 8.5z"/><path d="M194.6 161.6h-2.1v-13.4c-.5.5-1.2 1-2 1.5s-1.6.8-2.2 1.1v-2c1.2-.6 2.2-1.2 3.1-2 .9-.8 1.5-1.6 1.9-2.3h1.4v17.1zm5.4-4.5l2.2-.2c.2 1.1.5 1.9 1.1 2.4.6.5 1.3.8 2.2.8 1 0 1.9-.4 2.6-1.1.7-.8 1.1-1.8 1.1-3s-.3-2.2-1-2.8c-.7-.7-1.6-1-2.7-1-.7 0-1.3.2-1.8.5s-1 .7-1.3 1.2l-2-.3 1.7-8.8h8.5v2h-6.9l-.9 4.6c1-.7 2.1-1.1 3.2-1.1 1.5 0 2.8.5 3.8 1.6 1 1 1.5 2.4 1.5 4s-.5 2.9-1.4 4c-1.1 1.4-2.6 2.1-4.5 2.1-1.6 0-2.8-.4-3.8-1.3-.9-1-1.5-2.2-1.6-3.6m13.4-10.5v-2h11.1v1.6c-1.1 1.2-2.2 2.7-3.3 4.6-1.1 1.9-1.9 3.9-2.5 6-.4 1.4-.7 3-.8 4.7h-2.2c0-1.4.3-3 .8-4.9.5-1.9 1.2-3.8 2.2-5.5 1-1.8 2-3.3 3-4.5h-8.3zm12.4 15l4.5-6.5-4.2-6h2.6l1.9 2.9c.4.6.6 1 .9 1.4.3-.5.7-1 1-1.4l2.1-2.9h2.5l-4.3 5.9 4.6 6.6h-2.6l-2.6-3.9-.7-1-3.3 4.9h-2.4zm20.8 0h-2.1v-13.4c-.5.5-1.2 1-2 1.5s-1.6.8-2.2 1.1v-2c1.2-.6 2.2-1.2 3.1-2 .9-.8 1.5-1.6 1.9-2.3h1.4v17.1zm7.6-8.5c0 2.8.3 4.7 1 5.6.7.9 1.5 1.4 2.4 1.4 1 0 1.8-.5 2.4-1.4.7-.9 1-2.8 1-5.6s-.3-4.7-1-5.6c-.7-.9-1.5-1.4-2.5-1.4s-1.7.4-2.3 1.2c-.7 1-1 3-1 5.8m-2.2 0c0-2 .2-3.7.6-4.9.4-1.2 1-2.2 1.9-2.9.8-.7 1.9-1 3.1-1 .9 0 1.7.2 2.4.6.7.4 1.3.9 1.7 1.6.5.7.8 1.6 1.1 2.6.3 1 .4 2.4.4 4.1 0 2-.2 3.6-.6 4.9-.4 1.2-1 2.2-1.9 2.9-.8.7-1.9 1-3.1 1-1.7 0-3-.6-3.9-1.8-1.1-1.6-1.7-3.9-1.7-7.1zm24.4 6.4v2H265c0-.5.1-1 .2-1.5.3-.8.8-1.5 1.4-2.3.6-.7 1.6-1.6 2.8-2.6 1.9-1.5 3.1-2.7 3.8-3.6.7-.9 1-1.7 1-2.5s-.3-1.5-.9-2.1c-.6-.6-1.4-.9-2.3-.9-1 0-1.8.3-2.4.9-.6.6-.9 1.5-.9 2.5l-2.2-.2c.1-1.6.7-2.9 1.7-3.7 1-.8 2.3-1.3 3.9-1.3s3 .5 3.9 1.4c1 .9 1.4 2 1.4 3.4 0 .7-.1 1.4-.4 2-.3.7-.7 1.4-1.4 2.1-.7.7-1.7 1.7-3.3 3-1.3 1.1-2.1 1.8-2.4 2.2-.4.4-.7.8-.9 1.1h8.4z"/></svg>