<svg xmlns="http://www.w3.org/2000/svg" viewBox="0 0 215.4 300.5"><path fill="#E6E0DF" d="M1.4 280.6V19.8c0-5.1 2.1-9.7 5.4-13 3.3-3.3 7.9-5.4 13-5.4h175.7c5.1 0 9.7 2.1 13 5.4 3.3 3.3 5.4 7.9 5.4 13v260.8c0 5.1-2.1 9.7-5.4 13-3.3 3.3-7.9 5.4-13 5.4H19.8c-5.1 0-9.7-2.1-13-5.4-3.3-3.3-5.4-7.9-5.4-13z"/><path fill="#E6E0DF" stroke="#000" stroke-width=".709" stroke-miterlimit="22.926" d="M1.4 280.6V19.8c0-5.1 2.1-9.7 5.4-13 3.3-3.3 7.9-5.4 13-5.4h175.7c5.1 0 9.7 2.1 13 5.4 3.3 3.3 5.4 7.9 5.4 13v260.8c0 5.1-2.1 9.7-5.4 13-3.3 3.3-7.9 5.4-13 5.4H19.8c-5.1 0-9.7-2.1-13-5.4-3.3-3.3-5.4-7.9-5.4-13z"/><path fill="#FFF" stroke="#000" stroke-width=".709" stroke-miterlimit="22.926" d="M8.5 280.6V19.8c0-6.3 5.1-11.3 11.3-11.3h175.7c6.3 0 11.3 5.1 11.3 11.3v260.8c0 6.3-5.1 11.3-11.3 11.3H19.8c-6.2.1-11.3-5-11.3-11.3z"/><path d="M77.9 158.7h-2.1v-13.4c-.5.5-1.2 1-2 1.5s-1.6.8-2.2 1.1v-2c1.2-.6 2.2-1.2 3.1-2 .9-.8 1.5-1.6 1.9-2.3H78v17.1zm7.5-8.5c0 2.8.3 4.7 1 5.6.7.9 1.5 1.4 2.4 1.4 1 0 1.8-.5 2.4-1.4.7-.9 1-2.8 1-5.6s-.3-4.7-1-5.6c-.7-.9-1.5-1.4-2.5-1.4s-1.7.4-2.3 1.2c-.6 1.1-1 3-1 5.8m-2.1 0c0-2 .2-3.7.6-4.9.4-1.2 1-2.2 1.9-2.9.8-.7 1.9-1 3.1-1 .9 0 1.7.2 2.4.6.7.4 1.3.9 1.7 1.6.5.7.8 1.6 1.1 2.6.3 1 .4 2.4.4 4.1 0 2-.2 3.6-.6 4.9-.4 1.2-1 2.2-1.9 2.9-.8.7-1.9 1-3.1 1-1.7 0-3-.6-3.9-1.8-1.2-1.5-1.7-3.8-1.7-7.1zm15.5 0c0 2.8.3 4.7 1 5.6.7.9 1.5 1.4 2.4 1.4 1 0 1.8-.5 2.4-1.4.7-.9 1-2.8 1-5.6s-.3-4.7-1-5.6c-.7-.9-1.5-1.4-2.5-1.4s-1.7.4-2.3 1.2c-.7 1.1-1 3-1 5.8m-2.2 0c0-2 .2-3.7.6-4.9.4-1.2 1-2.2 1.9-2.9.8-.7 1.9-1 3.1-1 .9 0 1.7.2 2.4.6.7.4 1.3.9 1.7 1.6.5.7.8 1.6 1.1 2.6.3 1 .4 2.4.4 4.1 0 2-.2 3.6-.6 4.9-.4 1.2-1 2.2-1.9 2.9-.8.7-1.9 1-3.1 1-1.7 0-3-.6-3.9-1.8-1.1-1.5-1.7-3.8-1.7-7.1zm25.5-6.4v-2h11.1v1.6c-1.1 1.2-2.2 2.7-3.3 4.6-1.1 1.9-1.9 3.9-2.5 6-.4 1.4-.7 3-.8 4.7h-2.2c0-1.4.3-3 .8-4.9.5-1.9 1.2-3.8 2.2-5.5 1-1.8 2-3.3 3-4.5h-8.3zm15.4 6.4c0 2.8.3 4.7 1 5.6.7.9 1.5 1.4 2.4 1.4 1 0 1.8-.5 2.4-1.4.7-.9 1-2.8 1-5.6s-.3-4.7-1-5.6c-.7-.9-1.5-1.4-2.5-1.4s-1.7.4-2.3 1.2c-.7 1.1-1 3-1 5.8m-2.2 0c0-2 .2-3.7.6-4.9.4-1.2 1-2.2 1.9-2.9.8-.7 1.9-1 3.1-1 .9 0 1.7.2 2.4.6.7.4 1.3.9 1.7 1.6.5.7.8 1.6 1.1 2.6.3 1 .4 2.4.4 4.1 0 2-.2 3.6-.6 4.9-.4 1.2-1 2.2-1.9 2.9-.8.7-1.9 1-3.1 1-1.7 0-3-.6-3.9-1.8-1.1-1.5-1.7-3.8-1.7-7.1zm-26.2 8.5l4.5-6.5-4.2-6h2.6l1.9 2.9c.4.6.6 1 .9 1.4.3-.5.7-1 1-1.4l2.1-2.9h2.5l-4.3 5.9 4.6 6.6h-2.6l-2.6-3.9-.7-1-3.3 4.9h-2.4zm-5.4 53.2h-.9l-.2-2h-5.9l-.2 2h-.9v-3.1h.9c.1-.1.2-.3.3-.6.1-.3.3-.7.4-1.3s.2-1.2.3-2 .2-1.8.2-2.9h4.8v6.8h1.2v3.1zm-2.4-3.1v-5.7h-2.4c0 .4-.1.9-.1 1.4-.1.5-.1 1-.2 1.6l-.3 1.5c-.1.5-.3.9-.5 1.2h3.5zm8.7-5.7h-2.3c0 .4-.1.9-.1 1.4 0 .5-.1 1-.1 1.5-.1.5-.1 1-.3 1.5-.1.5-.2.9-.4 1.2-.2.4-.4.6-.6.9s-.5.3-.8.3h-.5c-.1 0-.3-.1-.4-.1l.2-1.1c.1 0 .3.1.4.1.2 0 .4-.1.6-.3.2-.2.3-.5.4-1s.2-1.2.3-2.1.1-2 .2-3.5h4.7v7.9H110v-6.7zm7.6 3.5l-1.2.2-2.1 3.1h-1.5l1.9-2.7.6-.6c-.5-.1-1-.3-1.4-.7s-.6-.8-.6-1.5c0-.5.1-.9.2-1.2.2-.3.4-.6.7-.8.3-.2.7-.4 1.1-.5.4-.1.9-.2 1.4-.2.4 0 .8 0 1.1.1.3.1.7.1 1 .2v7.8h-1.3v-3.2zm0-3.5c-.1-.1-.3-.1-.5-.1h-.4c-.7 0-1.2.1-1.5.4-.4.2-.5.6-.5 1.2 0 .5.2.8.6 1.1.4.3.9.4 1.5.4h.9v-3zm-55.3 22.2h-.7v3.6h-1.3V221h1.3v3.6l.7-.2 2.5-3.4h1.4l-2.5 3.2-.7.5.8.6 2.6 3.6h-1.6l-2.5-3.6zm5.4-3.7c.4-.2.9-.4 1.4-.5.5-.1 1.1-.2 1.7-.2.5 0 1 .1 1.3.2s.6.3.8.6.3.5.3.8c.1.3.1.6.1.9v4.7c0 .3.1.7.2 1h-.9l-.3-1.1h-.1c-.1.1-.2.3-.4.4-.1.1-.3.3-.5.4-.2.1-.4.2-.7.3-.3.1-.6.1-.9.1s-.7-.1-.9-.2c-.3-.1-.5-.3-.8-.5s-.4-.4-.5-.7c-.1-.3-.2-.6-.2-.9 0-.5.1-.9.3-1.2.2-.3.5-.6.8-.7s.8-.3 1.2-.4c.5-.1 1-.1 1.6-.1h.8v-.9c0-.6-.1-1-.3-1.2-.2-.2-.7-.3-1.3-.3h-.6c-.2 0-.4.1-.6.1-.2 0-.4.1-.6.2-.2.1-.4.1-.5.2l-.4-1zm2.3 6.3c.3 0 .6 0 .8-.1l.6-.3c.2-.1.3-.3.4-.4s.2-.3.2-.4v-1.3h-1c-.3 0-.6 0-1 .1-.3 0-.6.1-.8.2-.2.1-.4.2-.6.4-.1.2-.2.4-.2.7 0 .4.1.7.4.9.4.1.8.2 1.2.2zm9.9-5.8h-2.3c0 .4-.1.9-.1 1.4 0 .5-.1 1-.1 1.5-.1.5-.1 1-.3 1.5-.1.5-.2.9-.4 1.2-.2.4-.4.6-.6.9s-.5.3-.8.3h-.5c-.1 0-.3-.1-.4-.1l.2-1.1c.1 0 .3.1.4.1.2 0 .4-.1.6-.3.2-.2.3-.5.4-1s.2-1.2.3-2.1.1-2 .2-3.5h4.7v7.9h-1.3v-6.7zm9.5 6.2c-.3.3-.7.5-1.2.6-.5.1-1 .2-1.5.2-.6 0-1.1-.1-1.6-.3-.4-.2-.8-.5-1.1-.8-.3-.4-.5-.8-.6-1.3s-.2-1.1-.2-1.7c0-1.3.3-2.4.9-3.1.6-.7 1.5-1.1 2.6-1.1.4 0 .7 0 1.1.1s.7.2 1 .5c.3.2.5.5.7.9.2.4.3.9.3 1.6 0 .3 0 .7-.1 1.2h-5.1c0 .5 0 .9.1 1.2.1.4.2.7.4.9s.5.4.8.6c.3.1.7.2 1.2.2.4 0 .7-.1 1.1-.2.4-.1.6-.3.8-.4l.4.9zm-2.7-6.4c-.6 0-1.1.2-1.5.5-.4.3-.6.9-.7 1.7h3.9c0-.8-.2-1.4-.5-1.7-.2-.3-.6-.5-1.2-.5zm9.8 3.5H93v3.5h-1.3V221H93v3.3h3.6V221h1.3v7.9h-1.3v-3.5zm10.7 5.5h-.9l-.2-2h-5.9l-.2 2h-.9v-3.1h.9c.1-.1.2-.3.3-.6.1-.3.3-.7.4-1.3s.2-1.2.3-2 .2-1.8.2-2.9h4.8v6.8h1.2v3.1zm-2.4-3.1v-5.7h-2.4c0 .4-.1.9-.1 1.4-.1.5-.1 1-.2 1.6l-.3 1.5c-.1.5-.3.9-.5 1.2h3.5zm3.9-6.2c.4-.2.9-.4 1.4-.5.5-.1 1.1-.2 1.7-.2.5 0 1 .1 1.3.2s.6.3.8.6c.2.2.3.5.3.8.1.3.1.6.1.9v4.7c0 .3.1.7.2 1h-.9l-.3-1.1h-.3c-.1.1-.2.3-.4.4-.1.1-.3.3-.5.4-.2.1-.4.2-.7.3-.3.1-.6.1-.9.1s-.7-.1-.9-.2c-.3-.1-.5-.3-.8-.5s-.4-.4-.5-.7c-.1-.3-.2-.6-.2-.9 0-.5.1-.9.3-1.2.2-.3.5-.6.8-.7s.8-.3 1.2-.4c.5-.1 1-.1 1.6-.1h.8v-.9c0-.6-.1-1-.3-1.2-.2-.2-.7-.3-1.3-.3h-.6c-.2 0-.4.1-.6.1-.2 0-.4.1-.6.2-.2.1-.4.1-.5.2l-.2-1zm2.2 6.3c.3 0 .6 0 .8-.1l.6-.3c.2-.1.3-.3.4-.4s.2-.3.2-.4v-1.3h-1c-.3 0-.6 0-1 .1-.3 0-.6.1-.8.2s-.4.2-.6.4c-.1.2-.2.4-.2.7 0 .4.1.7.4.9s.8.2 1.2.2zm5.7-6.9h.9l.2.9h.1c.2-.4.6-.7.9-.8s.8-.3 1.3-.3c1.1 0 1.8.3 2.4.9s.8 1.6.8 3.1c0 .7-.1 1.3-.3 1.8-.2.5-.4 1-.7 1.4s-.7.7-1.1.9-.9.3-1.5.3c-.4 0-.7 0-.9-.1-.2 0-.5-.1-.7-.2v3.3h-1.3V221zm3.2.9c-.5 0-1 .1-1.3.4-.3.3-.5.7-.7 1.3v3.9c.2.1.4.3.6.3.2.1.6.1 1 .1.7 0 1.3-.3 1.7-.8.4-.5.6-1.3.6-2.4 0-.4 0-.8-.1-1.2-.1-.4-.2-.7-.4-.9l-.6-.6c-.1 0-.4-.1-.8-.1zm10.3 2.3v-1l-.6 1-3.6 4.7h-.7V221h1.3v5.7h.1l.6-1 3.6-4.8h.7v7.9h-1.3v-4.6zm5.7 1.1h-.7v3.6h-1.3V221h1.3v3.6l.7-.2 2.5-3.4h1.4l-2.5 3.2-.7.5.8.6 2.6 3.6h-1.6l-2.5-3.6zm5-.4c0-1.3.3-2.4.9-3.1.6-.7 1.5-1.1 2.6-1.1.6 0 1.1.1 1.5.3s.8.5 1.1.8c.3.4.5.8.6 1.3s.2 1.1.2 1.7c0 1.3-.3 2.4-.9 3.1-.6.7-1.5 1.1-2.6 1.1-.6 0-1.1-.1-1.5-.3-.4-.2-.8-.5-1.1-.8-.3-.4-.5-.8-.6-1.3s-.2-1-.2-1.7zm1.3 0c0 .4 0 .8.1 1.2s.2.7.4 1c.2.3.4.5.7.7.3.2.6.3 1 .3 1.4 0 2.2-1 2.2-3 0-.4 0-.8-.1-1.2s-.2-.7-.4-1c-.2-.3-.4-.5-.7-.7-.3-.2-.6-.2-1-.2-1.5-.1-2.2.9-2.2 2.9zm7.6-3.9c.4 0 .8 0 1.2-.1h1.5c1 0 1.8.2 2.2.5.5.3.7.8.7 1.5 0 .4-.1.7-.3 1.1-.2.4-.6.6-1.1.8v.1c.6.1 1.1.3 1.3.6.3.3.4.7.4 1.3 0 .8-.3 1.4-.9 1.8-.6.4-1.5.6-2.7.6h-1.2c-.3 0-.8-.1-1.1-.1V221zm2.8 3.3c.2 0 .4 0 .6-.1.2-.1.3-.2.5-.3.1-.1.3-.2.3-.4s.1-.3.1-.5c0-.4-.1-.7-.4-.9-.3-.2-.7-.2-1.3-.2h-1.4v2.3h1.6zm-1.5 3.5h1.3c.7 0 1.2-.1 1.6-.3s.5-.5.5-1c0-.4-.1-.7-.4-.9s-.8-.4-1.5-.4H151v2.6z"/></svg>