<svg id="Слой_1" xmlns="http://www.w3.org/2000/svg" viewBox="0 0 243.8 272.1"><style>.st0,.st1{fill:#e6e0df;stroke:#000;stroke-width:.7087;stroke-miterlimit:22.9256}.st1{fill:#fff}</style><path class="st0" d="M122.2 270.7c29.6 0 57.7-7.8 79.1-21.9 24.5-16.2 38.7-39.5 41.1-67.5v-90c-1.1-28-18.2-53-41.1-68.1-21.4-14-49.4-21.8-79.1-21.8-29.7 0-57.8 7.8-79.3 21.9-24.7 16.2-39 39.5-41.5 67.4v90.6c2.5 27.9 16.8 51.2 41.5 67.4 21.5 14.2 49.7 22 79.3 22z"/><path class="st1" d="M8.5 180.8V91.4c9.7-110.3 217.6-110.7 226.8 0v89.4c-9.2 110.6-217.1 110.3-226.8 0z"/><path d="M92.9 139.6c0 .6.1 1.2.4 1.7.3.6.7 1 1.3 1.3.6.3 1.2.5 1.8.5 1 0 1.8-.3 2.5-1 .7-.6 1-1.5 1-2.5s-.3-1.9-1-2.5c-.7-.7-1.5-1-2.5-1s-1.8.3-2.5 1-1 1.5-1 2.5m.7-7.9c0 .8.3 1.5.8 2s1.2.8 2 .8 1.5-.3 2-.8.8-1.1.8-1.9c0-.8-.3-1.4-.8-2-.5-.5-1.2-.8-2-.8s-1.5.3-2 .8-.8 1.1-.8 1.9zm.4 3.5c-.9-.3-1.5-.8-1.9-1.4-.4-.6-.6-1.3-.6-2.1 0-1.3.4-2.3 1.3-3.2.9-.9 2.1-1.3 3.6-1.3s2.7.4 3.6 1.3c.9.9 1.4 1.9 1.4 3.2 0 .8-.2 1.5-.6 2.1-.4.6-1.1 1-1.9 1.4 1.1.3 1.9.9 2.4 1.7.5.8.8 1.7.8 2.7 0 1.5-.5 2.7-1.6 3.7-1 1-2.4 1.5-4.1 1.5-1.7 0-3.1-.5-4.1-1.5-1-1-1.6-2.3-1.6-3.8 0-1.1.3-2.1.9-2.8.6-.7 1.4-1.2 2.4-1.5zm12.3.9c0 2.8.3 4.7 1 5.6.7.9 1.5 1.4 2.4 1.4 1 0 1.8-.5 2.4-1.4.7-.9 1-2.8 1-5.6s-.3-4.7-1-5.6c-.7-.9-1.5-1.4-2.5-1.4s-1.7.4-2.3 1.2c-.7 1-1 3-1 5.8m-2.2 0c0-2 .2-3.7.6-4.9.4-1.2 1-2.2 1.9-2.9.8-.7 1.9-1 3.1-1 .9 0 1.7.2 2.4.6.7.4 1.3.9 1.7 1.6.5.7.8 1.6 1.1 2.6.3 1 .4 2.4.4 4.1 0 2-.2 3.6-.6 4.9-.4 1.2-1 2.2-1.9 2.9-.8.7-1.9 1-3.1 1-1.7 0-3-.6-3.9-1.8-1.1-1.6-1.7-3.9-1.7-7.1zm12.5 8.4l4.5-6.5-4.2-6h2.6l1.9 2.9c.4.6.6 1 .9 1.4.3-.5.7-1 1-1.4l2.1-2.9h2.5l-4.3 5.9 4.6 6.6h-2.6l-2.6-3.9-.7-1-3.3 4.9h-2.4zm21.8-11.5c0-1.2-.3-2.2-1-2.9-.6-.7-1.4-1.1-2.3-1.1-.9 0-1.8.4-2.4 1.1-.7.8-1 1.8-1 3 0 1.1.3 2 1 2.7.7.7 1.5 1 2.4 1 1 0 1.8-.3 2.4-1 .6-.7.9-1.6.9-2.8m-8.6 7.6l2-.2c.2 1 .5 1.6 1 2.1.5.4 1.1.6 1.9.6.6 0 1.2-.1 1.7-.4.5-.3.9-.7 1.2-1.2.3-.5.6-1.2.8-2 .2-.8.3-1.7.3-2.6v-.4c-.4.7-1 1.2-1.7 1.6-.7.4-1.5.6-2.4.6-1.4 0-2.6-.5-3.6-1.5s-1.5-2.4-1.5-4.1c0-1.7.5-3.1 1.5-4.2s2.3-1.6 3.9-1.6c1.1 0 2.1.3 3.1.9.9.6 1.6 1.5 2.1 2.6s.7 2.7.7 4.8c0 2.2-.2 3.9-.7 5.2-.5 1.3-1.2 2.3-2.1 3-.9.7-2 1-3.3 1-1.3 0-2.4-.4-3.3-1.1-.9-.7-1.5-1.8-1.6-3.1zm15.2-4.5c0 2.8.3 4.7 1 5.6.7.9 1.5 1.4 2.4 1.4 1 0 1.8-.5 2.4-1.4.7-.9 1-2.8 1-5.6s-.3-4.7-1-5.6c-.7-.9-1.5-1.4-2.5-1.4s-1.7.4-2.3 1.2c-.7 1-1 3-1 5.8m-2.2 0c0-2 .2-3.7.6-4.9.4-1.2 1-2.2 1.9-2.9.8-.7 1.9-1 3.1-1 .9 0 1.7.2 2.4.6.7.4 1.3.9 1.7 1.6.5.7.8 1.6 1.1 2.6.3 1 .4 2.4.4 4.1 0 2-.2 3.6-.6 4.9-.4 1.2-1 2.2-1.9 2.9-.8.7-1.9 1-3.1 1-1.7 0-3-.6-3.9-1.8-1.1-1.6-1.7-3.9-1.7-7.1z"/></svg>