<svg xmlns="http://www.w3.org/2000/svg" viewBox="0 0 272.1 164.4"><path fill="#E4E0DF" stroke="#000" stroke-width=".709" stroke-miterlimit="22.926" d="M136.1 1.4c74.4 0 134.6 36.2 134.6 80.8S210.4 163 136.1 163C61.7 163 1.4 126.8 1.4 82.2S61.7 1.4 136.1 1.4z"/><path fill="#FFF" stroke="#000" stroke-width=".709" stroke-miterlimit="22.926" d="M136.1 8.5c70.4 0 127.6 33 127.6 73.7s-57.1 73.7-127.6 73.7c-70.4 0-127.6-33-127.6-73.7S65.6 8.5 136.1 8.5z"/><path d="M113.9 79.1c0-1.2-.3-2.2-1-2.9-.6-.7-1.4-1.1-2.3-1.1-.9 0-1.8.4-2.4 1.1-.7.8-1 1.8-1 3 0 1.1.3 2 1 2.7.7.7 1.5 1 2.4 1 1 0 1.8-.3 2.4-1 .6-.6.9-1.6.9-2.8m-8.6 7.6l2-.2c.2 1 .5 1.6 1 2.1.5.4 1.1.6 1.9.6.6 0 1.2-.1 1.7-.4.5-.3.9-.7 1.2-1.2.3-.5.6-1.2.8-2 .2-.8.3-1.7.3-2.6v-.4c-.4.7-1 1.2-1.7 1.6-.7.4-1.5.6-2.4.6-1.4 0-2.6-.5-3.6-1.5s-1.5-2.4-1.5-4.1c0-1.7.5-3.1 1.5-4.2s2.3-1.6 3.9-1.6c1.1 0 2.1.3 3.1.9.9.6 1.6 1.5 2.1 2.6s.7 2.7.7 4.8c0 2.2-.2 3.9-.7 5.2-.5 1.3-1.2 2.3-2.1 3-.9.7-2 1-3.3 1-1.3 0-2.4-.4-3.3-1.1-.9-.7-1.4-1.7-1.6-3.1zm15.2-4.5c0 2.8.3 4.7 1 5.6.7.9 1.5 1.4 2.4 1.4 1 0 1.8-.5 2.4-1.4.7-.9 1-2.8 1-5.6s-.3-4.7-1-5.6c-.7-.9-1.5-1.4-2.5-1.4s-1.7.4-2.3 1.2c-.6 1.1-1 3-1 5.8m-2.2 0c0-2 .2-3.7.6-4.9.4-1.2 1-2.2 1.9-2.9.8-.7 1.9-1 3.1-1 .9 0 1.7.2 2.4.6.7.4 1.3.9 1.7 1.6.5.7.8 1.6 1.1 2.6.3 1 .4 2.4.4 4.1 0 2-.2 3.6-.6 4.9-.4 1.2-1 2.2-1.9 2.9-.8.7-1.9 1-3.1 1-1.7 0-3-.6-3.9-1.8-1.1-1.5-1.7-3.9-1.7-7.1zm12.6 8.5l4.5-6.5-4.2-6h2.6l1.9 2.9c.4.6.6 1 .9 1.4.3-.5.7-1 1-1.4l2.1-2.9h2.5l-4.3 5.9 4.6 6.6h-2.6l-2.6-3.9-.7-1-3.3 4.9h-2.4zm12.8-4.5l2.2-.2c.2 1.1.5 1.9 1.1 2.4.6.5 1.3.8 2.2.8 1 0 1.9-.4 2.6-1.1.7-.8 1.1-1.8 1.1-3s-.3-2.2-1-2.8c-.7-.7-1.6-1-2.7-1-.7 0-1.3.2-1.8.5s-1 .7-1.3 1.2l-2-.3 1.7-8.8h8.5v2h-6.9l-.9 4.6c1-.7 2.1-1.1 3.2-1.1 1.5 0 2.8.5 3.8 1.6 1 1 1.5 2.4 1.5 4s-.5 2.9-1.4 4c-1.1 1.4-2.6 2.1-4.5 2.1-1.6 0-2.8-.4-3.8-1.3-.9-1-1.5-2.2-1.6-3.6m24.4 2.5v2h-11.4c0-.5.1-1 .2-1.5.3-.8.8-1.5 1.4-2.3.6-.7 1.6-1.6 2.8-2.6 1.9-1.5 3.1-2.7 3.8-3.6.7-.9 1-1.7 1-2.5s-.3-1.5-.9-2.1c-.6-.6-1.4-.9-2.3-.9-1 0-1.8.3-2.4.9-.6.6-.9 1.5-.9 2.5l-2.2-.2c.1-1.6.7-2.9 1.7-3.7 1-.8 2.3-1.3 3.9-1.3s3 .5 3.9 1.4c1 .9 1.4 2 1.4 3.4 0 .7-.1 1.4-.4 2-.3.7-.7 1.4-1.4 2.1-.7.7-1.7 1.7-3.3 3-1.3 1.1-2.1 1.8-2.4 2.2-.4.4-.7.8-.9 1.1h8.4z"/></svg>