<svg xmlns="http://www.w3.org/2000/svg" viewBox="0 0 272.1 181.4"><path fill="#E6E0DF" stroke="#000" stroke-width=".709" d="M256.5 179.9c7.8 0 14.2-6.4 14.2-14.2V37.9c0-7.8-6.4-14.2-14.2-14.2h-17.2C203.9 8.9 168.8 1.5 134.2 1.5c-34.6 0-68.7 7.4-102 22.2H15.6c-7.8 0-14.2 6.4-14.2 14.2v127.9c0 7.8 6.4 14.2 14.2 14.2h240.9z"/><path fill="#FFF" stroke="#000" stroke-width=".709" d="M35 30.2c32.3-14.3 65.6-21.6 99.2-21.6 33.6 0 68 7.3 102.4 21.7l1.3.5h18.6c3.9 0 7.1 3.2 7.1 7.1v127.9c0 3.9-3.2 7.1-7.1 7.1h-241c-3.9 0-7.1-3.2-7.1-7.1V37.9c0-3.9 3.2-7.1 7.1-7.1h16.6l2.9-.6z"/><path d="M113.8 87.6c0-1.2-.3-2.2-1-2.9-.6-.7-1.4-1.1-2.3-1.1-.9 0-1.8.4-2.4 1.1-.7.8-1 1.8-1 3 0 1.1.3 2 1 2.7.7.7 1.5 1 2.4 1 1 0 1.8-.3 2.4-1 .6-.6.9-1.6.9-2.8m-8.6 7.6l2-.2c.2 1 .5 1.6 1 2.1.5.4 1.1.6 1.9.6.6 0 1.2-.1 1.7-.4.5-.3.9-.7 1.2-1.2.3-.5.6-1.2.8-2 .2-.8.3-1.7.3-2.6v-.4c-.4.7-1 1.2-1.7 1.6-.7.4-1.5.6-2.4.6-1.4 0-2.6-.5-3.6-1.5s-1.5-2.4-1.5-4.1c0-1.7.5-3.1 1.5-4.2s2.3-1.6 3.9-1.6c1.1 0 2.1.3 3.1.9.9.6 1.6 1.5 2.1 2.6s.7 2.7.7 4.8c0 2.2-.2 3.9-.7 5.2-.5 1.3-1.2 2.3-2.1 3-.9.7-2 1-3.3 1-1.3 0-2.4-.4-3.3-1.1-.9-.7-1.4-1.7-1.6-3.1zm15.2-4.5c0 2.8.3 4.7 1 5.6.7.9 1.5 1.4 2.4 1.4 1 0 1.8-.5 2.4-1.4.7-.9 1-2.8 1-5.6s-.3-4.7-1-5.6c-.7-.9-1.5-1.4-2.5-1.4s-1.7.4-2.3 1.2c-.6 1.1-1 3-1 5.8m-2.2 0c0-2 .2-3.7.6-4.9.4-1.2 1-2.2 1.9-2.9.8-.7 1.9-1 3.1-1 .9 0 1.7.2 2.4.6.7.4 1.3.9 1.7 1.6.5.7.8 1.6 1.1 2.6.3 1 .4 2.4.4 4.1 0 2-.2 3.6-.6 4.9-.4 1.2-1 2.2-1.9 2.9s-1.9 1-3.1 1c-1.7 0-3-.6-3.9-1.8-1.1-1.5-1.7-3.9-1.7-7.1zm12.6 8.5l4.5-6.5-4.2-6h2.6l1.9 2.9c.4.6.6 1 .9 1.4.3-.5.7-1 1-1.4l2.1-2.9h2.5l-4.3 5.9 4.6 6.6h-2.6l-2.6-3.9-.7-1-3.3 4.9h-2.4zm12.8-4.5l2.2-.2c.2 1.1.5 1.9 1.1 2.4.6.5 1.3.8 2.2.8 1 0 1.9-.4 2.6-1.1.7-.8 1.1-1.8 1.1-3s-.3-2.2-1-2.8c-.7-.7-1.6-1-2.7-1-.7 0-1.3.2-1.8.5s-1 .7-1.3 1.2l-2-.3 1.7-8.8h8.5v2h-6.9l-.9 4.6c1-.7 2.1-1.1 3.2-1.1 1.5 0 2.8.5 3.8 1.6 1 1 1.5 2.4 1.5 4s-.5 2.9-1.4 4c-1.1 1.4-2.6 2.1-4.5 2.1-1.6 0-2.8-.4-3.8-1.3-.9-1-1.5-2.2-1.6-3.6m15.5-.5c0 .6.1 1.2.4 1.7.3.6.7 1 1.3 1.3.6.3 1.2.5 1.8.5 1 0 1.8-.3 2.5-1 .7-.6 1-1.5 1-2.5s-.3-1.9-1-2.5c-.7-.7-1.5-1-2.5-1s-1.8.3-2.5 1-1 1.5-1 2.5m.7-7.9c0 .8.3 1.5.8 2s1.2.8 2 .8 1.5-.3 2-.8.8-1.1.8-1.9c0-.8-.3-1.4-.8-2-.5-.5-1.2-.8-2-.8s-1.5.3-2 .8c-.6.6-.8 1.2-.8 1.9zm.4 3.6c-.9-.3-1.5-.8-1.9-1.4-.4-.6-.6-1.3-.6-2.1 0-1.3.4-2.3 1.3-3.2.9-.9 2.1-1.3 3.6-1.3s2.7.4 3.6 1.3c.9.9 1.4 1.9 1.4 3.2 0 .8-.2 1.5-.6 2.1-.4.6-1.1 1-1.9 1.4 1.1.3 1.9.9 2.4 1.7.5.8.8 1.7.8 2.7 0 1.5-.5 2.7-1.6 3.7-1 1-2.4 1.5-4.1 1.5-1.7 0-3.1-.5-4.1-1.5-1-1-1.6-2.3-1.6-3.8 0-1.1.3-2.1.9-2.8.5-.7 1.3-1.3 2.4-1.5z"/></svg>