<svg xmlns="http://www.w3.org/2000/svg" viewBox="0 0 297.6 226.8"><path fill="#E6E0DF" stroke="#000" stroke-width=".709" stroke-miterlimit="22.926" d="M223.7 59.1c.7.8 1.4 1.6 2.1 2.5.8 1 1.5 2 2.1 2.9 8.2 12.5 9.9 28.8 5.7 45.9-3.9 16-13.1 32.7-27 47.1-8.7 9-18.4 16.2-28.3 21.4-10.3 5.4-21 8.7-31.1 9.7-.6.1-1.2.2-1.5.2-.6.1-1.2.1-1.8.2h-.5c-.3 0-.6.1-.9.2-.2.1-.4.3-.5.5-.1.2-.2.5-.2.7 0 .2 0 .3.1.5 3.3 4 4.2 4.7 7.1 7.1 1.4 1.2 3.2 2.7 5.2 4.3l.4.3.3.3c1.7 1.8 2.8 4 3.4 6.2.7 2.8.4 5.6-.8 8.2-1.1 2.4-3.1 4.4-5.7 5.9-2.3 1.2-5.2 2-8.6 2H93.4c-25.4 0-48.5-10.3-65.1-27-16.7-16.7-27-39.7-27-65.1V83.5h.5c2.4-21.7 12.3-41.2 27-55.7C45.5 11.5 68.3 1.4 93.4 1.4h134.2v.3c11.7 1 22.7 4.2 32.8 9.2a91.39 91.39 0 0 1 32.4 26.7l.2.4c1.9 2.8 3 5.6 3.3 8.4.3 3.2-.4 6.2-2.2 8.7-1.7 2.4-4.1 4.1-7.2 5.1-3 .9-6.6 1.1-10.8.3-11.1-2.1-19.1-3.7-26.7-4.4-7.5-.7-15-.7-25.2.3-.2 0-.3.1-.5.3-.2.2-.4.4-.5.6-.1.2-.1.4-.1.7 0 .1.2.6.6 1.1z"/><path fill="#FFF" stroke="#000" stroke-width=".709" stroke-miterlimit="22.926" d="M217.3 64.6c1.4 1.4 2.5 2.9 3.5 4.4 13.7 20.7 5.6 55.8-20.3 82.6-16.5 17-36.5 27-54.4 28.6l-2.7.3c-7.9.1-12.6 8.6-8.4 15.3 5.7 7 5.6 6 13.7 13 3.1 3.3 1.4 8-5.6 8H93.4c-46.2 0-83.6-37.4-83.6-83.6V92c.8-45.5 37.9-82.1 83.6-82.1h126.2c27.1 0 51.2 12.9 66.5 32.9 4.3 6.2.9 11-8.4 9.2-22.4-4.3-32.8-6.3-54.6-4.2-6.8.9-11.8 9.4-5.8 16.8z"/><path d="M103.9 110.3c0-1.2-.3-2.2-1-2.9-.6-.7-1.4-1.1-2.3-1.1-.9 0-1.8.4-2.4 1.1-.7.8-1 1.8-1 3 0 1.1.3 2 1 2.7.7.7 1.5 1 2.4 1 1 0 1.8-.3 2.4-1 .6-.6.9-1.6.9-2.8m-8.6 7.6l2-.2c.2 1 .5 1.6 1 2.1.5.4 1.1.6 1.9.6.6 0 1.2-.1 1.7-.4.5-.3.9-.7 1.2-1.2.3-.5.6-1.2.8-2 .2-.8.3-1.7.3-2.6v-.4c-.4.7-1 1.2-1.7 1.6-.7.4-1.5.6-2.4.6-1.4 0-2.6-.5-3.6-1.5s-1.5-2.4-1.5-4.1c0-1.7.5-3.1 1.5-4.2s2.3-1.6 3.9-1.6c1.1 0 2.1.3 3.1.9.9.6 1.6 1.5 2.1 2.6s.7 2.7.7 4.8c0 2.2-.2 3.9-.7 5.2-.5 1.3-1.2 2.3-2.1 3-.9.7-2 1-3.3 1-1.3 0-2.4-.4-3.3-1.1-.9-.7-1.4-1.8-1.6-3.1zm15.2-1c0 .6.1 1.2.4 1.7.3.6.7 1 1.3 1.3.6.3 1.2.5 1.8.5 1 0 1.8-.3 2.5-1 .7-.6 1-1.5 1-2.5s-.3-1.9-1-2.5c-.7-.7-1.5-1-2.5-1s-1.8.3-2.5 1-1 1.5-1 2.5m.7-7.9c0 .8.3 1.5.8 2s1.2.8 2 .8 1.5-.3 2-.8.8-1.1.8-1.9c0-.8-.3-1.4-.8-2-.5-.5-1.2-.8-2-.8s-1.5.3-2 .8c-.6.5-.8 1.2-.8 1.9zm.4 3.5c-.9-.3-1.5-.8-1.9-1.4-.4-.6-.6-1.3-.6-2.1 0-1.3.4-2.3 1.3-3.2.9-.9 2.1-1.3 3.6-1.3s2.7.4 3.6 1.3c.9.9 1.4 1.9 1.4 3.2 0 .8-.2 1.5-.6 2.1-.4.6-1.1 1-1.9 1.4 1.1.3 1.9.9 2.4 1.7.5.8.8 1.7.8 2.7 0 1.5-.5 2.7-1.6 3.7-1 1-2.4 1.5-4.1 1.5-1.7 0-3.1-.5-4.1-1.5-1-1-1.6-2.3-1.6-3.8 0-1.1.3-2.1.9-2.8.5-.7 1.3-1.2 2.4-1.5zm9.3 9.4l4.5-6.5-4.2-6h2.6l1.9 2.9c.4.6.6 1 .9 1.4.3-.5.7-1 1-1.4l2.1-2.9h2.5l-4.3 5.9 4.6 6.6h-2.6l-2.6-3.9-.7-1-3.3 4.9h-2.4zm12.9-15v-2h11.1v1.6c-1.1 1.2-2.2 2.7-3.3 4.6-1.1 1.9-1.9 3.9-2.5 6-.4 1.4-.7 3-.8 4.7h-2.2c0-1.4.3-3 .8-4.9.5-1.9 1.2-3.8 2.2-5.5 1-1.8 2-3.3 3-4.5h-8.3zm13.2 10.4l2.1-.3c.2 1.2.7 2.1 1.2 2.6.6.5 1.3.8 2.1.8 1 0 1.8-.3 2.5-1s1-1.5 1-2.6c0-1-.3-1.8-.9-2.4-.6-.6-1.4-.9-2.4-.9-.4 0-.9.1-1.5.2l.2-1.9h.3c.9 0 1.7-.2 2.4-.7s1.1-1.2 1.1-2.2c0-.8-.3-1.4-.8-1.9s-1.2-.8-2-.8-1.5.3-2 .8-.9 1.3-1.1 2.3l-2.1-.4c.3-1.4.8-2.5 1.8-3.3.9-.8 2.1-1.2 3.4-1.2.9 0 1.8.2 2.6.6.8.4 1.4 1 1.8 1.6.4.7.6 1.4.6 2.2 0 .7-.2 1.4-.6 2-.4.6-1 1.1-1.8 1.5 1 .2 1.8.7 2.4 1.5.6.7.8 1.7.8 2.8 0 1.5-.5 2.8-1.6 3.8s-2.5 1.6-4.1 1.6c-1.5 0-2.8-.4-3.8-1.3-.8-.8-1.4-1.9-1.6-3.4"/></svg>