<svg xmlns="http://www.w3.org/2000/svg" viewBox="0 0 297.6 204.1"><path fill="#E6E0DF" stroke="#000" stroke-width=".709" stroke-miterlimit="22.926" d="M172.2 19.7c-1.6 0-3-1.4-3-3 0-4.2-3.3-7.6-7.4-7.6-.7 0-1.3.1-1.9.3-.3.1-.6.1-.9.1-1.4 0-2.6-1-2.9-2.3-.8-3.3-3.8-5.7-7.2-5.7-3.5 0-6.4 2.4-7.2 5.7-.4 1.3-1.5 2.3-2.9 2.3-.3 0-.5 0-.8-.1-.6-.2-1.3-.3-2-.3-4.1 0-7.4 3.4-7.4 7.6 0 1.7-1.3 3-3 3C89.1 19.7 45.2 1.4 8.8 1.4 4.7 1.4 1.4 4.8 1.4 9c8.9 50.2 9.7 134.5 0 186.2 0 4.2 3.3 7.5 7.4 7.5h280.1c4.1 0 7.4-3.4 7.4-7.5-10.8-50.9-9.5-135.3 0-186.2 0-4.2-3.3-7.5-7.4-7.5-36.5-.1-80.3 18.2-116.7 18.2z"/><path fill="#FFF" stroke="#000" stroke-width=".709" stroke-miterlimit="22.926" d="M171 25.5c-1.6 0-2.8-1.3-2.8-2.8 0-3.9-3.2-7.1-7.1-7.1-.6 0-1.3.1-1.9.2-.3.1-.5.1-.8.1-1.3 0-2.5-.9-2.8-2.2-.8-3-3.6-5.3-6.9-5.3-3.3 0-6.1 2.3-6.9 5.3-.3 1.2-1.4 2.1-2.8 2.1-.3 0-.5 0-.8-.1-.6-.2-1.2-.3-1.9-.3-3.9 0-7.1 3.2-7.1 7.1 0 1.6-1.3 2.8-2.8 2.8-34.7 0-76.4-17-111.1-17-3.9 0-7 3.2-7 7 8.5 46.7 9.2 125 0 173.1 0 3.9 3.2 7 7 7h266.5c3.9 0 7-3.2 7-7-10.3-47.4-9.1-125.8 0-173.1 0-3.9-3.2-7-7-7-34.4.2-76.1 17.2-110.8 17.2z"/><path d="M126.6 99c0-1.2-.3-2.2-1-2.9-.6-.7-1.4-1.1-2.3-1.1-.9 0-1.8.4-2.4 1.1-.7.8-1 1.8-1 3 0 1.1.3 2 1 2.7.7.7 1.5 1 2.4 1 1 0 1.8-.3 2.4-1 .6-.7.9-1.6.9-2.8m-8.6 7.6l2-.2c.2 1 .5 1.6 1 2.1.5.4 1.1.6 1.9.6.6 0 1.2-.1 1.7-.4.5-.3.9-.7 1.2-1.2.3-.5.6-1.2.8-2 .2-.8.3-1.7.3-2.6v-.4c-.4.7-1 1.2-1.7 1.6-.7.4-1.5.6-2.4.6-1.4 0-2.6-.5-3.6-1.5s-1.5-2.4-1.5-4.1c0-1.7.5-3.1 1.5-4.2s2.3-1.6 3.9-1.6c1.1 0 2.1.3 3.1.9.9.6 1.6 1.5 2.1 2.6s.7 2.7.7 4.8c0 2.2-.2 3.9-.7 5.2-.5 1.3-1.2 2.3-2.1 3-.9.7-2 1-3.3 1-1.3 0-2.4-.4-3.3-1.1-.9-.7-1.4-1.8-1.6-3.1zm22-7.6c0-1.2-.3-2.2-1-2.9-.6-.7-1.4-1.1-2.3-1.1-.9 0-1.8.4-2.4 1.1-.7.8-1 1.8-1 3 0 1.1.3 2 1 2.7.7.7 1.5 1 2.4 1 1 0 1.8-.3 2.4-1 .6-.7.9-1.6.9-2.8m-8.7 7.6l2-.2c.2 1 .5 1.6 1 2.1.5.4 1.1.6 1.9.6.6 0 1.2-.1 1.7-.4.5-.3.9-.7 1.2-1.2.3-.5.6-1.2.8-2 .2-.8.3-1.7.3-2.6v-.4c-.4.7-1 1.2-1.7 1.6-.7.4-1.5.6-2.4.6-1.4 0-2.6-.5-3.6-1.5s-1.5-2.4-1.5-4.1c0-1.7.5-3.1 1.5-4.2s2.3-1.6 3.9-1.6c1.1 0 2.1.3 3.1.9.9.6 1.6 1.5 2.1 2.6s.7 2.7.7 4.8c0 2.2-.2 3.9-.7 5.2-.5 1.3-1.2 2.3-2.1 3-.9.7-2 1-3.3 1-1.3 0-2.4-.4-3.3-1.1-.9-.7-1.4-1.8-1.6-3.1zm12.2 3.9l4.5-6.5-4.2-6h2.6l1.9 2.9c.4.6.6 1 .9 1.4.3-.5.7-1 1-1.4l2.1-2.9h2.5l-4.3 5.9 4.6 6.6h-2.6l-2.6-3.9-.7-1-3.3 4.9h-2.4zm15.2-5.5c0 .7.2 1.4.5 2.1.3.7.7 1.2 1.3 1.5.6.3 1.1.5 1.7.5.9 0 1.7-.4 2.3-1.1.6-.7 1-1.7 1-2.9s-.3-2.1-.9-2.8-1.4-1-2.4-1-1.8.3-2.4 1c-.8.7-1.1 1.6-1.1 2.7m8.6-7.4l-2.1.2c-.2-.8-.5-1.4-.8-1.8-.6-.6-1.3-.9-2.1-.9-.7 0-1.3.2-1.8.6-.7.5-1.2 1.2-1.6 2.1-.4.9-.6 2.3-.6 4 .5-.8 1.1-1.3 1.9-1.7.7-.4 1.5-.6 2.3-.6 1.4 0 2.6.5 3.6 1.6 1 1 1.5 2.4 1.5 4 0 1.1-.2 2.1-.7 3-.5.9-1.1 1.6-1.9 2.1-.8.5-1.7.7-2.8.7-1.8 0-3.2-.6-4.3-1.9-1.1-1.3-1.7-3.4-1.7-6.4 0-3.3.6-5.7 1.8-7.2 1.1-1.3 2.5-2 4.3-2 1.3 0 2.5.4 3.3 1.1 1 .7 1.5 1.7 1.7 3.1zm4.7 7.4c0 .7.2 1.4.5 2.1.3.7.7 1.2 1.3 1.5.6.3 1.1.5 1.7.5.9 0 1.7-.4 2.3-1.1.6-.7 1-1.7 1-2.9s-.3-2.1-.9-2.8-1.4-1-2.4-1-1.8.3-2.4 1c-.7.7-1.1 1.6-1.1 2.7m8.7-7.4l-2.1.2c-.2-.8-.5-1.4-.8-1.8-.6-.6-1.3-.9-2.1-.9-.7 0-1.3.2-1.8.6-.7.5-1.2 1.2-1.6 2.1-.4.9-.6 2.3-.6 4 .5-.8 1.1-1.3 1.9-1.7.7-.4 1.5-.6 2.3-.6 1.4 0 2.6.5 3.6 1.6 1 1 1.5 2.4 1.5 4 0 1.1-.2 2.1-.7 3-.5.9-1.1 1.6-1.9 2.1-.8.5-1.7.7-2.8.7-1.8 0-3.2-.6-4.3-1.9-1.1-1.3-1.7-3.4-1.7-6.4 0-3.3.6-5.7 1.8-7.2 1.1-1.3 2.5-2 4.3-2 1.3 0 2.5.4 3.3 1.1 1 .7 1.5 1.7 1.7 3.1z"/></svg>