<svg id="Слой_1" xmlns="http://www.w3.org/2000/svg" viewBox="0 0 328.8 328.8"><style>.st0,.st1{fill:#e6e0df;stroke:#000;stroke-width:.7087;stroke-miterlimit:22.9256}.st1{fill:#fff}</style><path class="st0" d="M164.4 1.4c90 0 163 73 163 163s-73 163-163 163-163-73-163-163 73-163 163-163z"/><path class="st1" d="M164.4 8.5c86.1 0 155.9 69.8 155.9 155.9s-69.8 155.9-155.9 155.9S8.5 250.5 8.5 164.4 78.3 8.5 164.4 8.5z"/><path d="M138 170.9h3.7c1.1 0 2-.1 2.7-.3.6-.2 1.2-.5 1.5-.9.5-.5 1-1.3 1.3-2.2.3-.9.5-2 .5-3.3 0-1.8-.3-3.2-.9-4.1-.6-1-1.3-1.6-2.2-1.9-.6-.2-1.6-.4-2.9-.4H138v13.1zm-2.3 2v-17.2h5.9c1.3 0 2.4.1 3.1.2 1 .2 1.8.6 2.5 1.2.9.8 1.6 1.7 2 2.9.5 1.2.7 2.6.7 4.1 0 1.3-.2 2.5-.5 3.5s-.7 1.8-1.2 2.5-1 1.2-1.6 1.6c-.6.4-1.2.7-2 .9-.8.2-1.7.3-2.8.3h-6.1zm31.1 0h-2.1v-13.4c-.5.5-1.2 1-2 1.5s-1.6.8-2.2 1.1v-2c1.2-.6 2.2-1.2 3.1-2 .9-.8 1.5-1.6 1.9-2.3h1.4v17.1zm11.6 0h-2.1v-13.4c-.5.5-1.2 1-2 1.5s-1.6.8-2.2 1.1v-2c1.2-.6 2.2-1.2 3.1-2 .9-.8 1.5-1.6 1.9-2.3h1.4v17.1zm7.5-8.5c0 2.8.3 4.7 1 5.6.7.9 1.5 1.4 2.4 1.4 1 0 1.8-.5 2.4-1.4.7-.9 1-2.8 1-5.6s-.3-4.7-1-5.6c-.7-.9-1.5-1.4-2.5-1.4s-1.7.4-2.3 1.2c-.6 1.1-1 3-1 5.8m-2.1 0c0-2 .2-3.7.6-4.9.4-1.2 1-2.2 1.9-2.9.8-.7 1.9-1 3.1-1 .9 0 1.7.2 2.4.6.7.4 1.3.9 1.7 1.6.5.7.8 1.6 1.1 2.6.3 1 .4 2.4.4 4.1 0 2-.2 3.6-.6 4.9-.4 1.2-1 2.2-1.9 2.9-.8.7-1.9 1-3.1 1-1.7 0-3-.6-3.9-1.8-1.2-1.5-1.7-3.9-1.7-7.1z"/></svg>