<svg id="Слой_1" xmlns="http://www.w3.org/2000/svg" viewBox="0 0 144.6 144.6"><style>.st0,.st1{fill:#e6e0df;stroke:#000;stroke-width:.7087;stroke-miterlimit:22.9256}.st1{fill:#fff}</style><path class="st0" d="M13.6 111.7C-8.4 79.2.1 35.2 32.5 13.4 64.9-8.4 109 .3 130.9 32.8c22 32.5 13.5 76.5-18.9 98.3-32.3 21.8-76.4 13.1-98.4-19.4z"/><path class="st1" d="M19.5 107.8C-.3 78.5 7.3 38.9 36.5 19.3 65.6-.3 105.3 7.5 125.1 36.8c19.8 29.3 12.2 68.9-17 88.5-29.2 19.6-68.8 11.7-88.6-17.5z"/><path d="M51.5 78.7h3.7c1.1 0 2-.1 2.7-.3.6-.2 1.2-.5 1.5-.9.5-.5 1-1.3 1.3-2.2.3-.9.5-2 .5-3.3 0-1.8-.3-3.2-.9-4.1-.6-1-1.3-1.6-2.2-1.9-.6-.2-1.6-.4-2.9-.4h-3.6v13.1zm-2.2 2V63.5h5.9c1.3 0 2.4.1 3.1.2 1 .2 1.8.6 2.5 1.2.9.8 1.6 1.7 2 2.9.5 1.2.7 2.6.7 4.1 0 1.3-.2 2.5-.5 3.5s-.7 1.8-1.2 2.5-1 1.2-1.6 1.6c-.6.4-1.2.7-2 .9-.8.2-1.7.3-2.8.3h-6.1zm29.9-6V67l-5.4 7.7h5.4zm0 6v-4.1h-7.5v-1.9l7.8-11.1h1.7v11.1h2.3v1.9h-2.3v4.1h-2zm6.6-4.5L88 76c.2 1.1.5 1.9 1.1 2.4.6.5 1.3.8 2.2.8 1 0 1.9-.4 2.6-1.1.7-.8 1.1-1.8 1.1-3s-.3-2.2-1-2.8c-.7-.7-1.6-1-2.7-1-.7 0-1.3.2-1.8.5s-1 .7-1.3 1.2l-2-.3 1.7-8.8h8.5v2h-6.9l-.9 4.6c1-.7 2.1-1.1 3.2-1.1 1.5 0 2.8.5 3.8 1.6 1 1 1.5 2.4 1.5 4s-.5 2.9-1.4 4c-1.1 1.4-2.6 2.1-4.5 2.1-1.6 0-2.8-.4-3.8-1.3-.9-1-1.5-2.1-1.6-3.6"/></svg>