<svg id="Слой_1" xmlns="http://www.w3.org/2000/svg" viewBox="0 0 187.1 187.1"><style>.st0,.st1{fill:#e6e0df;stroke:#000;stroke-width:.7087;stroke-miterlimit:22.9256}.st1{fill:#fff}</style><path class="st0" d="M93.5 1.4c50.9 0 92.1 41.3 92.1 92.1s-41.3 92.1-92.1 92.1S1.4 144.4 1.4 93.5 42.7 1.4 93.5 1.4z"/><circle class="st1" cx="93.5" cy="93.5" r="85"/><path d="M72.9 100h3.7c1.1 0 2-.1 2.7-.3.6-.2 1.2-.5 1.5-.9.5-.5 1-1.3 1.3-2.2.3-.9.5-2 .5-3.3 0-1.8-.3-3.2-.9-4.1-.6-1-1.3-1.6-2.2-1.9-.6-.2-1.6-.4-2.9-.4H73V100zm-2.3 2V84.8h5.9c1.3 0 2.4.1 3.1.2 1 .2 1.8.6 2.5 1.2.9.8 1.6 1.7 2 2.9.5 1.2.7 2.6.7 4.1 0 1.3-.2 2.5-.5 3.5s-.7 1.8-1.2 2.5-1 1.2-1.6 1.6c-.6.4-1.2.7-2 .9-.8.2-1.7.3-2.8.3h-6.1zm25.5-5.5c0 .7.2 1.4.5 2.1.3.7.7 1.2 1.3 1.5.6.3 1.1.5 1.7.5.9 0 1.7-.4 2.3-1.1.6-.7 1-1.7 1-2.9s-.3-2.1-.9-2.8c-.6-.7-1.4-1-2.4-1s-1.8.3-2.4 1c-.8.7-1.1 1.5-1.1 2.7m8.6-7.4l-2.1.2c-.2-.8-.5-1.4-.8-1.8-.6-.6-1.3-.9-2.1-.9-.7 0-1.3.2-1.8.6-.7.5-1.2 1.2-1.6 2.1-.4.9-.6 2.3-.6 4 .5-.8 1.1-1.3 1.9-1.7.7-.4 1.5-.6 2.3-.6 1.4 0 2.6.5 3.6 1.6 1 1 1.5 2.4 1.5 4 0 1.1-.2 2.1-.7 3-.5.9-1.1 1.6-1.9 2.1-.8.5-1.7.7-2.8.7-1.8 0-3.2-.6-4.3-1.9-1.1-1.3-1.7-3.4-1.7-6.4 0-3.3.6-5.7 1.8-7.2 1.1-1.3 2.5-2 4.3-2 1.3 0 2.5.4 3.3 1.1 1 .7 1.5 1.7 1.7 3.1zm4.6 4.5c0 2.8.3 4.7 1 5.6.7.9 1.5 1.4 2.4 1.4 1 0 1.8-.5 2.4-1.4.7-.9 1-2.8 1-5.6s-.3-4.7-1-5.6c-.7-.9-1.5-1.4-2.5-1.4s-1.7.4-2.3 1.2c-.7 1-1 2.9-1 5.8m-2.2 0c0-2 .2-3.7.6-4.9.4-1.2 1-2.2 1.9-2.9.8-.7 1.9-1 3.1-1 .9 0 1.7.2 2.4.6.7.4 1.3.9 1.7 1.6.5.7.8 1.6 1.1 2.6.3 1 .4 2.4.4 4.1 0 2-.2 3.6-.6 4.9-.4 1.2-1 2.2-1.9 2.9-.8.7-1.9 1-3.1 1-1.7 0-3-.6-3.9-1.8-1.1-1.6-1.7-3.9-1.7-7.1z"/></svg>