<svg id="Слой_1" xmlns="http://www.w3.org/2000/svg" viewBox="0 0 215.4 215.4"><style>.st0,.st1{fill:#e6e0df;stroke:#000;stroke-width:.7087;stroke-miterlimit:22.9256}.st1{fill:#fff}</style><path class="st0" d="M107.7 1.4C166.4 1.4 214 49 214 107.7S166.4 214 107.7 214 1.4 166.4 1.4 107.7 49 1.4 107.7 1.4z"/><path class="st1" d="M107.7 8.5c54.8 0 99.2 44.4 99.2 99.2s-44.4 99.2-99.2 99.2-99.2-44.4-99.2-99.2S52.9 8.5 107.7 8.5z"/><path d="M87.1 114.2h3.7c1.1 0 2-.1 2.7-.3.6-.2 1.2-.5 1.5-.9.5-.5 1-1.3 1.3-2.2.3-.9.5-2 .5-3.3 0-1.8-.3-3.2-.9-4.1-.6-1-1.3-1.6-2.2-1.9-.6-.2-1.6-.4-2.9-.4h-3.6v13.1zm-2.3 2V99h5.9c1.3 0 2.4.1 3.1.2 1 .2 1.8.6 2.5 1.2.9.8 1.6 1.7 2 2.9.5 1.2.7 2.6.7 4.1 0 1.3-.2 2.5-.5 3.5s-.7 1.8-1.2 2.5-1 1.2-1.6 1.6c-.6.4-1.2.7-2 .9-.8.2-1.7.3-2.8.3h-6.1zm23.3-14.9v-2h11.1v1.6c-1.1 1.2-2.2 2.7-3.3 4.6-1.1 1.9-1.9 3.9-2.5 6-.4 1.4-.7 3-.8 4.7h-2.2c0-1.4.3-3 .8-4.9.5-1.9 1.2-3.8 2.2-5.5 1-1.8 2-3.3 3-4.5h-8.3zm15.4 6.4c0 2.8.3 4.7 1 5.6.7.9 1.5 1.4 2.4 1.4 1 0 1.8-.5 2.4-1.4.7-.9 1-2.8 1-5.6s-.3-4.7-1-5.6c-.7-.9-1.5-1.4-2.5-1.4s-1.7.4-2.3 1.2c-.7 1.1-1 3-1 5.8m-2.2 0c0-2 .2-3.7.6-4.9.4-1.2 1-2.2 1.9-2.9.8-.7 1.9-1 3.1-1 .9 0 1.7.2 2.4.6.7.4 1.3.9 1.7 1.6.5.7.8 1.6 1.1 2.6.3 1 .4 2.4.4 4.1 0 2-.2 3.6-.6 4.9-.4 1.2-1 2.2-1.9 2.9-.8.7-1.9 1-3.1 1-1.7 0-3-.6-3.9-1.8-1.1-1.5-1.7-3.9-1.7-7.1z"/></svg>