<svg id="Слой_1" xmlns="http://www.w3.org/2000/svg" viewBox="0 0 243.8 243.8"><style>.st0,.st1{fill:#e6e0df;stroke:#000;stroke-width:.7087;stroke-miterlimit:22.9256}.st1{fill:#fff}</style><path class="st0" d="M121.9 1.4c66.5 0 120.5 53.9 120.5 120.5 0 66.5-53.9 120.5-120.5 120.5-66.5 0-120.5-53.9-120.5-120.5 0-66.5 54-120.5 120.5-120.5z"/><path class="st1" d="M121.9 8.5c62.6 0 113.4 50.8 113.4 113.4s-50.8 113.4-113.4 113.4S8.5 184.5 8.5 121.9 59.3 8.5 121.9 8.5z"/><path d="M95.5 128.3h3.7c1.1 0 2-.1 2.7-.3.6-.2 1.2-.5 1.5-.9.5-.5 1-1.3 1.3-2.2.3-.9.5-2 .5-3.3 0-1.8-.3-3.2-.9-4.1-.6-1-1.3-1.6-2.2-1.9-.6-.2-1.6-.4-2.9-.4h-3.6v13.1zm-2.3 2.1v-17.2h5.9c1.3 0 2.4.1 3.1.2 1 .2 1.8.6 2.5 1.2.9.8 1.6 1.7 2 2.9.5 1.2.7 2.6.7 4.1 0 1.3-.2 2.5-.5 3.5s-.7 1.8-1.2 2.5-1 1.2-1.6 1.6c-.6.4-1.2.7-2 .9-.8.2-1.7.3-2.8.3h-6.1zm25.3-5c0 .6.1 1.2.4 1.7.3.6.7 1 1.3 1.3.6.3 1.2.5 1.8.5 1 0 1.8-.3 2.5-1 .7-.6 1-1.5 1-2.5s-.3-1.9-1-2.5c-.7-.7-1.5-1-2.5-1s-1.8.3-2.5 1-1 1.5-1 2.5m.7-7.9c0 .8.3 1.5.8 2s1.2.8 2 .8 1.5-.3 2-.8.8-1.1.8-1.9c0-.8-.3-1.4-.8-2-.5-.5-1.2-.8-2-.8s-1.5.3-2 .8c-.6.5-.8 1.2-.8 1.9zm.4 3.6c-.9-.3-1.5-.8-1.9-1.4-.4-.6-.6-1.3-.6-2.1 0-1.3.4-2.3 1.3-3.2.9-.9 2.1-1.3 3.6-1.3s2.7.4 3.6 1.3c.9.9 1.4 1.9 1.4 3.2 0 .8-.2 1.5-.6 2.1-.4.6-1.1 1-1.9 1.4 1.1.3 1.9.9 2.4 1.7.5.8.8 1.7.8 2.7 0 1.5-.5 2.7-1.6 3.7-1 1-2.4 1.5-4.1 1.5-1.7 0-3.1-.5-4.1-1.5s-1.6-2.3-1.6-3.8c0-1.1.3-2.1.9-2.8.5-.8 1.3-1.3 2.4-1.5zm12.2.8c0 2.8.3 4.7 1 5.6.7.9 1.5 1.4 2.4 1.4 1 0 1.8-.5 2.4-1.4.7-.9 1-2.8 1-5.6s-.3-4.7-1-5.6c-.7-.9-1.5-1.4-2.5-1.4s-1.7.4-2.3 1.2c-.6 1-1 3-1 5.8m-2.1 0c0-2 .2-3.7.6-4.9.4-1.2 1-2.2 1.9-2.9.8-.7 1.9-1 3.1-1 .9 0 1.7.2 2.4.6.7.4 1.3.9 1.7 1.6.5.7.8 1.6 1.1 2.6.3 1 .4 2.4.4 4.1 0 2-.2 3.6-.6 4.9-.4 1.2-1 2.2-1.9 2.9-.8.7-1.9 1-3.1 1-1.7 0-3-.6-3.9-1.8-1.2-1.5-1.7-3.9-1.7-7.1z"/></svg>