<svg id="Слой_1" xmlns="http://www.w3.org/2000/svg" viewBox="0 0 292 292"><style>.st0,.st1{fill:#e6e0df;stroke:#000;stroke-width:.7087;stroke-miterlimit:22.9256}.st1{fill:#fff}</style><path class="st0" d="M146 1.4c79.8 0 144.6 64.7 144.6 144.6 0 79.8-64.7 144.6-144.6 144.6C66.2 290.6 1.4 225.8 1.4 146S66.2 1.4 146 1.4z"/><path class="st1" d="M146 8.5c75.9 0 137.5 61.6 137.5 137.5S221.9 283.5 146 283.5 8.5 221.9 8.5 146 70.1 8.5 146 8.5z"/><path d="M125.3 152.4h3.7c1.1 0 2-.1 2.7-.3.6-.2 1.2-.5 1.5-.9.5-.5 1-1.3 1.3-2.2.3-.9.5-2 .5-3.3 0-1.8-.3-3.2-.9-4.1-.6-1-1.3-1.6-2.2-1.9-.6-.2-1.6-.4-2.9-.4h-3.6v13.1zm-2.3 2.1v-17.2h5.9c1.3 0 2.4.1 3.1.2 1 .2 1.8.6 2.5 1.2.9.8 1.6 1.7 2 2.9.5 1.2.7 2.6.7 4.1 0 1.3-.2 2.5-.5 3.5s-.7 1.8-1.2 2.5-1 1.2-1.6 1.6c-.6.4-1.2.7-2 .9-.8.2-1.7.3-2.8.3H123zm32.1-11.6c0-1.2-.3-2.2-1-2.9-.6-.7-1.4-1.1-2.3-1.1-.9 0-1.8.4-2.4 1.1-.7.8-1 1.8-1 3 0 1.1.3 2 1 2.7.7.7 1.5 1 2.4 1 1 0 1.8-.3 2.4-1 .6-.6.9-1.6.9-2.8m-8.6 7.6l2-.2c.2 1 .5 1.6 1 2.1.5.4 1.1.6 1.9.6.6 0 1.2-.1 1.7-.4.5-.3.9-.7 1.2-1.2.3-.5.6-1.2.8-2 .2-.8.3-1.7.3-2.6v-.4c-.4.7-1 1.2-1.7 1.6-.7.4-1.5.6-2.4.6-1.4 0-2.6-.5-3.6-1.5s-1.5-2.4-1.5-4.1c0-1.7.5-3.1 1.5-4.2s2.3-1.6 3.9-1.6c1.1 0 2.1.3 3.1.9.9.6 1.6 1.5 2.1 2.6s.7 2.7.7 4.8c0 2.2-.2 3.9-.7 5.2-.5 1.3-1.2 2.3-2.1 3-.9.7-2 1-3.3 1-1.3 0-2.4-.4-3.3-1.1-.9-.7-1.4-1.8-1.6-3.1zm13.2-11v-2h11.1v1.6c-1.1 1.2-2.2 2.7-3.3 4.6-1.1 1.9-1.9 3.9-2.5 6-.4 1.4-.7 3-.8 4.7H162c0-1.4.3-3 .8-4.9.5-1.9 1.2-3.8 2.2-5.5 1-1.8 2-3.3 3-4.5h-8.3z"/></svg>