<svg id="Слой_1" xmlns="http://www.w3.org/2000/svg" viewBox="0 0 286.3 201.3"><style>.st0,.st1{fill:#e6e0df;stroke:#000;stroke-width:.7087;stroke-miterlimit:22.9256}.st1{fill:#fff}</style><path class="st0" d="M143.1 1.4c78.3 0 141.7 44.4 141.7 99.2 0 54.8-63.5 99.2-141.7 99.2S1.4 155.4 1.4 100.6c0-54.8 63.5-99.2 141.7-99.2z"/><path class="st1" d="M143.1 8.5c74.4 0 134.6 41.3 134.6 92.1 0 50.9-60.3 92.1-134.6 92.1-74.4 0-134.6-41.3-134.6-92.1S68.8 8.5 143.1 8.5z"/><path d="M120.9 97.6c0-1.2-.3-2.2-1-2.9-.6-.7-1.4-1.1-2.3-1.1-.9 0-1.8.4-2.4 1.1-.7.8-1 1.8-1 3 0 1.1.3 2 1 2.7.7.7 1.5 1 2.4 1 1 0 1.8-.3 2.4-1 .6-.7.9-1.6.9-2.8m-8.7 7.5l2-.2c.2 1 .5 1.6 1 2.1.5.4 1.1.6 1.9.6.6 0 1.2-.1 1.7-.4.5-.3.9-.7 1.2-1.2.3-.5.6-1.2.8-2 .2-.8.3-1.7.3-2.6v-.4c-.4.7-1 1.2-1.7 1.6-.7.4-1.5.6-2.4.6-1.4 0-2.6-.5-3.6-1.5s-1.5-2.4-1.5-4.1c0-1.7.5-3.1 1.5-4.2s2.3-1.6 3.9-1.6c1.1 0 2.1.3 3.1.9.9.6 1.6 1.5 2.1 2.6s.7 2.7.7 4.8c0 2.2-.2 3.9-.7 5.2-.5 1.3-1.2 2.3-2.1 3-.9.7-2 1-3.3 1-1.3 0-2.4-.4-3.3-1.1-.9-.7-1.4-1.7-1.6-3.1zm13.1-.5l2.2-.2c.2 1.1.5 1.9 1.1 2.4.6.5 1.3.8 2.2.8 1 0 1.9-.4 2.6-1.1.7-.8 1.1-1.8 1.1-3s-.3-2.2-1-2.8c-.7-.7-1.6-1-2.7-1-.7 0-1.3.2-1.8.5s-1 .7-1.3 1.2l-2-.3 1.7-8.8h8.5v2H129l-.9 4.6c1-.7 2.1-1.1 3.2-1.1 1.5 0 2.8.5 3.8 1.6 1 1 1.5 2.4 1.5 4s-.5 2.9-1.4 4c-1.1 1.4-2.6 2.1-4.5 2.1-1.6 0-2.8-.4-3.8-1.3-.9-1-1.5-2.1-1.6-3.6m12.5 4.5l4.5-6.5-4.2-6h2.6l1.9 2.9c.4.6.6 1 .9 1.4.3-.5.7-1 1-1.4l2.1-2.9h2.5l-4.3 5.9 4.6 6.6h-2.6l-2.6-3.9-.7-1-3.3 4.9h-2.4zm15.2-5.6c0 .7.2 1.4.5 2.1.3.7.7 1.2 1.3 1.5.6.3 1.1.5 1.7.5.9 0 1.7-.4 2.3-1.1.6-.7 1-1.7 1-2.9s-.3-2.1-.9-2.8-1.4-1-2.4-1-1.8.3-2.4 1c-.8.7-1.1 1.6-1.1 2.7m8.6-7.4l-2.1.2c-.2-.8-.5-1.4-.8-1.8-.6-.6-1.3-.9-2.1-.9-.7 0-1.3.2-1.8.6-.7.5-1.2 1.2-1.6 2.1-.4.9-.6 2.3-.6 4 .5-.8 1.1-1.3 1.9-1.7.7-.4 1.5-.6 2.3-.6 1.4 0 2.6.5 3.6 1.6 1 1 1.5 2.4 1.5 4 0 1.1-.2 2.1-.7 3-.5.9-1.1 1.6-1.9 2.1-.8.5-1.7.7-2.8.7-1.8 0-3.2-.6-4.3-1.9-1.1-1.3-1.7-3.4-1.7-6.4 0-3.3.6-5.7 1.8-7.2 1.1-1.3 2.5-2 4.3-2 1.3 0 2.5.4 3.3 1.1 1 .8 1.5 1.8 1.7 3.1zm2.4 8.5l2.2-.2c.2 1.1.5 1.9 1.1 2.4.6.5 1.3.8 2.2.8 1 0 1.9-.4 2.6-1.1.7-.8 1.1-1.8 1.1-3s-.3-2.2-1-2.8c-.7-.7-1.6-1-2.7-1-.7 0-1.3.2-1.8.5s-1 .7-1.3 1.2l-2-.3 1.7-8.8h8.5v2h-6.9l-.9 4.6c1-.7 2.1-1.1 3.2-1.1 1.5 0 2.8.5 3.8 1.6 1 1 1.5 2.4 1.5 4s-.5 2.9-1.4 4c-1.1 1.4-2.6 2.1-4.5 2.1-1.6 0-2.8-.4-3.8-1.3-.9-1-1.5-2.1-1.6-3.6"/></svg>