<svg id="Слой_1" xmlns="http://www.w3.org/2000/svg" viewBox="0 0 413.9 206.9"><style>.st0,.st1{fill:#e6e0df;stroke:#000;stroke-width:.7087;stroke-miterlimit:22.9256}.st1{fill:#fff}</style><path class="st0" d="M18 62.9c10.3-12 25.4-23 44.8-32.4 19.3-9.4 41.8-16.7 66.3-21.6 24.4-4.9 50.8-7.5 77.8-7.5s53.4 2.6 77.8 7.5c24.5 4.9 47 12.2 66.3 21.6 19.4 9.4 34.5 20.4 44.8 32.4 10.8 12.6 16.5 26.3 16.5 40.6 0 14.2-5.7 27.9-16.6 40.5-10.3 12-25.4 23-44.8 32.4-19.3 9.4-41.8 16.7-66.3 21.6-24.4 4.9-50.8 7.5-77.8 7.5s-53.4-2.6-77.8-7.5c-24.5-4.9-47-12.2-66.3-21.6C43.4 167 28.3 156 18 144 7.1 131.4 1.4 117.7 1.4 103.5c0-14.3 5.7-28 16.6-40.6z"/><path class="st1" d="M65.9 36.9c-37 18-57.4 41.6-57.4 66.6 0 25 20.4 48.6 57.4 66.6 37.6 18.3 87.7 28.4 141.1 28.4 53.3 0 103.4-10.1 141.1-28.4 37-18 57.3-41.6 57.3-66.6 0-25-20.4-48.6-57.3-66.6-37.7-18.3-87.8-28.4-141.2-28.4-53.3 0-103.4 10.1-141 28.4z"/><path d="M177 111.9h-2.1V98.5c-.5.5-1.2 1-2 1.5s-1.6.8-2.2 1.1v-2c1.2-.6 2.2-1.2 3.1-2 .9-.8 1.5-1.6 1.9-2.3h1.4v17.1zm12.2-6v-7.7l-5.4 7.7h5.4zm0 6v-4.1h-7.5v-1.9l7.8-11.1h1.7v11.1h2.3v1.9h-2.3v4.1h-2zm8.8-8.4c0 2.8.3 4.7 1 5.6.7.9 1.5 1.4 2.4 1.4 1 0 1.8-.5 2.4-1.4.7-.9 1-2.8 1-5.6s-.3-4.7-1-5.6c-.7-.9-1.5-1.4-2.5-1.4s-1.7.4-2.3 1.2c-.7 1-1 3-1 5.8m-2.2 0c0-2 .2-3.7.6-4.9.4-1.2 1-2.2 1.9-2.9.8-.7 1.9-1 3.1-1 .9 0 1.7.2 2.4.6.7.4 1.3.9 1.7 1.6.5.7.8 1.6 1.1 2.6.3 1 .4 2.4.4 4.1 0 2-.2 3.6-.6 4.9-.4 1.2-1 2.2-1.9 2.9-.8.7-1.9 1-3.1 1-1.7 0-3-.6-3.9-1.8-1.1-1.6-1.7-3.9-1.7-7.1zm12.5 8.4l4.5-6.5-4.2-6h2.6l1.9 2.9c.4.6.6 1 .9 1.4.3-.5.7-1 1-1.4l2.1-2.9h2.5l-4.3 5.9 4.6 6.6h-2.6l-2.6-3.9-.7-1-3.3 4.9h-2.4zm15.2-5.5c0 .7.2 1.4.5 2.1.3.7.7 1.2 1.3 1.5.6.3 1.1.5 1.7.5.9 0 1.7-.4 2.3-1.1.6-.7 1-1.7 1-2.9s-.3-2.1-.9-2.8c-.6-.7-1.4-1-2.4-1s-1.8.3-2.4 1c-.8.7-1.1 1.6-1.1 2.7m8.6-7.4l-2.1.2c-.2-.8-.5-1.4-.8-1.8-.6-.6-1.3-.9-2.1-.9-.7 0-1.3.2-1.8.6-.7.5-1.2 1.2-1.6 2.1-.4.9-.6 2.3-.6 4 .5-.8 1.1-1.3 1.9-1.7.7-.4 1.5-.6 2.3-.6 1.4 0 2.6.5 3.6 1.6 1 1 1.5 2.4 1.5 4 0 1.1-.2 2.1-.7 3-.5.9-1.1 1.6-1.9 2.1-.8.5-1.7.7-2.8.7-1.8 0-3.2-.6-4.3-1.9-1.1-1.3-1.7-3.4-1.7-6.4 0-3.3.6-5.7 1.8-7.2 1.1-1.3 2.5-2 4.3-2 1.3 0 2.5.4 3.3 1.1 1 .7 1.5 1.7 1.7 3.1zm2.5-2v-2h11.1v1.6c-1.1 1.2-2.2 2.7-3.3 4.6-1.1 1.9-1.9 3.9-2.5 6-.4 1.4-.7 3-.8 4.7H237c0-1.4.3-3 .8-4.9.5-1.9 1.2-3.8 2.2-5.5 1-1.8 2-3.3 3-4.5h-8.4z"/></svg>