<?xml version="1.0" encoding="utf-8"?>
<!-- Generator: Adobe Illustrator 19.2.0, SVG Export Plug-In . SVG Version: 6.00 Build 0)  -->
<svg version="1.1" id="Слой_1" xmlns="http://www.w3.org/2000/svg" xmlns:xlink="http://www.w3.org/1999/xlink" x="0px" y="0px"
	 viewBox="0 0 306.1 218.3" enable-background="new 0 0 306.1 218.3" xml:space="preserve">
<path fill="#E6E0DF" stroke="#000000" stroke-width="0.7087" stroke-miterlimit="22.9256" d="M216,1.5c0,0-0.1-0.1-0.1-0.1
	s-1.5,0-2.3,0c-0.1,0-0.1,0-0.2,0c0,0,0,0,0,0c-0.1,0-0.4,0-0.4,0H92.7c-49.6,0-90,39.7-91.2,88.8l0,0c0,0,0,0.4,0,0.6
	c0,0.5-0.1,1-0.1,1.5c0,0,0,0.1,0,0.2c0,0.2,0,0.7,0,0.7V128c0,0,0.1,0.1,0.1,0.1c1.2,48.3,40.2,87.2,88.6,88.6c0,0,0.1,0.1,0.1,0.1
	s1.5,0,2.3,0c0.1,0,0.1,0,0.2,0h0h0l0,0c0.1,0,0.2,0,0.3,0h0h122.8l0.2-0.1c49.1-1.4,88.6-41.5,88.6-90.8V92.4
	C304.7,43.1,265.2,2.9,216,1.5z"/>
<path fill="none" stroke="#000000" stroke-width="0.5601" d="M213.4,209.1H93.3c0,0-0.2,0-0.3,0l-0.1,0l-2.6-0.1
	c-44.4-1.3-79.9-36.8-81-81l-0.1-2.5l0-0.1v-32l0-0.6l0-0.7l0-0.1c0-0.3,0-0.6,0-0.9l0-0.5l0-0.1l0-0.1C9.8,68.7,18.7,48.3,34.4,33
	C50.1,17.7,70.8,9.2,92.7,9.2H213h-0.1l0.3,0l0.1,0l0,0c0.1,0,0.2,0,0.3,0h-0.1l0.2,0l0.1,0.1l2,0.1c21.8,0.6,42.2,9.5,57.4,25.1
	c15.3,15.6,23.7,36.2,23.7,58v33.5c0,21.7-8.4,42.3-23.7,57.9c-15.2,15.6-35.6,24.5-57.4,25.1L213.4,209.1L213.4,209.1z"/>
<path fill="#FFFFFF" stroke="#000000" stroke-width="0.7087" d="M213.4,209.1H93.3c0,0-0.2,0-0.3,0l-0.1,0l-2.6-0.1
	c-44.4-1.3-79.9-36.8-81-81l-0.1-2.5l0-0.1v-32l0-0.6l0-0.7l0-0.1c0-0.3,0-0.6,0-0.9l0-0.5l0-0.1l0-0.1C9.8,68.7,18.7,48.3,34.4,33
	C50.1,17.7,70.8,9.2,92.7,9.2H213h-0.1l0.3,0l0.1,0l0,0c0.1,0,0.2,0,0.3,0h-0.1l0.2,0l0.1,0.1l2,0.1c21.8,0.6,42.2,9.5,57.4,25.1
	c15.3,15.6,23.7,36.2,23.7,58v33.5c0,21.7-8.4,42.3-23.7,57.9c-15.2,15.6-35.6,24.5-57.4,25.1L213.4,209.1L213.4,209.1z"/>
<path d="M117,102.7v-2h11.1v1.6c-1.1,1.2-2.2,2.7-3.3,4.6c-1.1,1.9-1.9,3.9-2.5,6c-0.4,1.4-0.7,3-0.8,4.7h-2.2c0-1.4,0.3-3,0.8-4.9
	c0.5-1.9,1.2-3.8,2.2-5.5c1-1.8,2-3.3,3-4.5H117z"/>
<path d="M132.4,109.1c0,2.8,0.3,4.7,1,5.6c0.7,0.9,1.5,1.4,2.4,1.4c1,0,1.8-0.5,2.4-1.4c0.7-0.9,1-2.8,1-5.6c0-2.8-0.3-4.7-1-5.6
	c-0.7-0.9-1.5-1.4-2.5-1.4c-1,0-1.7,0.4-2.3,1.2C132.8,104.4,132.4,106.3,132.4,109.1 M130.2,109.1c0-2,0.2-3.7,0.6-4.9
	c0.4-1.2,1-2.2,1.9-2.9c0.8-0.7,1.9-1,3.1-1c0.9,0,1.7,0.2,2.4,0.6c0.7,0.4,1.3,0.9,1.7,1.6c0.5,0.7,0.8,1.6,1.1,2.6
	c0.3,1,0.4,2.4,0.4,4.1c0,2-0.2,3.6-0.6,4.9c-0.4,1.2-1,2.2-1.9,2.9c-0.8,0.7-1.9,1-3.1,1c-1.7,0-3-0.6-3.9-1.8
	C130.8,114.7,130.2,112.4,130.2,109.1z"/>
<path d="M142.8,117.6l4.5-6.5l-4.2-6h2.6l1.9,2.9c0.4,0.6,0.6,1,0.9,1.4c0.3-0.5,0.7-1,1-1.4l2.1-2.9h2.5l-4.3,5.9l4.6,6.6h-2.6
	l-2.6-3.9l-0.7-1l-3.3,4.9H142.8z"/>
<path d="M163.5,117.6h-2.1v-13.4c-0.5,0.5-1.2,1-2,1.5c-0.8,0.5-1.6,0.8-2.2,1.1v-2c1.2-0.6,2.2-1.2,3.1-2c0.9-0.8,1.5-1.6,1.9-2.3
	h1.4V117.6z"/>
<path d="M171.1,109.1c0,2.8,0.3,4.7,1,5.6c0.7,0.9,1.5,1.4,2.4,1.4c1,0,1.8-0.5,2.4-1.4c0.7-0.9,1-2.8,1-5.6c0-2.8-0.3-4.7-1-5.6
	c-0.7-0.9-1.5-1.4-2.5-1.4c-1,0-1.7,0.4-2.3,1.2C171.5,104.4,171.1,106.3,171.1,109.1 M168.9,109.1c0-2,0.2-3.7,0.6-4.9
	c0.4-1.2,1-2.2,1.9-2.9c0.8-0.7,1.9-1,3.1-1c0.9,0,1.7,0.2,2.4,0.6c0.7,0.4,1.3,0.9,1.7,1.6c0.5,0.7,0.8,1.6,1.1,2.6
	c0.3,1,0.4,2.4,0.4,4.1c0,2-0.2,3.6-0.6,4.9c-0.4,1.2-1,2.2-1.9,2.9c-0.8,0.7-1.9,1-3.1,1c-1.7,0-3-0.6-3.9-1.8
	C169.5,114.7,168.9,112.4,168.9,109.1z"/>
<path d="M190.2,117.6h-2.1v-13.4c-0.5,0.5-1.2,1-2,1.5c-0.8,0.5-1.6,0.8-2.2,1.1v-2c1.2-0.6,2.2-1.2,3.1-2c0.9-0.8,1.5-1.6,1.9-2.3
	h1.4V117.6z"/>
</svg>
