<?xml version="1.0" encoding="utf-8"?>
<!-- Generator: Adobe Illustrator 19.2.0, SVG Export Plug-In . SVG Version: 6.00 Build 0)  -->
<svg version="1.1" id="Слой_1" xmlns="http://www.w3.org/2000/svg" xmlns:xlink="http://www.w3.org/1999/xlink" x="0px" y="0px"
	 viewBox="0 0 303.3 206.9" enable-background="new 0 0 303.3 206.9" xml:space="preserve">
<path fill="#E6E0DF" stroke="#000000" stroke-width="0.7087" stroke-miterlimit="22.9256" d="M67.7,18.3C45.6,29.1,33,44,33,59.2
	c0,12.2,12.7,25.2,15.2,27.7c0,0,1.1,1,1.1,1c2.5,2.1,2.8,2.9,2.5,4.1c-0.4,1.7-2.8,3.7-6,5.2C17.2,110,1.4,125.7,1.4,141.5
	c0,17.1,15.6,33.2,44,45.3c28.4,12.1,66.1,18.8,106.2,18.8c40.1,0,77.9-6.7,106.2-18.8c28.4-12.1,44-28.2,44-45.3
	c0-15.8-15.8-31.5-44.5-44.3c-3.2-1.4-5.6-3.4-6-5c-0.3-1.3,0-2,2.5-4.2l1.1-1c1.6-1.5,15.3-15.3,15.3-27.8
	c0-15.2-12.7-30.1-34.8-40.8C213.2,7.4,183.4,1.4,151.7,1.4C120,1.4,90.1,7.4,67.7,18.3z"/>
<path fill="#FFFFFF" stroke="#000000" stroke-width="0.7087" stroke-miterlimit="22.9256" d="M255.1,180.2
	c-27.5,11.7-64.3,18.2-103.5,18.2c-39.2,0-75.9-6.5-103.5-18.2C23,169.5,8.5,155.3,8.5,141.5c0-12.6,14.7-26.3,40.2-37.8
	c1.3-0.6,8.6-3.8,10-10c1.6-6.7-4-10.3-5.6-11.9c-6.1-6-13.1-15.7-13.1-22.7c0-12.4,11.2-24.9,30.8-34.5
	C92.3,14.3,121,8.5,151.7,8.5c30.6,0,59.4,5.8,80.8,16.2c19.6,9.5,30.8,22.1,30.8,34.5c0,7.1-7.5,17.2-13.2,22.7
	c-1.6,1.6-7.2,5.2-5.6,12c1.5,6,8.7,9.2,10,9.8c25.6,11.4,40.3,25.2,40.3,37.8C294.8,155.3,280.3,169.5,255.1,180.2z"/>
<path d="M121.8,111.9h-2.1V98.5c-0.5,0.5-1.2,1-2,1.5c-0.8,0.5-1.6,0.8-2.2,1.1v-2c1.2-0.6,2.2-1.2,3.1-2c0.9-0.8,1.5-1.6,1.9-2.3
	h1.4V111.9z"/>
<path d="M129.3,103.5c0,2.8,0.3,4.7,1,5.6c0.7,0.9,1.5,1.4,2.4,1.4c1,0,1.8-0.5,2.4-1.4c0.7-0.9,1-2.8,1-5.6c0-2.8-0.3-4.7-1-5.6
	c-0.7-0.9-1.5-1.4-2.5-1.4c-1,0-1.7,0.4-2.3,1.2C129.7,98.7,129.3,100.7,129.3,103.5 M127.2,103.5c0-2,0.2-3.7,0.6-4.9
	c0.4-1.2,1-2.2,1.9-2.9c0.8-0.7,1.9-1,3.1-1c0.9,0,1.7,0.2,2.4,0.6c0.7,0.4,1.3,0.9,1.7,1.6c0.5,0.7,0.8,1.6,1.1,2.6
	c0.3,1,0.4,2.4,0.4,4.1c0,2-0.2,3.6-0.6,4.9c-0.4,1.2-1,2.2-1.9,2.9c-0.8,0.7-1.9,1-3.1,1c-1.7,0-3-0.6-3.9-1.8
	C127.7,109,127.2,106.7,127.2,103.5z"/>
<path d="M148.5,111.9h-2.1V98.5c-0.5,0.5-1.2,1-2,1.5c-0.8,0.5-1.6,0.8-2.2,1.1v-2c1.2-0.6,2.2-1.2,3.1-2c0.9-0.8,1.5-1.6,1.9-2.3
	h1.4V111.9z"/>
<path d="M153,111.9l4.5-6.5l-4.2-6h2.6l1.9,2.9c0.4,0.6,0.6,1,0.9,1.4c0.3-0.5,0.7-1,1-1.4l2.1-2.9h2.5l-4.3,5.9l4.6,6.6h-2.6
	l-2.6-3.9l-0.7-1l-3.3,4.9H153z"/>
<path d="M168.2,106.4c0,0.7,0.2,1.4,0.5,2.1c0.3,0.7,0.7,1.2,1.3,1.5c0.6,0.3,1.1,0.5,1.7,0.5c0.9,0,1.7-0.4,2.3-1.1
	c0.6-0.7,1-1.7,1-2.9c0-1.2-0.3-2.1-0.9-2.8c-0.6-0.7-1.4-1-2.4-1c-1,0-1.8,0.3-2.4,1C168.5,104.4,168.2,105.3,168.2,106.4
	 M176.8,99l-2.1,0.2c-0.2-0.8-0.5-1.4-0.8-1.8c-0.6-0.6-1.3-0.9-2.1-0.9c-0.7,0-1.3,0.2-1.8,0.6c-0.7,0.5-1.2,1.2-1.6,2.1
	c-0.4,0.9-0.6,2.3-0.6,4c0.5-0.8,1.1-1.3,1.9-1.7c0.7-0.4,1.5-0.6,2.3-0.6c1.4,0,2.6,0.5,3.6,1.6c1,1,1.5,2.4,1.5,4
	c0,1.1-0.2,2.1-0.7,3c-0.5,0.9-1.1,1.6-1.9,2.1c-0.8,0.5-1.7,0.7-2.8,0.7c-1.8,0-3.2-0.6-4.3-1.9c-1.1-1.3-1.7-3.4-1.7-6.4
	c0-3.3,0.6-5.7,1.8-7.2c1.1-1.3,2.5-2,4.3-2c1.3,0,2.5,0.4,3.3,1.1C176.1,96.6,176.6,97.6,176.8,99z"/>
<path d="M179.4,97v-2h11.1v1.6c-1.1,1.2-2.2,2.7-3.3,4.6c-1.1,1.9-1.9,3.9-2.5,6c-0.4,1.4-0.7,3-0.8,4.7h-2.2c0-1.4,0.3-3,0.8-4.9
	c0.5-1.9,1.2-3.8,2.2-5.5c1-1.8,2-3.3,3-4.5H179.4z"/>
</svg>
