<?xml version="1.0" encoding="utf-8"?>
<!-- Generator: Adobe Illustrator 19.2.0, SVG Export Plug-In . SVG Version: 6.00 Build 0)  -->
<svg version="1.1" id="Слой_1" xmlns="http://www.w3.org/2000/svg" xmlns:xlink="http://www.w3.org/1999/xlink" x="0px" y="0px"
	 viewBox="0 0 331.7 243.8" enable-background="new 0 0 331.7 243.8" xml:space="preserve">
<path fill="#E6E0DF" stroke="#000000" stroke-width="0.7087" stroke-miterlimit="22.9256" d="M230.8,242.4l-2.1,0H106.4h-0.9
	c-0.2,0-0.4,0-0.7,0l-2.1,0l-4.2-0.1l-0.3-0.2c-51.8-3.5-93-44.7-96.5-96.3l-0.4-0.4v-2.3l0-2.2v-34.7l0-0.2v-0.3l0-0.5
	c0-0.6,0-1.2,0.1-1.7l0-0.1l0-0.7l0,0.2C2.2,75.5,13.3,50.1,32.8,31C52,12.2,77.3,1.8,104.2,1.4h122.3l0.1,0l0,0h0.2h0l0.2,0l2.1,0
	l4.3,0.1l0.3,0.2c25.5,1.8,49.2,12.7,67.2,31.1c18.5,18.9,28.9,43.5,29.5,69.8v38.6c-0.6,26.2-11.1,50.8-29.5,69.7
	c-18,18.3-41.6,29.3-67.1,31.1l-0.5,0.4H230.8z"/>
<path fill="none" stroke="#000000" stroke-width="0.7087" stroke-miterlimit="10" d="M230.7,235.3l-1.9,0H106.4h-0.9
	c-0.1,0-0.2,0-0.3,0l-0.1,0H105l-2.1,0l-1.9,0l-0.1-0.1l-2.1-0.1c-48-3.3-86.7-41.9-89.9-89.7l-0.2-2.3l-0.2-0.2l0-1.9v-34.8v-0.5
	l0-0.1l0-0.1v-0.2c0-0.4,0-0.8,0.1-1.2l0-0.2l0-0.1l0-0.1l0-0.6h0c0.6-25.3,10.9-49,29.1-66.8C56,18.3,80,8.5,105.5,8.5h120.3l0.6,0
	v0c0.1,0,0.1,0,0.2,0l0.1,0h0.1l2.1,0l1.9,0l0.1,0.1l2.2,0.1c23.7,1.6,46,11.9,62.7,29c17.8,18.1,27.5,42.1,27.5,67.4v33.5
	c0,25.3-9.8,49.2-27.5,67.3c-16.7,17-38.9,27.3-62.5,29l-2.2,0.2L230.7,235.3z"/>
<path fill="#FFFFFF" stroke="#000000" stroke-width="0.7087" d="M230.7,235.3l-1.9,0H106.4h-0.9c-0.1,0-0.2,0-0.3,0l-0.1,0H105
	l-2.1,0l-1.9,0l-0.1-0.1l-2.1-0.1c-48-3.3-86.7-41.9-89.9-89.7l-0.2-2.3l-0.2-0.2l0-1.9v-34.8v-0.5l0-0.1l0-0.1v-0.2
	c0-0.4,0-0.8,0.1-1.2l0-0.2l0-0.1l0-0.1l0-0.6h0c0.6-25.3,10.9-49,29.1-66.8C56,18.3,80,8.5,105.5,8.5h120.3l0.6,0v0
	c0.1,0,0.1,0,0.2,0l0.1,0h0.1l2.1,0l1.9,0l0.1,0.1l2.2,0.1c23.7,1.6,46,11.9,62.7,29c17.8,18.1,27.5,42.1,27.5,67.4v33.5
	c0,25.3-9.8,49.2-27.5,67.3c-16.7,17-38.9,27.3-62.5,29l-2.2,0.2L230.7,235.3z"/>
<path d="M137.8,130.4h-2.1v-13.4c-0.5,0.5-1.2,1-2,1.5c-0.8,0.5-1.6,0.8-2.2,1.1v-2c1.2-0.6,2.2-1.2,3.1-2c0.9-0.8,1.5-1.6,1.9-2.3
	h1.4V130.4z"/>
<path d="M149.3,130.4h-2.1v-13.4c-0.5,0.5-1.2,1-2,1.5c-0.8,0.5-1.6,0.8-2.2,1.1v-2c1.2-0.6,2.2-1.2,3.1-2c0.9-0.8,1.5-1.6,1.9-2.3
	h1.4V130.4z"/>
<path d="M160.9,130.4h-2.1v-13.4c-0.5,0.5-1.2,1-2,1.5c-0.8,0.5-1.6,0.8-2.2,1.1v-2c1.2-0.6,2.2-1.2,3.1-2c0.9-0.8,1.5-1.6,1.9-2.3
	h1.4V130.4z"/>
<path d="M165.5,130.4l4.5-6.5l-4.2-6h2.6l1.9,2.9c0.4,0.6,0.6,1,0.9,1.4c0.3-0.5,0.7-1,1-1.4l2.1-2.9h2.5l-4.3,5.9l4.6,6.6h-2.6
	l-2.6-3.9l-0.7-1l-3.3,4.9H165.5z"/>
<path d="M180.4,125.4c0,0.6,0.1,1.2,0.4,1.7c0.3,0.6,0.7,1,1.3,1.3c0.6,0.3,1.2,0.5,1.8,0.5c1,0,1.8-0.3,2.5-1c0.7-0.6,1-1.5,1-2.5
	c0-1-0.3-1.9-1-2.5c-0.7-0.7-1.5-1-2.5-1c-1,0-1.8,0.3-2.5,1C180.8,123.6,180.4,124.4,180.4,125.4 M181.1,117.5c0,0.8,0.3,1.5,0.8,2
	c0.5,0.5,1.2,0.8,2,0.8c0.8,0,1.5-0.3,2-0.8c0.5-0.5,0.8-1.1,0.8-1.9c0-0.8-0.3-1.4-0.8-2c-0.5-0.5-1.2-0.8-2-0.8
	c-0.8,0-1.5,0.3-2,0.8C181.4,116.1,181.1,116.8,181.1,117.5z M181.5,121.1c-0.9-0.3-1.5-0.8-1.9-1.4c-0.4-0.6-0.6-1.3-0.6-2.1
	c0-1.3,0.4-2.3,1.3-3.2c0.9-0.9,2.1-1.3,3.6-1.3c1.5,0,2.7,0.4,3.6,1.3c0.9,0.9,1.4,1.9,1.4,3.2c0,0.8-0.2,1.5-0.6,2.1
	c-0.4,0.6-1.1,1-1.9,1.4c1.1,0.3,1.9,0.9,2.4,1.7c0.5,0.8,0.8,1.7,0.8,2.7c0,1.5-0.5,2.7-1.6,3.7c-1,1-2.4,1.5-4.1,1.5
	s-3.1-0.5-4.1-1.5c-1-1-1.6-2.3-1.6-3.8c0-1.1,0.3-2.1,0.9-2.8C179.7,121.8,180.5,121.3,181.5,121.1z"/>
<path d="M193.8,121.9c0,2.8,0.3,4.7,1,5.6c0.7,0.9,1.5,1.4,2.4,1.4c1,0,1.8-0.5,2.4-1.4c0.7-0.9,1-2.8,1-5.6c0-2.8-0.3-4.7-1-5.6
	c-0.7-0.9-1.5-1.4-2.5-1.4c-1,0-1.7,0.4-2.3,1.2C194.2,117.1,193.8,119.1,193.8,121.9 M191.6,121.9c0-2,0.2-3.7,0.6-4.9
	c0.4-1.2,1-2.2,1.9-2.9c0.8-0.7,1.9-1,3.1-1c0.9,0,1.7,0.2,2.4,0.6c0.7,0.4,1.3,0.9,1.7,1.6c0.5,0.7,0.8,1.6,1.1,2.6
	c0.3,1,0.4,2.4,0.4,4.1c0,2-0.2,3.6-0.6,4.9c-0.4,1.2-1,2.2-1.9,2.9c-0.8,0.7-1.9,1-3.1,1c-1.7,0-3-0.6-3.9-1.8
	C192.2,127.5,191.6,125.1,191.6,121.9z"/>
</svg>
