<?xml version="1.0" encoding="utf-8"?>
<!-- Generator: Adobe Illustrator 19.2.0, SVG Export Plug-In . SVG Version: 6.00 Build 0)  -->
<svg version="1.1" id="Слой_1" xmlns="http://www.w3.org/2000/svg" xmlns:xlink="http://www.w3.org/1999/xlink" x="0px" y="0px"
	 viewBox="0 0 462 306.1" enable-background="new 0 0 462 306.1" xml:space="preserve">
<path fill="#E6E0DF" stroke="#000000" stroke-width="0.7087" stroke-miterlimit="22.9256" d="M231,1.4
	c126.8,0,229.6,67.9,229.6,151.7c0,83.7-102.8,151.7-229.6,151.7c-126.8,0-229.6-67.9-229.6-151.7C1.4,69.3,104.2,1.4,231,1.4z"/>
<path fill="#FFFFFF" stroke="#000000" stroke-width="0.7087" stroke-miterlimit="22.9256" d="M231,8.5
	c122.9,0,222.5,64.7,222.5,144.6c0,79.8-99.6,144.6-222.5,144.6c-122.9,0-222.5-64.7-222.5-144.6C8.5,73.2,108.2,8.5,231,8.5z"/>
<path d="M194.6,161.6h-2.1v-13.4c-0.5,0.5-1.2,1-2,1.5c-0.8,0.5-1.6,0.8-2.2,1.1v-2c1.2-0.6,2.2-1.2,3.1-2c0.9-0.8,1.5-1.6,1.9-2.3
	h1.4V161.6z"/>
<path d="M200,157.1l2.2-0.2c0.2,1.1,0.5,1.9,1.1,2.4c0.6,0.5,1.3,0.8,2.2,0.8c1,0,1.9-0.4,2.6-1.1c0.7-0.8,1.1-1.8,1.1-3
	c0-1.2-0.3-2.2-1-2.8c-0.7-0.7-1.6-1-2.7-1c-0.7,0-1.3,0.2-1.8,0.5c-0.5,0.3-1,0.7-1.3,1.2l-2-0.3l1.7-8.8h8.5v2h-6.9l-0.9,4.6
	c1-0.7,2.1-1.1,3.2-1.1c1.5,0,2.8,0.5,3.8,1.6c1,1,1.5,2.4,1.5,4c0,1.6-0.5,2.9-1.4,4c-1.1,1.4-2.6,2.1-4.5,2.1
	c-1.6,0-2.8-0.4-3.8-1.3C200.7,159.7,200.1,158.5,200,157.1"/>
<path d="M213.4,146.6v-2h11.1v1.6c-1.1,1.2-2.2,2.7-3.3,4.6c-1.1,1.9-1.9,3.9-2.5,6c-0.4,1.4-0.7,3-0.8,4.7h-2.2
	c0-1.4,0.3-3,0.8-4.9c0.5-1.9,1.2-3.8,2.2-5.5c1-1.8,2-3.3,3-4.5H213.4z"/>
<path d="M225.8,161.6l4.5-6.5l-4.2-6h2.6l1.9,2.9c0.4,0.6,0.6,1,0.9,1.4c0.3-0.5,0.7-1,1-1.4l2.1-2.9h2.5l-4.3,5.9l4.6,6.6h-2.6
	l-2.6-3.9l-0.7-1l-3.3,4.9H225.8z"/>
<path d="M246.6,161.6h-2.1v-13.4c-0.5,0.5-1.2,1-2,1.5c-0.8,0.5-1.6,0.8-2.2,1.1v-2c1.2-0.6,2.2-1.2,3.1-2c0.9-0.8,1.5-1.6,1.9-2.3
	h1.4V161.6z"/>
<path d="M254.2,153.1c0,2.8,0.3,4.7,1,5.6c0.7,0.9,1.5,1.4,2.4,1.4c1,0,1.8-0.5,2.4-1.4c0.7-0.9,1-2.8,1-5.6c0-2.8-0.3-4.7-1-5.6
	c-0.7-0.9-1.5-1.4-2.5-1.4c-1,0-1.7,0.4-2.3,1.2C254.5,148.3,254.2,150.3,254.2,153.1 M252,153.1c0-2,0.2-3.7,0.6-4.9
	c0.4-1.2,1-2.2,1.9-2.9c0.8-0.7,1.9-1,3.1-1c0.9,0,1.7,0.2,2.4,0.6c0.7,0.4,1.3,0.9,1.7,1.6c0.5,0.7,0.8,1.6,1.1,2.6
	c0.3,1,0.4,2.4,0.4,4.1c0,2-0.2,3.6-0.6,4.9c-0.4,1.2-1,2.2-1.9,2.9c-0.8,0.7-1.9,1-3.1,1c-1.7,0-3-0.6-3.9-1.8
	C252.6,158.6,252,156.3,252,153.1z"/>
<path d="M276.4,159.5v2h-11.4c0-0.5,0.1-1,0.2-1.5c0.3-0.8,0.8-1.5,1.4-2.3c0.6-0.7,1.6-1.6,2.8-2.6c1.9-1.5,3.1-2.7,3.8-3.6
	c0.7-0.9,1-1.7,1-2.5c0-0.8-0.3-1.5-0.9-2.1c-0.6-0.6-1.4-0.9-2.3-0.9c-1,0-1.8,0.3-2.4,0.9c-0.6,0.6-0.9,1.5-0.9,2.5l-2.2-0.2
	c0.1-1.6,0.7-2.9,1.7-3.7c1-0.8,2.3-1.3,3.9-1.3c1.6,0,3,0.5,3.9,1.4c1,0.9,1.4,2,1.4,3.4c0,0.7-0.1,1.4-0.4,2
	c-0.3,0.7-0.7,1.4-1.4,2.1c-0.7,0.7-1.7,1.7-3.3,3c-1.3,1.1-2.1,1.8-2.4,2.2c-0.4,0.4-0.7,0.8-0.9,1.1H276.4z"/>
</svg>
