<?xml version="1.0" encoding="utf-8"?>
<!-- Generator: Adobe Illustrator 19.2.0, SVG Export Plug-In . SVG Version: 6.00 Build 0)  -->
<svg version="1.1" id="Слой_1" xmlns="http://www.w3.org/2000/svg" xmlns:xlink="http://www.w3.org/1999/xlink" x="0px" y="0px"
	 viewBox="0 0 215.4 300.5" enable-background="new 0 0 215.4 300.5" xml:space="preserve">
<path fill="#E6E0DF" d="M1.4,280.6V19.8c0-5.1,2.1-9.7,5.4-13c3.3-3.3,7.9-5.4,13-5.4h175.7c5.1,0,9.7,2.1,13,5.4
	c3.3,3.3,5.4,7.9,5.4,13h0v260.8c0,5.1-2.1,9.7-5.4,13c-3.3,3.3-7.9,5.4-13,5.4H19.8v0c-5.1,0-9.7-2.1-13-5.4
	C3.5,290.3,1.4,285.7,1.4,280.6z"/>
<path fill="#E6E0DF" stroke="#000000" stroke-width="0.7087" stroke-miterlimit="22.9256" d="M1.4,280.6V19.8c0-5.1,2.1-9.7,5.4-13
	c3.3-3.3,7.9-5.4,13-5.4h175.7c5.1,0,9.7,2.1,13,5.4c3.3,3.3,5.4,7.9,5.4,13h0v260.8c0,5.1-2.1,9.7-5.4,13c-3.3,3.3-7.9,5.4-13,5.4
	H19.8v0c-5.1,0-9.7-2.1-13-5.4C3.5,290.3,1.4,285.7,1.4,280.6z"/>
<path fill="#FFFFFF" stroke="#000000" stroke-width="0.7087" stroke-miterlimit="22.9256" d="M8.5,280.6V19.8
	c0-6.3,5.1-11.3,11.3-11.3h175.7c6.3,0,11.3,5.1,11.3,11.3v260.8c0,6.3-5.1,11.3-11.3,11.3H19.8C13.6,292,8.5,286.9,8.5,280.6z"/>
<path d="M77.9,158.7h-2.1v-13.4c-0.5,0.5-1.2,1-2,1.5c-0.8,0.5-1.6,0.8-2.2,1.1v-2c1.2-0.6,2.2-1.2,3.1-2c0.9-0.8,1.5-1.6,1.9-2.3
	h1.4V158.7z"/>
<path d="M85.4,150.2c0,2.8,0.3,4.7,1,5.6c0.7,0.9,1.5,1.4,2.4,1.4c1,0,1.8-0.5,2.4-1.4c0.7-0.9,1-2.8,1-5.6c0-2.8-0.3-4.7-1-5.6
	c-0.7-0.9-1.5-1.4-2.5-1.4c-1,0-1.7,0.4-2.3,1.2C85.8,145.5,85.4,147.4,85.4,150.2 M83.3,150.2c0-2,0.2-3.7,0.6-4.9
	c0.4-1.2,1-2.2,1.9-2.9c0.8-0.7,1.9-1,3.1-1c0.9,0,1.7,0.2,2.4,0.6c0.7,0.4,1.3,0.9,1.7,1.6c0.5,0.7,0.8,1.6,1.1,2.6
	c0.3,1,0.4,2.4,0.4,4.1c0,2-0.2,3.6-0.6,4.9c-0.4,1.2-1,2.2-1.9,2.9c-0.8,0.7-1.9,1-3.1,1c-1.7,0-3-0.6-3.9-1.8
	C83.8,155.8,83.3,153.5,83.3,150.2z"/>
<path d="M98.8,150.2c0,2.8,0.3,4.7,1,5.6c0.7,0.9,1.5,1.4,2.4,1.4c1,0,1.8-0.5,2.4-1.4c0.7-0.9,1-2.8,1-5.6c0-2.8-0.3-4.7-1-5.6
	c-0.7-0.9-1.5-1.4-2.5-1.4c-1,0-1.7,0.4-2.3,1.2C99.1,145.5,98.8,147.4,98.8,150.2 M96.6,150.2c0-2,0.2-3.7,0.6-4.9
	c0.4-1.2,1-2.2,1.9-2.9c0.8-0.7,1.9-1,3.1-1c0.9,0,1.7,0.2,2.4,0.6c0.7,0.4,1.3,0.9,1.7,1.6c0.5,0.7,0.8,1.6,1.1,2.6
	c0.3,1,0.4,2.4,0.4,4.1c0,2-0.2,3.6-0.6,4.9c-0.4,1.2-1,2.2-1.9,2.9c-0.8,0.7-1.9,1-3.1,1c-1.7,0-3-0.6-3.9-1.8
	C97.2,155.8,96.6,153.5,96.6,150.2z"/>
<path d="M122.1,143.8v-2h11.1v1.6c-1.1,1.2-2.2,2.7-3.3,4.6c-1.1,1.9-1.9,3.9-2.5,6c-0.4,1.4-0.7,3-0.8,4.7h-2.2
	c0-1.4,0.3-3,0.8-4.9c0.5-1.9,1.2-3.8,2.2-5.5c1-1.8,2-3.3,3-4.5H122.1z"/>
<path d="M137.5,150.2c0,2.8,0.3,4.7,1,5.6c0.7,0.9,1.5,1.4,2.4,1.4c1,0,1.8-0.5,2.4-1.4c0.7-0.9,1-2.8,1-5.6c0-2.8-0.3-4.7-1-5.6
	c-0.7-0.9-1.5-1.4-2.5-1.4c-1,0-1.7,0.4-2.3,1.2C137.8,145.5,137.5,147.4,137.5,150.2 M135.3,150.2c0-2,0.2-3.7,0.6-4.9
	c0.4-1.2,1-2.2,1.9-2.9c0.8-0.7,1.9-1,3.1-1c0.9,0,1.7,0.2,2.4,0.6c0.7,0.4,1.3,0.9,1.7,1.6c0.5,0.7,0.8,1.6,1.1,2.6
	c0.3,1,0.4,2.4,0.4,4.1c0,2-0.2,3.6-0.6,4.9c-0.4,1.2-1,2.2-1.9,2.9c-0.8,0.7-1.9,1-3.1,1c-1.7,0-3-0.6-3.9-1.8
	C135.9,155.8,135.3,153.5,135.3,150.2z"/>
<path d="M109.1,158.7l4.5-6.5l-4.2-6h2.6l1.9,2.9c0.4,0.6,0.6,1,0.9,1.4c0.3-0.5,0.7-1,1-1.4l2.1-2.9h2.5l-4.3,5.9l4.6,6.6h-2.6
	l-2.6-3.9l-0.7-1l-3.3,4.9H109.1z"/>
<g>
	<path d="M103.7,211.9h-0.9l-0.2-2h-5.9l-0.2,2h-0.9v-3.1h0.9c0.1-0.1,0.2-0.3,0.3-0.6c0.1-0.3,0.3-0.7,0.4-1.3s0.2-1.2,0.3-2
		s0.2-1.8,0.2-2.9h4.8v6.8h1.2V211.9z M101.3,208.8v-5.7h-2.4c0,0.4-0.1,0.9-0.1,1.4c-0.1,0.5-0.1,1-0.2,1.6c-0.1,0.5-0.2,1-0.3,1.5
		c-0.1,0.5-0.3,0.9-0.5,1.2H101.3z"/>
	<path d="M110,203.1h-2.3c0,0.4-0.1,0.9-0.1,1.4c0,0.5-0.1,1-0.1,1.5c-0.1,0.5-0.1,1-0.3,1.5c-0.1,0.5-0.2,0.9-0.4,1.2
		c-0.2,0.4-0.4,0.6-0.6,0.9s-0.5,0.3-0.8,0.3c-0.2,0-0.4,0-0.5,0c-0.1,0-0.3-0.1-0.4-0.1l0.2-1.1c0.1,0,0.3,0.1,0.4,0.1
		c0.2,0,0.4-0.1,0.6-0.3c0.2-0.2,0.3-0.5,0.4-1s0.2-1.2,0.3-2.1s0.1-2,0.2-3.5h4.7v7.9H110V203.1z"/>
	<path d="M117.6,206.6l-1.2,0.2l-2.1,3.1h-1.5l1.9-2.7l0.6-0.6c-0.5-0.1-1-0.3-1.4-0.7s-0.6-0.8-0.6-1.5c0-0.5,0.1-0.9,0.2-1.2
		c0.2-0.3,0.4-0.6,0.7-0.8c0.3-0.2,0.7-0.4,1.1-0.5c0.4-0.1,0.9-0.2,1.4-0.2c0.4,0,0.8,0,1.1,0.1c0.3,0.1,0.7,0.1,1,0.2v7.8h-1.3
		V206.6z M117.6,203.1c-0.1-0.1-0.3-0.1-0.5-0.1c-0.2,0-0.3,0-0.4,0c-0.7,0-1.2,0.1-1.5,0.4c-0.4,0.2-0.5,0.6-0.5,1.2
		c0,0.5,0.2,0.8,0.6,1.1c0.4,0.3,0.9,0.4,1.5,0.4c0,0,0,0,0,0s0.1,0,0.1,0c0.1,0,0.2,0,0.3,0c0.1,0,0.3,0,0.5,0V203.1z"/>
	<path d="M62.3,225.3h-0.7v3.6h-1.3V221h1.3v3.6l0.7-0.2l2.5-3.4h1.4l-2.5,3.2l-0.7,0.5l0.8,0.6l2.6,3.6h-1.6L62.3,225.3z"/>
	<path d="M67.7,221.6c0.4-0.2,0.9-0.4,1.4-0.5c0.5-0.1,1.1-0.2,1.7-0.2c0.5,0,1,0.1,1.3,0.2s0.6,0.3,0.8,0.6s0.3,0.5,0.3,0.8
		c0.1,0.3,0.1,0.6,0.1,0.9c0,0.6,0,1.3,0,1.9c0,0.6,0,1.2,0,1.7c0,0.4,0,0.8,0,1.1c0,0.3,0.1,0.7,0.2,1h-0.9l-0.3-1.1h-0.1
		c-0.1,0.1-0.2,0.3-0.4,0.4c-0.1,0.1-0.3,0.3-0.5,0.4c-0.2,0.1-0.4,0.2-0.7,0.3c-0.3,0.1-0.6,0.1-0.9,0.1s-0.7-0.1-0.9-0.2
		c-0.3-0.1-0.5-0.3-0.8-0.5s-0.4-0.4-0.5-0.7c-0.1-0.3-0.2-0.6-0.2-0.9c0-0.5,0.1-0.9,0.3-1.2c0.2-0.3,0.5-0.6,0.8-0.7
		s0.8-0.3,1.2-0.4c0.5-0.1,1-0.1,1.6-0.1c0.1,0,0.3,0,0.4,0c0.1,0,0.3,0,0.4,0c0-0.3,0-0.6,0-0.9c0-0.6-0.1-1-0.3-1.2
		c-0.2-0.2-0.7-0.3-1.3-0.3c-0.2,0-0.4,0-0.6,0s-0.4,0.1-0.6,0.1c-0.2,0-0.4,0.1-0.6,0.2c-0.2,0.1-0.4,0.1-0.5,0.2L67.7,221.6z
		 M70,227.9c0.3,0,0.6,0,0.8-0.1c0.2-0.1,0.4-0.2,0.6-0.3c0.2-0.1,0.3-0.3,0.4-0.4s0.2-0.3,0.2-0.4v-1.3c-0.1,0-0.3,0-0.5,0
		c-0.2,0-0.3,0-0.5,0c-0.3,0-0.6,0-1,0.1c-0.3,0-0.6,0.1-0.8,0.2c-0.2,0.1-0.4,0.2-0.6,0.4c-0.1,0.2-0.2,0.4-0.2,0.7
		c0,0.4,0.1,0.7,0.4,0.9C69.2,227.8,69.6,227.9,70,227.9z"/>
	<path d="M79.9,222.1h-2.3c0,0.4-0.1,0.9-0.1,1.4c0,0.5-0.1,1-0.1,1.5c-0.1,0.5-0.1,1-0.3,1.5c-0.1,0.5-0.2,0.9-0.4,1.2
		c-0.2,0.4-0.4,0.6-0.6,0.9s-0.5,0.3-0.8,0.3c-0.2,0-0.4,0-0.5,0c-0.1,0-0.3-0.1-0.4-0.1l0.2-1.1c0.1,0,0.3,0.1,0.4,0.1
		c0.2,0,0.4-0.1,0.6-0.3c0.2-0.2,0.3-0.5,0.4-1s0.2-1.2,0.3-2.1s0.1-2,0.2-3.5h4.7v7.9h-1.3V222.1z"/>
	<path d="M89.4,228.3c-0.3,0.3-0.7,0.5-1.2,0.6c-0.5,0.1-1,0.2-1.5,0.2c-0.6,0-1.1-0.1-1.6-0.3c-0.4-0.2-0.8-0.5-1.1-0.8
		c-0.3-0.4-0.5-0.8-0.6-1.3s-0.2-1.1-0.2-1.7c0-1.3,0.3-2.4,0.9-3.1c0.6-0.7,1.5-1.1,2.6-1.1c0.4,0,0.7,0,1.1,0.1s0.7,0.2,1,0.5
		c0.3,0.2,0.5,0.5,0.7,0.9c0.2,0.4,0.3,0.9,0.3,1.6c0,0.3,0,0.7-0.1,1.2h-5.1c0,0.5,0,0.9,0.1,1.2c0.1,0.4,0.2,0.7,0.4,0.9
		s0.5,0.4,0.8,0.6c0.3,0.1,0.7,0.2,1.2,0.2c0.4,0,0.7-0.1,1.1-0.2c0.4-0.1,0.6-0.3,0.8-0.4L89.4,228.3z M86.7,221.9
		c-0.6,0-1.1,0.2-1.5,0.5c-0.4,0.3-0.6,0.9-0.7,1.7h3.9c0-0.8-0.2-1.4-0.5-1.7C87.7,222.1,87.3,221.9,86.7,221.9z"/>
	<path d="M96.5,225.4H93v3.5h-1.3V221H93v3.3h3.6V221h1.3v7.9h-1.3V225.4z"/>
	<path d="M107.2,230.9h-0.9l-0.2-2h-5.9l-0.2,2h-0.9v-3.1h0.9c0.1-0.1,0.2-0.3,0.3-0.6c0.1-0.3,0.3-0.7,0.4-1.3s0.2-1.2,0.3-2
		s0.2-1.8,0.2-2.9h4.8v6.8h1.2V230.9z M104.8,227.8v-5.7h-2.4c0,0.4-0.1,0.9-0.1,1.4c-0.1,0.5-0.1,1-0.2,1.6c-0.1,0.5-0.2,1-0.3,1.5
		c-0.1,0.5-0.3,0.9-0.5,1.2H104.8z"/>
	<path d="M108.7,221.6c0.4-0.2,0.9-0.4,1.4-0.5c0.5-0.1,1.1-0.2,1.7-0.2c0.5,0,1,0.1,1.3,0.2s0.6,0.3,0.8,0.6
		c0.2,0.2,0.3,0.5,0.3,0.8c0.1,0.3,0.1,0.6,0.1,0.9c0,0.6,0,1.3,0,1.9c0,0.6,0,1.2,0,1.7c0,0.4,0,0.8,0,1.1c0,0.3,0.1,0.7,0.2,1
		h-0.9l-0.3-1.1H113c-0.1,0.1-0.2,0.3-0.4,0.4c-0.1,0.1-0.3,0.3-0.5,0.4c-0.2,0.1-0.4,0.2-0.7,0.3c-0.3,0.1-0.6,0.1-0.9,0.1
		s-0.7-0.1-0.9-0.2c-0.3-0.1-0.5-0.3-0.8-0.5s-0.4-0.4-0.5-0.7c-0.1-0.3-0.2-0.6-0.2-0.9c0-0.5,0.1-0.9,0.3-1.2
		c0.2-0.3,0.5-0.6,0.8-0.7s0.8-0.3,1.2-0.4c0.5-0.1,1-0.1,1.6-0.1c0.1,0,0.3,0,0.4,0c0.1,0,0.3,0,0.4,0c0-0.3,0-0.6,0-0.9
		c0-0.6-0.1-1-0.3-1.2c-0.2-0.2-0.7-0.3-1.3-0.3c-0.2,0-0.4,0-0.6,0c-0.2,0-0.4,0.1-0.6,0.1c-0.2,0-0.4,0.1-0.6,0.2
		c-0.2,0.1-0.4,0.1-0.5,0.2L108.7,221.6z M110.9,227.9c0.3,0,0.6,0,0.8-0.1c0.2-0.1,0.4-0.2,0.6-0.3c0.2-0.1,0.3-0.3,0.4-0.4
		s0.2-0.3,0.2-0.4v-1.3c-0.1,0-0.3,0-0.5,0c-0.2,0-0.3,0-0.5,0c-0.3,0-0.6,0-1,0.1c-0.3,0-0.6,0.1-0.8,0.2s-0.4,0.2-0.6,0.4
		c-0.1,0.2-0.2,0.4-0.2,0.7c0,0.4,0.1,0.7,0.4,0.9S110.5,227.9,110.9,227.9z"/>
	<path d="M116.6,221h0.9l0.2,0.9h0.1c0.2-0.4,0.6-0.7,0.9-0.8s0.8-0.3,1.3-0.3c1.1,0,1.8,0.3,2.4,0.9s0.8,1.6,0.8,3.1
		c0,0.7-0.1,1.3-0.3,1.8c-0.2,0.5-0.4,1-0.7,1.4s-0.7,0.7-1.1,0.9s-0.9,0.3-1.5,0.3c-0.4,0-0.7,0-0.9-0.1c-0.2,0-0.5-0.1-0.7-0.2
		v3.3h-1.3V221z M119.8,221.9c-0.5,0-1,0.1-1.3,0.4c-0.3,0.3-0.5,0.7-0.7,1.3v3.9c0.2,0.1,0.4,0.3,0.6,0.3c0.2,0.1,0.6,0.1,1,0.1
		c0.7,0,1.3-0.3,1.7-0.8c0.4-0.5,0.6-1.3,0.6-2.4c0-0.4,0-0.8-0.1-1.2c-0.1-0.4-0.2-0.7-0.4-0.9c-0.2-0.2-0.4-0.4-0.6-0.6
		C120.5,222,120.2,221.9,119.8,221.9z"/>
	<path d="M130.1,224.2l0-1h0l-0.6,1l-3.6,4.7h-0.7V221h1.3v4.8l0,0.9h0.1l0.6-1l3.6-4.8h0.7v7.9h-1.3V224.2z"/>
	<path d="M135.8,225.3h-0.7v3.6h-1.3V221h1.3v3.6l0.7-0.2l2.5-3.4h1.4l-2.5,3.2l-0.7,0.5l0.8,0.6l2.6,3.6h-1.6L135.8,225.3z"/>
	<path d="M140.8,224.9c0-1.3,0.3-2.4,0.9-3.1c0.6-0.7,1.5-1.1,2.6-1.1c0.6,0,1.1,0.1,1.5,0.3s0.8,0.5,1.1,0.8
		c0.3,0.4,0.5,0.8,0.6,1.3s0.2,1.1,0.2,1.7c0,1.3-0.3,2.4-0.9,3.1c-0.6,0.7-1.5,1.1-2.6,1.1c-0.6,0-1.1-0.1-1.5-0.3
		c-0.4-0.2-0.8-0.5-1.1-0.8c-0.3-0.4-0.5-0.8-0.6-1.3S140.8,225.6,140.8,224.9z M142.1,224.9c0,0.4,0,0.8,0.1,1.2s0.2,0.7,0.4,1
		c0.2,0.3,0.4,0.5,0.7,0.7c0.3,0.2,0.6,0.3,1,0.3c1.4,0,2.2-1,2.2-3c0-0.4,0-0.8-0.1-1.2s-0.2-0.7-0.4-1c-0.2-0.3-0.4-0.5-0.7-0.7
		c-0.3-0.2-0.6-0.2-1-0.2C142.8,221.9,142.1,222.9,142.1,224.9z"/>
	<path d="M149.7,221c0.4,0,0.8,0,1.2-0.1c0.4,0,0.9,0,1.5,0c1,0,1.8,0.2,2.2,0.5c0.5,0.3,0.7,0.8,0.7,1.5c0,0.4-0.1,0.7-0.3,1.1
		c-0.2,0.4-0.6,0.6-1.1,0.8v0.1c0.6,0.1,1.1,0.3,1.3,0.6c0.3,0.3,0.4,0.7,0.4,1.3c0,0.8-0.3,1.4-0.9,1.8c-0.6,0.4-1.5,0.6-2.7,0.6
		c-0.4,0-0.9,0-1.2,0s-0.8-0.1-1.1-0.1V221z M152.5,224.3c0.2,0,0.4,0,0.6-0.1c0.2-0.1,0.3-0.2,0.5-0.3c0.1-0.1,0.3-0.2,0.3-0.4
		s0.1-0.3,0.1-0.5c0-0.4-0.1-0.7-0.4-0.9c-0.3-0.2-0.7-0.2-1.3-0.2c-0.3,0-0.6,0-0.8,0c-0.2,0-0.4,0-0.6,0v2.3H152.5z M151,227.8
		c0.2,0,0.4,0,0.6,0c0.2,0,0.4,0,0.7,0c0.7,0,1.2-0.1,1.6-0.3s0.5-0.5,0.5-1c0-0.4-0.1-0.7-0.4-0.9s-0.8-0.4-1.5-0.4H151V227.8z"/>
</g>
</svg>
