<?xml version="1.0" encoding="utf-8"?>
<!-- Generator: Adobe Illustrator 19.2.0, SVG Export Plug-In . SVG Version: 6.00 Build 0)  -->
<svg version="1.1" id="Слой_1" xmlns="http://www.w3.org/2000/svg" xmlns:xlink="http://www.w3.org/1999/xlink" x="0px" y="0px"
	 viewBox="0 0 272.1 181.4" enable-background="new 0 0 272.1 181.4" xml:space="preserve">
<path fill="#E6E0DF" stroke="#000000" stroke-width="0.7087" stroke-miterlimit="4" d="M256.5,179.9c7.8,0,14.2-6.4,14.2-14.2V37.9
	c0-7.8-6.4-14.2-14.2-14.2c0,0-14.9,0-17.2,0C203.9,8.9,168.8,1.5,134.2,1.5c-34.6,0-68.7,7.4-102,22.2c-2.4,0-16.6,0-16.6,0
	c-7.8,0-14.2,6.4-14.2,14.2v127.9c0,7.8,6.4,14.2,14.2,14.2H256.5z"/>
<path fill="#FFFFFF" stroke="#000000" stroke-width="0.7087" stroke-miterlimit="4" d="M35,30.2c32.3-14.3,65.6-21.6,99.2-21.6
	c0,0,0,0,0,0c33.6,0,68,7.3,102.4,21.7l1.3,0.5h1.4c2.3,0,17.2,0,17.2,0c3.9,0,7.1,3.2,7.1,7.1v127.9c0,3.9-3.2,7.1-7.1,7.1h-241
	c-3.9,0-7.1-3.2-7.1-7.1V37.9c0-3.9,3.2-7.1,7.1-7.1l16.6,0L35,30.2z"/>
<path d="M113.8,87.6c0-1.2-0.3-2.2-1-2.9c-0.6-0.7-1.4-1.1-2.3-1.1c-0.9,0-1.8,0.4-2.4,1.1c-0.7,0.8-1,1.8-1,3c0,1.1,0.3,2,1,2.7
	c0.7,0.7,1.5,1,2.4,1c1,0,1.8-0.3,2.4-1C113.5,89.8,113.8,88.8,113.8,87.6 M105.2,95.2l2-0.2c0.2,1,0.5,1.6,1,2.1
	c0.5,0.4,1.1,0.6,1.9,0.6c0.6,0,1.2-0.1,1.7-0.4c0.5-0.3,0.9-0.7,1.2-1.2c0.3-0.5,0.6-1.2,0.8-2c0.2-0.8,0.3-1.7,0.3-2.6
	c0-0.1,0-0.2,0-0.4c-0.4,0.7-1,1.2-1.7,1.6c-0.7,0.4-1.5,0.6-2.4,0.6c-1.4,0-2.6-0.5-3.6-1.5c-1-1-1.5-2.4-1.5-4.1
	c0-1.7,0.5-3.1,1.5-4.2c1-1.1,2.3-1.6,3.9-1.6c1.1,0,2.1,0.3,3.1,0.9c0.9,0.6,1.6,1.5,2.1,2.6c0.5,1.1,0.7,2.7,0.7,4.8
	c0,2.2-0.2,3.9-0.7,5.2c-0.5,1.3-1.2,2.3-2.1,3c-0.9,0.7-2,1-3.3,1c-1.3,0-2.4-0.4-3.3-1.1C105.9,97.6,105.4,96.6,105.2,95.2z"/>
<path d="M120.4,90.7c0,2.8,0.3,4.7,1,5.6c0.7,0.9,1.5,1.4,2.4,1.4c1,0,1.8-0.5,2.4-1.4c0.7-0.9,1-2.8,1-5.6c0-2.8-0.3-4.7-1-5.6
	c-0.7-0.9-1.5-1.4-2.5-1.4c-1,0-1.7,0.4-2.3,1.2C120.8,86,120.4,87.9,120.4,90.7 M118.2,90.7c0-2,0.2-3.7,0.6-4.9
	c0.4-1.2,1-2.2,1.9-2.9c0.8-0.7,1.9-1,3.1-1c0.9,0,1.7,0.2,2.4,0.6c0.7,0.4,1.3,0.9,1.7,1.6c0.5,0.7,0.8,1.6,1.1,2.6
	c0.3,1,0.4,2.4,0.4,4.1c0,2-0.2,3.6-0.6,4.9c-0.4,1.2-1,2.2-1.9,2.9s-1.9,1-3.1,1c-1.7,0-3-0.6-3.9-1.8
	C118.8,96.3,118.2,93.9,118.2,90.7z"/>
<path d="M130.8,99.2l4.5-6.5l-4.2-6h2.6l1.9,2.9c0.4,0.6,0.6,1,0.9,1.4c0.3-0.5,0.7-1,1-1.4l2.1-2.9h2.5l-4.3,5.9l4.6,6.6h-2.6
	l-2.6-3.9l-0.7-1l-3.3,4.9H130.8z"/>
<path d="M143.6,94.7l2.2-0.2c0.2,1.1,0.5,1.9,1.1,2.4c0.6,0.5,1.3,0.8,2.2,0.8c1,0,1.9-0.4,2.6-1.1c0.7-0.8,1.1-1.8,1.1-3
	c0-1.2-0.3-2.2-1-2.8c-0.7-0.7-1.6-1-2.7-1c-0.7,0-1.3,0.2-1.8,0.5c-0.5,0.3-1,0.7-1.3,1.2l-2-0.3l1.7-8.8h8.5v2h-6.9l-0.9,4.6
	c1-0.7,2.1-1.1,3.2-1.1c1.5,0,2.8,0.5,3.8,1.6c1,1,1.5,2.4,1.5,4c0,1.6-0.5,2.9-1.4,4c-1.1,1.4-2.6,2.1-4.5,2.1
	c-1.6,0-2.8-0.4-3.8-1.3C144.3,97.3,143.7,96.1,143.6,94.7"/>
<path d="M159.1,94.2c0,0.6,0.1,1.2,0.4,1.7c0.3,0.6,0.7,1,1.3,1.3c0.6,0.3,1.2,0.5,1.8,0.5c1,0,1.8-0.3,2.5-1c0.7-0.6,1-1.5,1-2.5
	c0-1-0.3-1.9-1-2.5c-0.7-0.7-1.5-1-2.5-1c-1,0-1.8,0.3-2.5,1C159.4,92.4,159.1,93.2,159.1,94.2 M159.8,86.3c0,0.8,0.3,1.5,0.8,2
	c0.5,0.5,1.2,0.8,2,0.8c0.8,0,1.5-0.3,2-0.8c0.5-0.5,0.8-1.1,0.8-1.9c0-0.8-0.3-1.4-0.8-2c-0.5-0.5-1.2-0.8-2-0.8
	c-0.8,0-1.5,0.3-2,0.8C160,85,159.8,85.6,159.8,86.3z M160.2,89.9c-0.9-0.3-1.5-0.8-1.9-1.4c-0.4-0.6-0.6-1.3-0.6-2.1
	c0-1.3,0.4-2.3,1.3-3.2c0.9-0.9,2.1-1.3,3.6-1.3c1.5,0,2.7,0.4,3.6,1.3c0.9,0.9,1.4,1.9,1.4,3.2c0,0.8-0.2,1.5-0.6,2.1
	c-0.4,0.6-1.1,1-1.9,1.4c1.1,0.3,1.9,0.9,2.4,1.7c0.5,0.8,0.8,1.7,0.8,2.7c0,1.5-0.5,2.7-1.6,3.7c-1,1-2.4,1.5-4.1,1.5
	c-1.7,0-3.1-0.5-4.1-1.5c-1-1-1.6-2.3-1.6-3.8c0-1.1,0.3-2.1,0.9-2.8C158.3,90.7,159.1,90.1,160.2,89.9z"/>
</svg>
