<?xml version="1.0" encoding="utf-8"?>
<!-- Generator: Adobe Illustrator 19.2.0, SVG Export Plug-In . SVG Version: 6.00 Build 0)  -->
<svg version="1.1" id="Слой_1" xmlns="http://www.w3.org/2000/svg" xmlns:xlink="http://www.w3.org/1999/xlink" x="0px" y="0px"
	 viewBox="0 0 272.1 164.4" enable-background="new 0 0 272.1 164.4" xml:space="preserve">
<path fill="#E4E0DF" stroke="#000000" stroke-width="0.7087" stroke-miterlimit="22.9256" d="M136.1,1.4
	c74.4,0,134.6,36.2,134.6,80.8S210.4,163,136.1,163C61.7,163,1.4,126.8,1.4,82.2S61.7,1.4,136.1,1.4z"/>
<path fill="#FFFFFF" stroke="#000000" stroke-width="0.7087" stroke-miterlimit="22.9256" d="M136.1,8.5c70.4,0,127.6,33,127.6,73.7
	s-57.1,73.7-127.6,73.7c-70.4,0-127.6-33-127.6-73.7S65.6,8.5,136.1,8.5z"/>
<path d="M113.9,79.1c0-1.2-0.3-2.2-1-2.9c-0.6-0.7-1.4-1.1-2.3-1.1c-0.9,0-1.8,0.4-2.4,1.1c-0.7,0.8-1,1.8-1,3c0,1.1,0.3,2,1,2.7
	c0.7,0.7,1.5,1,2.4,1c1,0,1.8-0.3,2.4-1C113.6,81.3,113.9,80.3,113.9,79.1 M105.3,86.7l2-0.2c0.2,1,0.5,1.6,1,2.1
	c0.5,0.4,1.1,0.6,1.9,0.6c0.6,0,1.2-0.1,1.7-0.4c0.5-0.3,0.9-0.7,1.2-1.2c0.3-0.5,0.6-1.2,0.8-2c0.2-0.8,0.3-1.7,0.3-2.6
	c0-0.1,0-0.2,0-0.4c-0.4,0.7-1,1.2-1.7,1.6c-0.7,0.4-1.5,0.6-2.4,0.6c-1.4,0-2.6-0.5-3.6-1.5c-1-1-1.5-2.4-1.5-4.1
	c0-1.7,0.5-3.1,1.5-4.2c1-1.1,2.3-1.6,3.9-1.6c1.1,0,2.1,0.3,3.1,0.9c0.9,0.6,1.6,1.5,2.1,2.6c0.5,1.1,0.7,2.7,0.7,4.8
	c0,2.2-0.2,3.9-0.7,5.2c-0.5,1.3-1.2,2.3-2.1,3c-0.9,0.7-2,1-3.3,1c-1.3,0-2.4-0.4-3.3-1.1C106,89.1,105.5,88.1,105.3,86.7z"/>
<path d="M120.5,82.2c0,2.8,0.3,4.7,1,5.6c0.7,0.9,1.5,1.4,2.4,1.4c1,0,1.8-0.5,2.4-1.4c0.7-0.9,1-2.8,1-5.6c0-2.8-0.3-4.7-1-5.6
	c-0.7-0.9-1.5-1.4-2.5-1.4c-1,0-1.7,0.4-2.3,1.2C120.9,77.5,120.5,79.4,120.5,82.2 M118.3,82.2c0-2,0.2-3.7,0.6-4.9
	c0.4-1.2,1-2.2,1.9-2.9c0.8-0.7,1.9-1,3.1-1c0.9,0,1.7,0.2,2.4,0.6c0.7,0.4,1.3,0.9,1.7,1.6c0.5,0.7,0.8,1.6,1.1,2.6
	c0.3,1,0.4,2.4,0.4,4.1c0,2-0.2,3.6-0.6,4.9c-0.4,1.2-1,2.2-1.9,2.9c-0.8,0.7-1.9,1-3.1,1c-1.7,0-3-0.6-3.9-1.8
	C118.9,87.8,118.3,85.4,118.3,82.2z"/>
<path d="M130.9,90.7l4.5-6.5l-4.2-6h2.6l1.9,2.9c0.4,0.6,0.6,1,0.9,1.4c0.3-0.5,0.7-1,1-1.4l2.1-2.9h2.5l-4.3,5.9l4.6,6.6h-2.6
	l-2.6-3.9l-0.7-1l-3.3,4.9H130.9z"/>
<path d="M143.7,86.2l2.2-0.2c0.2,1.1,0.5,1.9,1.1,2.4c0.6,0.5,1.3,0.8,2.2,0.8c1,0,1.9-0.4,2.6-1.1c0.7-0.8,1.1-1.8,1.1-3
	c0-1.2-0.3-2.2-1-2.8c-0.7-0.7-1.6-1-2.7-1c-0.7,0-1.3,0.2-1.8,0.5c-0.5,0.3-1,0.7-1.3,1.2l-2-0.3l1.7-8.8h8.5v2h-6.9l-0.9,4.6
	c1-0.7,2.1-1.1,3.2-1.1c1.5,0,2.8,0.5,3.8,1.6c1,1,1.5,2.4,1.5,4c0,1.6-0.5,2.9-1.4,4c-1.1,1.4-2.6,2.1-4.5,2.1
	c-1.6,0-2.8-0.4-3.8-1.3C144.4,88.8,143.8,87.6,143.7,86.2"/>
<path d="M168.1,88.7v2h-11.4c0-0.5,0.1-1,0.2-1.5c0.3-0.8,0.8-1.5,1.4-2.3c0.6-0.7,1.6-1.6,2.8-2.6c1.9-1.5,3.1-2.7,3.8-3.6
	c0.7-0.9,1-1.7,1-2.5c0-0.8-0.3-1.5-0.9-2.1c-0.6-0.6-1.4-0.9-2.3-0.9c-1,0-1.8,0.3-2.4,0.9c-0.6,0.6-0.9,1.5-0.9,2.5l-2.2-0.2
	c0.1-1.6,0.7-2.9,1.7-3.7c1-0.8,2.3-1.3,3.9-1.3c1.6,0,3,0.5,3.9,1.4c1,0.9,1.4,2,1.4,3.4c0,0.7-0.1,1.4-0.4,2
	c-0.3,0.7-0.7,1.4-1.4,2.1c-0.7,0.7-1.7,1.7-3.3,3c-1.3,1.1-2.1,1.8-2.4,2.2c-0.4,0.4-0.7,0.8-0.9,1.1H168.1z"/>
</svg>
