<?xml version="1.0" encoding="utf-8"?>
<!-- Generator: Adobe Illustrator 19.2.0, SVG Export Plug-In . SVG Version: 6.00 Build 0)  -->
<svg version="1.1" id="Слой_1" xmlns="http://www.w3.org/2000/svg" xmlns:xlink="http://www.w3.org/1999/xlink" x="0px" y="0px"
	 viewBox="0 0 297.6 226.8" enable-background="new 0 0 297.6 226.8" xml:space="preserve">
<path fill="#E6E0DF" stroke="#000000" stroke-width="0.7087" stroke-miterlimit="22.9256" d="M223.7,59.1c0.7,0.8,1.4,1.6,2.1,2.5
	c0.8,1,1.5,2,2.1,2.9l0,0c8.2,12.5,9.9,28.8,5.7,45.9c-3.9,16-13.1,32.7-27,47.1c-8.7,9-18.4,16.2-28.3,21.4
	c-10.3,5.4-21,8.7-31.1,9.7c-0.6,0.1-1.2,0.2-1.5,0.2c-0.6,0.1-1.2,0.1-1.8,0.2h-0.5c-0.3,0-0.6,0.1-0.9,0.2
	c-0.2,0.1-0.4,0.3-0.5,0.5c-0.1,0.2-0.2,0.5-0.2,0.7c0,0.2,0,0.3,0.1,0.5c3.3,4,4.2,4.7,7.1,7.1c1.4,1.2,3.2,2.7,5.2,4.3l0.4,0.3
	l0.3,0.3c1.7,1.8,2.8,4,3.4,6.2c0.7,2.8,0.4,5.6-0.8,8.2c-1.1,2.4-3.1,4.4-5.7,5.9c-2.3,1.2-5.2,2-8.6,2H93.4
	c-25.4,0-48.5-10.3-65.1-27c-16.7-16.7-27-39.7-27-65.1V93.5h0V92v-8.5h0.5c2.4-21.7,12.3-41.2,27-55.7C45.5,11.5,68.3,1.4,93.4,1.4
	h125.7h0.5h8v0.3c11.7,1,22.7,4.2,32.8,9.2c12.8,6.3,23.9,15.5,32.4,26.7L293,38c1.9,2.8,3,5.6,3.3,8.4c0.3,3.2-0.4,6.2-2.2,8.7
	c-1.7,2.4-4.1,4.1-7.2,5.1c-3,0.9-6.6,1.1-10.8,0.3c-11.1-2.1-19.1-3.7-26.7-4.4c-7.5-0.7-15-0.7-25.2,0.3c-0.2,0-0.3,0.1-0.5,0.3
	c-0.2,0.2-0.4,0.4-0.5,0.6c-0.1,0.2-0.1,0.4-0.1,0.7C223.1,58.1,223.3,58.6,223.7,59.1z"/>
<path fill="#FFFFFF" stroke="#000000" stroke-width="0.7087" stroke-miterlimit="22.9256" d="M217.3,64.6c1.4,1.4,2.5,2.9,3.5,4.4
	c13.7,20.7,5.6,55.8-20.3,82.6c-16.5,17-36.5,27-54.4,28.6c-0.9,0.1-1.8,0.2-2.7,0.3c-7.9,0.1-12.6,8.6-8.4,15.3
	c5.7,7,5.6,6,13.7,13c3.1,3.3,1.4,8-5.6,8H93.4c-46.2,0-83.6-37.4-83.6-83.6V93.5V92h0C10.6,46.5,47.7,9.9,93.4,9.9h125.7v0
	c0.2,0,0.3,0,0.5,0c27.1,0,51.2,12.9,66.5,32.9c4.3,6.2,0.9,11-8.4,9.2c-22.4-4.3-32.8-6.3-54.6-4.2
	C216.3,48.7,211.3,57.2,217.3,64.6z"/>
<path d="M103.9,110.3c0-1.2-0.3-2.2-1-2.9c-0.6-0.7-1.4-1.1-2.3-1.1c-0.9,0-1.8,0.4-2.4,1.1c-0.7,0.8-1,1.8-1,3c0,1.1,0.3,2,1,2.7
	c0.7,0.7,1.5,1,2.4,1c1,0,1.8-0.3,2.4-1C103.6,112.5,103.9,111.5,103.9,110.3 M95.3,117.9l2-0.2c0.2,1,0.5,1.6,1,2.1
	c0.5,0.4,1.1,0.6,1.9,0.6c0.6,0,1.2-0.1,1.7-0.4c0.5-0.3,0.9-0.7,1.2-1.2c0.3-0.5,0.6-1.2,0.8-2c0.2-0.8,0.3-1.7,0.3-2.6
	c0-0.1,0-0.2,0-0.4c-0.4,0.7-1,1.2-1.7,1.6c-0.7,0.4-1.5,0.6-2.4,0.6c-1.4,0-2.6-0.5-3.6-1.5c-1-1-1.5-2.4-1.5-4.1
	c0-1.7,0.5-3.1,1.5-4.2c1-1.1,2.3-1.6,3.9-1.6c1.1,0,2.1,0.3,3.1,0.9c0.9,0.6,1.6,1.5,2.1,2.6c0.5,1.1,0.7,2.7,0.7,4.8
	c0,2.2-0.2,3.9-0.7,5.2c-0.5,1.3-1.2,2.3-2.1,3c-0.9,0.7-2,1-3.3,1c-1.3,0-2.4-0.4-3.3-1.1C96,120.3,95.5,119.2,95.3,117.9z"/>
<path d="M110.5,116.9c0,0.6,0.1,1.2,0.4,1.7c0.3,0.6,0.7,1,1.3,1.3c0.6,0.3,1.2,0.5,1.8,0.5c1,0,1.8-0.3,2.5-1c0.7-0.6,1-1.5,1-2.5
	c0-1-0.3-1.9-1-2.5c-0.7-0.7-1.5-1-2.5-1c-1,0-1.8,0.3-2.5,1C110.8,115.1,110.5,115.9,110.5,116.9 M111.2,109c0,0.8,0.3,1.5,0.8,2
	c0.5,0.5,1.2,0.8,2,0.8c0.8,0,1.5-0.3,2-0.8c0.5-0.5,0.8-1.1,0.8-1.9c0-0.8-0.3-1.4-0.8-2c-0.5-0.5-1.2-0.8-2-0.8
	c-0.8,0-1.5,0.3-2,0.8C111.4,107.6,111.2,108.3,111.2,109z M111.6,112.5c-0.9-0.3-1.5-0.8-1.9-1.4c-0.4-0.6-0.6-1.3-0.6-2.1
	c0-1.3,0.4-2.3,1.3-3.2c0.9-0.9,2.1-1.3,3.6-1.3c1.5,0,2.7,0.4,3.6,1.3c0.9,0.9,1.4,1.9,1.4,3.2c0,0.8-0.2,1.5-0.6,2.1
	c-0.4,0.6-1.1,1-1.9,1.4c1.1,0.3,1.9,0.9,2.4,1.7c0.5,0.8,0.8,1.7,0.8,2.7c0,1.5-0.5,2.7-1.6,3.7c-1,1-2.4,1.5-4.1,1.5
	c-1.7,0-3.1-0.5-4.1-1.5c-1-1-1.6-2.3-1.6-3.8c0-1.1,0.3-2.1,0.9-2.8C109.7,113.3,110.5,112.8,111.6,112.5z"/>
<path d="M120.9,121.9l4.5-6.5l-4.2-6h2.6l1.9,2.9c0.4,0.6,0.6,1,0.9,1.4c0.3-0.5,0.7-1,1-1.4l2.1-2.9h2.5l-4.3,5.9l4.6,6.6h-2.6
	l-2.6-3.9l-0.7-1l-3.3,4.9H120.9z"/>
<path d="M133.8,106.9v-2h11.1v1.6c-1.1,1.2-2.2,2.7-3.3,4.6c-1.1,1.9-1.9,3.9-2.5,6c-0.4,1.4-0.7,3-0.8,4.7h-2.2
	c0-1.4,0.3-3,0.8-4.9c0.5-1.9,1.2-3.8,2.2-5.5c1-1.8,2-3.3,3-4.5H133.8z"/>
<path d="M147,117.3l2.1-0.3c0.2,1.2,0.7,2.1,1.2,2.6c0.6,0.5,1.3,0.8,2.1,0.8c1,0,1.8-0.3,2.5-1c0.7-0.7,1-1.5,1-2.6
	c0-1-0.3-1.8-0.9-2.4c-0.6-0.6-1.4-0.9-2.4-0.9c-0.4,0-0.9,0.1-1.5,0.2l0.2-1.9c0.1,0,0.3,0,0.3,0c0.9,0,1.7-0.2,2.4-0.7
	s1.1-1.2,1.1-2.2c0-0.8-0.3-1.4-0.8-1.9c-0.5-0.5-1.2-0.8-2-0.8c-0.8,0-1.5,0.3-2,0.8c-0.5,0.5-0.9,1.3-1.1,2.3l-2.1-0.4
	c0.3-1.4,0.8-2.5,1.8-3.3c0.9-0.8,2.1-1.2,3.4-1.2c0.9,0,1.8,0.2,2.6,0.6c0.8,0.4,1.4,1,1.8,1.6c0.4,0.7,0.6,1.4,0.6,2.2
	c0,0.7-0.2,1.4-0.6,2c-0.4,0.6-1,1.1-1.8,1.5c1,0.2,1.8,0.7,2.4,1.5c0.6,0.7,0.8,1.7,0.8,2.8c0,1.5-0.5,2.8-1.6,3.8
	c-1.1,1-2.5,1.6-4.1,1.6c-1.5,0-2.8-0.4-3.8-1.3C147.8,119.9,147.2,118.8,147,117.3"/>
</svg>
