<?xml version="1.0" encoding="utf-8"?>
<!-- Generator: Adobe Illustrator 19.2.0, SVG Export Plug-In . SVG Version: 6.00 Build 0)  -->
<svg version="1.1" id="Слой_1" xmlns="http://www.w3.org/2000/svg" xmlns:xlink="http://www.w3.org/1999/xlink" x="0px" y="0px"
	 viewBox="0 0 297.6 204.1" enable-background="new 0 0 297.6 204.1" xml:space="preserve">
<path fill="#E6E0DF" stroke="#000000" stroke-width="0.7087" stroke-miterlimit="22.9256" d="M172.2,19.7c-1.6,0-3-1.4-3-3
	c0-4.2-3.3-7.6-7.4-7.6c-0.7,0-1.3,0.1-1.9,0.3c-0.3,0.1-0.6,0.1-0.9,0.1c-1.4,0-2.6-1-2.9-2.3c-0.8-3.3-3.8-5.7-7.2-5.7
	c-3.5,0-6.4,2.4-7.2,5.7c-0.4,1.3-1.5,2.3-2.9,2.3c-0.3,0-0.5,0-0.8-0.1c-0.6-0.2-1.3-0.3-2-0.3c-4.1,0-7.4,3.4-7.4,7.6
	c0,1.7-1.3,3-3,3C89.1,19.7,45.2,1.4,8.8,1.4C4.7,1.4,1.4,4.8,1.4,9c8.9,50.2,9.7,134.5,0,186.2c0,4.2,3.3,7.5,7.4,7.5
	c88.4,0,191.7,0,280.1,0c4.1,0,7.4-3.4,7.4-7.5c-10.8-50.9-9.5-135.3,0-186.2c0-4.2-3.3-7.5-7.4-7.5
	C252.4,1.4,208.6,19.7,172.2,19.7z"/>
<path fill="#FFFFFF" stroke="#000000" stroke-width="0.7087" stroke-miterlimit="22.9256" d="M171,25.5c-1.6,0-2.8-1.3-2.8-2.8
	c0-3.9-3.2-7.1-7.1-7.1c-0.6,0-1.3,0.1-1.9,0.2c-0.3,0.1-0.5,0.1-0.8,0.1c-1.3,0-2.5-0.9-2.8-2.2c-0.8-3-3.6-5.3-6.9-5.3
	c-3.3,0-6.1,2.3-6.9,5.3c-0.3,1.2-1.4,2.1-2.8,2.1c-0.3,0-0.5,0-0.8-0.1c-0.6-0.2-1.2-0.3-1.9-0.3c-3.9,0-7.1,3.2-7.1,7.1
	c0,1.6-1.3,2.8-2.8,2.8c-34.7,0-76.4-17-111.1-17c-3.9,0-7,3.2-7,7c8.5,46.7,9.2,125,0,173.1c0,3.9,3.2,7,7,7
	c84.1,0,182.4,0,266.5,0c3.9,0,7-3.2,7-7c-10.3-47.4-9.1-125.8,0-173.1c0-3.9-3.2-7-7-7C247.4,8.5,205.7,25.5,171,25.5z"/>
<path d="M126.6,99c0-1.2-0.3-2.2-1-2.9c-0.6-0.7-1.4-1.1-2.3-1.1c-0.9,0-1.8,0.4-2.4,1.1c-0.7,0.8-1,1.8-1,3c0,1.1,0.3,2,1,2.7
	c0.7,0.7,1.5,1,2.4,1c1,0,1.8-0.3,2.4-1C126.3,101.1,126.6,100.2,126.6,99 M118,106.6l2-0.2c0.2,1,0.5,1.6,1,2.1
	c0.5,0.4,1.1,0.6,1.9,0.6c0.6,0,1.2-0.1,1.7-0.4c0.5-0.3,0.9-0.7,1.2-1.2c0.3-0.5,0.6-1.2,0.8-2c0.2-0.8,0.3-1.7,0.3-2.6
	c0-0.1,0-0.2,0-0.4c-0.4,0.7-1,1.2-1.7,1.6c-0.7,0.4-1.5,0.6-2.4,0.6c-1.4,0-2.6-0.5-3.6-1.5c-1-1-1.5-2.4-1.5-4.1
	c0-1.7,0.5-3.1,1.5-4.2c1-1.1,2.3-1.6,3.9-1.6c1.1,0,2.1,0.3,3.1,0.9c0.9,0.6,1.6,1.5,2.1,2.6c0.5,1.1,0.7,2.7,0.7,4.8
	c0,2.2-0.2,3.9-0.7,5.2c-0.5,1.3-1.2,2.3-2.1,3c-0.9,0.7-2,1-3.3,1c-1.3,0-2.4-0.4-3.3-1.1C118.7,109,118.2,107.9,118,106.6z"/>
<path d="M140,99c0-1.2-0.3-2.2-1-2.9c-0.6-0.7-1.4-1.1-2.3-1.1c-0.9,0-1.8,0.4-2.4,1.1c-0.7,0.8-1,1.8-1,3c0,1.1,0.3,2,1,2.7
	c0.7,0.7,1.5,1,2.4,1c1,0,1.8-0.3,2.4-1C139.7,101.1,140,100.2,140,99 M131.3,106.6l2-0.2c0.2,1,0.5,1.6,1,2.1
	c0.5,0.4,1.1,0.6,1.9,0.6c0.6,0,1.2-0.1,1.7-0.4c0.5-0.3,0.9-0.7,1.2-1.2c0.3-0.5,0.6-1.2,0.8-2c0.2-0.8,0.3-1.7,0.3-2.6
	c0-0.1,0-0.2,0-0.4c-0.4,0.7-1,1.2-1.7,1.6c-0.7,0.4-1.5,0.6-2.4,0.6c-1.4,0-2.6-0.5-3.6-1.5c-1-1-1.5-2.4-1.5-4.1
	c0-1.7,0.5-3.1,1.5-4.2c1-1.1,2.3-1.6,3.9-1.6c1.1,0,2.1,0.3,3.1,0.9c0.9,0.6,1.6,1.5,2.1,2.6c0.5,1.1,0.7,2.7,0.7,4.8
	c0,2.2-0.2,3.9-0.7,5.2c-0.5,1.3-1.2,2.3-2.1,3c-0.9,0.7-2,1-3.3,1c-1.3,0-2.4-0.4-3.3-1.1C132,109,131.5,107.9,131.3,106.6z"/>
<path d="M143.5,110.5l4.5-6.5l-4.2-6h2.6l1.9,2.9c0.4,0.6,0.6,1,0.9,1.4c0.3-0.5,0.7-1,1-1.4l2.1-2.9h2.5l-4.3,5.9l4.6,6.6h-2.6
	l-2.6-3.9l-0.7-1l-3.3,4.9H143.5z"/>
<path d="M158.7,105c0,0.7,0.2,1.4,0.5,2.1c0.3,0.7,0.7,1.2,1.3,1.5c0.6,0.3,1.1,0.5,1.7,0.5c0.9,0,1.7-0.4,2.3-1.1
	c0.6-0.7,1-1.7,1-2.9c0-1.2-0.3-2.1-0.9-2.8s-1.4-1-2.4-1c-1,0-1.8,0.3-2.4,1C159,103,158.7,103.9,158.7,105 M167.3,97.6l-2.1,0.2
	c-0.2-0.8-0.5-1.4-0.8-1.8c-0.6-0.6-1.3-0.9-2.1-0.9c-0.7,0-1.3,0.2-1.8,0.6c-0.7,0.5-1.2,1.2-1.6,2.1c-0.4,0.9-0.6,2.3-0.6,4
	c0.5-0.8,1.1-1.3,1.9-1.7c0.7-0.4,1.5-0.6,2.3-0.6c1.4,0,2.6,0.5,3.6,1.6c1,1,1.5,2.4,1.5,4c0,1.1-0.2,2.1-0.7,3
	c-0.5,0.9-1.1,1.6-1.9,2.1c-0.8,0.5-1.7,0.7-2.8,0.7c-1.8,0-3.2-0.6-4.3-1.9c-1.1-1.3-1.7-3.4-1.7-6.4c0-3.3,0.6-5.7,1.8-7.2
	c1.1-1.3,2.5-2,4.3-2c1.3,0,2.5,0.4,3.3,1.1C166.6,95.2,167.1,96.2,167.3,97.6z"/>
<path d="M172,105c0,0.7,0.2,1.4,0.5,2.1c0.3,0.7,0.7,1.2,1.3,1.5c0.6,0.3,1.1,0.5,1.7,0.5c0.9,0,1.7-0.4,2.3-1.1
	c0.6-0.7,1-1.7,1-2.9c0-1.2-0.3-2.1-0.9-2.8s-1.4-1-2.4-1c-1,0-1.8,0.3-2.4,1C172.4,103,172,103.9,172,105 M180.7,97.6l-2.1,0.2
	c-0.2-0.8-0.5-1.4-0.8-1.8c-0.6-0.6-1.3-0.9-2.1-0.9c-0.7,0-1.3,0.2-1.8,0.6c-0.7,0.5-1.2,1.2-1.6,2.1c-0.4,0.9-0.6,2.3-0.6,4
	c0.5-0.8,1.1-1.3,1.9-1.7c0.7-0.4,1.5-0.6,2.3-0.6c1.4,0,2.6,0.5,3.6,1.6c1,1,1.5,2.4,1.5,4c0,1.1-0.2,2.1-0.7,3
	c-0.5,0.9-1.1,1.6-1.9,2.1c-0.8,0.5-1.7,0.7-2.8,0.7c-1.8,0-3.2-0.6-4.3-1.9c-1.1-1.3-1.7-3.4-1.7-6.4c0-3.3,0.6-5.7,1.8-7.2
	c1.1-1.3,2.5-2,4.3-2c1.3,0,2.5,0.4,3.3,1.1C180,95.2,180.5,96.2,180.7,97.6z"/>
</svg>
