<?xml version="1.0" encoding="utf-8"?>
<!-- Generator: Adobe Illustrator 19.2.0, SVG Export Plug-In . SVG Version: 6.00 Build 0)  -->
<svg version="1.1" id="Слой_1" xmlns="http://www.w3.org/2000/svg" xmlns:xlink="http://www.w3.org/1999/xlink" x="0px" y="0px"
	 viewBox="0 0 328.8 328.8" style="enable-background:new 0 0 328.8 328.8;" xml:space="preserve">
<style type="text/css">
	.st0{fill:#E6E0DF;stroke:#000000;stroke-width:0.7087;stroke-miterlimit:22.9256;}
	.st1{fill:#FFFFFF;stroke:#000000;stroke-width:0.7087;stroke-miterlimit:22.9256;}
</style>
<path class="st0" d="M164.4,1.4c90,0,163,73,163,163s-73,163-163,163s-163-73-163-163S74.4,1.4,164.4,1.4z"/>
<path class="st1" d="M164.4,8.5c86.1,0,155.9,69.8,155.9,155.9s-69.8,155.9-155.9,155.9S8.5,250.5,8.5,164.4S78.3,8.5,164.4,8.5z"/>
<path d="M138,170.9h3.7c1.1,0,2-0.1,2.7-0.3c0.6-0.2,1.2-0.5,1.5-0.9c0.5-0.5,1-1.3,1.3-2.2c0.3-0.9,0.5-2,0.5-3.3
	c0-1.8-0.3-3.2-0.9-4.1c-0.6-1-1.3-1.6-2.2-1.9c-0.6-0.2-1.6-0.4-2.9-0.4H138V170.9z M135.7,172.9v-17.2h5.9c1.3,0,2.4,0.1,3.1,0.2
	c1,0.2,1.8,0.6,2.5,1.2c0.9,0.8,1.6,1.7,2,2.9c0.5,1.2,0.7,2.6,0.7,4.1c0,1.3-0.2,2.5-0.5,3.5c-0.3,1-0.7,1.8-1.2,2.5
	c-0.5,0.7-1,1.2-1.6,1.6c-0.6,0.4-1.2,0.7-2,0.9c-0.8,0.2-1.7,0.3-2.8,0.3H135.7z"/>
<path d="M166.8,172.9h-2.1v-13.4c-0.5,0.5-1.2,1-2,1.5c-0.8,0.5-1.6,0.8-2.2,1.1v-2c1.2-0.6,2.2-1.2,3.1-2c0.9-0.8,1.5-1.6,1.9-2.3
	h1.4V172.9z"/>
<path d="M178.4,172.9h-2.1v-13.4c-0.5,0.5-1.2,1-2,1.5c-0.8,0.5-1.6,0.8-2.2,1.1v-2c1.2-0.6,2.2-1.2,3.1-2c0.9-0.8,1.5-1.6,1.9-2.3
	h1.4V172.9z"/>
<path d="M185.9,164.4c0,2.8,0.3,4.7,1,5.6c0.7,0.9,1.5,1.4,2.4,1.4c1,0,1.8-0.5,2.4-1.4c0.7-0.9,1-2.8,1-5.6c0-2.8-0.3-4.7-1-5.6
	c-0.7-0.9-1.5-1.4-2.5-1.4c-1,0-1.7,0.4-2.3,1.2C186.3,159.7,185.9,161.6,185.9,164.4 M183.8,164.4c0-2,0.2-3.7,0.6-4.9
	c0.4-1.2,1-2.2,1.9-2.9c0.8-0.7,1.9-1,3.1-1c0.9,0,1.7,0.2,2.4,0.6c0.7,0.4,1.3,0.9,1.7,1.6c0.5,0.7,0.8,1.6,1.1,2.6
	c0.3,1,0.4,2.4,0.4,4.1c0,2-0.2,3.6-0.6,4.9c-0.4,1.2-1,2.2-1.9,2.9c-0.8,0.7-1.9,1-3.1,1c-1.7,0-3-0.6-3.9-1.8
	C184.3,170,183.8,167.6,183.8,164.4z"/>
</svg>
