<?xml version="1.0" encoding="utf-8"?>
<!-- Generator: Adobe Illustrator 19.2.0, SVG Export Plug-In . SVG Version: 6.00 Build 0)  -->
<svg version="1.1" id="Слой_1" xmlns="http://www.w3.org/2000/svg" xmlns:xlink="http://www.w3.org/1999/xlink" x="0px" y="0px"
	 viewBox="0 0 144.6 144.6" style="enable-background:new 0 0 144.6 144.6;" xml:space="preserve">
<style type="text/css">
	.st0{fill:#E6E0DF;stroke:#000000;stroke-width:0.7087;stroke-miterlimit:22.9256;}
	.st1{fill:#FFFFFF;stroke:#000000;stroke-width:0.7087;stroke-miterlimit:22.9256;}
</style>
<path class="st0" d="M13.6,111.7c-22-32.5-13.5-76.5,18.9-98.3C64.9-8.4,109,0.3,130.9,32.8c22,32.5,13.5,76.5-18.9,98.3
	C79.7,152.9,35.6,144.2,13.6,111.7z"/>
<path class="st1" d="M19.5,107.8c-19.8-29.3-12.2-68.9,17-88.5c29.1-19.6,68.8-11.8,88.6,17.5c19.8,29.3,12.2,68.9-17,88.5
	C78.9,144.9,39.3,137,19.5,107.8z"/>
<path d="M51.5,78.7h3.7c1.1,0,2-0.1,2.7-0.3c0.6-0.2,1.2-0.5,1.5-0.9c0.5-0.5,1-1.3,1.3-2.2c0.3-0.9,0.5-2,0.5-3.3
	c0-1.8-0.3-3.2-0.9-4.1c-0.6-1-1.3-1.6-2.2-1.9c-0.6-0.2-1.6-0.4-2.9-0.4h-3.6V78.7z M49.3,80.7V63.5h5.9c1.3,0,2.4,0.1,3.1,0.2
	c1,0.2,1.8,0.6,2.5,1.2c0.9,0.8,1.6,1.7,2,2.9c0.5,1.2,0.7,2.6,0.7,4.1c0,1.3-0.2,2.5-0.5,3.5c-0.3,1-0.7,1.8-1.2,2.5
	c-0.5,0.7-1,1.2-1.6,1.6c-0.6,0.4-1.2,0.7-2,0.9c-0.8,0.2-1.7,0.3-2.8,0.3H49.3z"/>
<path d="M79.2,74.7v-7.7l-5.4,7.7H79.2z M79.2,80.7v-4.1h-7.5v-1.9l7.8-11.1h1.7v11.1h2.3v1.9h-2.3v4.1H79.2z"/>
<path d="M85.8,76.2L88,76c0.2,1.1,0.5,1.9,1.1,2.4c0.6,0.5,1.3,0.8,2.2,0.8c1,0,1.9-0.4,2.6-1.1c0.7-0.8,1.1-1.8,1.1-3
	c0-1.2-0.3-2.2-1-2.8c-0.7-0.7-1.6-1-2.7-1c-0.7,0-1.3,0.2-1.8,0.5c-0.5,0.3-1,0.7-1.3,1.2l-2-0.3l1.7-8.8h8.5v2h-6.9l-0.9,4.6
	c1-0.7,2.1-1.1,3.2-1.1c1.5,0,2.8,0.5,3.8,1.6c1,1,1.5,2.4,1.5,4c0,1.6-0.5,2.9-1.4,4c-1.1,1.4-2.6,2.1-4.5,2.1
	c-1.6,0-2.8-0.4-3.8-1.3C86.5,78.8,85.9,77.7,85.8,76.2"/>
</svg>
