<?xml version="1.0" encoding="utf-8"?>
<!-- Generator: Adobe Illustrator 19.2.0, SVG Export Plug-In . SVG Version: 6.00 Build 0)  -->
<svg version="1.1" id="Слой_1" xmlns="http://www.w3.org/2000/svg" xmlns:xlink="http://www.w3.org/1999/xlink" x="0px" y="0px"
	 viewBox="0 0 187.1 187.1" style="enable-background:new 0 0 187.1 187.1;" xml:space="preserve">
<style type="text/css">
	.st0{fill:#E6E0DF;stroke:#000000;stroke-width:0.7087;stroke-miterlimit:22.9256;}
	.st1{fill:#FFFFFF;stroke:#000000;stroke-width:0.7087;stroke-miterlimit:22.9256;}
</style>
<path class="st0" d="M93.5,1.4c50.9,0,92.1,41.3,92.1,92.1s-41.3,92.1-92.1,92.1S1.4,144.4,1.4,93.5S42.7,1.4,93.5,1.4z"/>
<circle class="st1" cx="93.5" cy="93.5" r="85"/>
<path d="M72.9,100h3.7c1.1,0,2-0.1,2.7-0.3c0.6-0.2,1.2-0.5,1.5-0.9c0.5-0.5,1-1.3,1.3-2.2c0.3-0.9,0.5-2,0.5-3.3
	c0-1.8-0.3-3.2-0.9-4.1c-0.6-1-1.3-1.6-2.2-1.9c-0.6-0.2-1.6-0.4-2.9-0.4h-3.6V100z M70.6,102V84.8h5.9c1.3,0,2.4,0.1,3.1,0.2
	c1,0.2,1.8,0.6,2.5,1.2c0.9,0.8,1.6,1.7,2,2.9c0.5,1.2,0.7,2.6,0.7,4.1c0,1.3-0.2,2.5-0.5,3.5c-0.3,1-0.7,1.8-1.2,2.5
	c-0.5,0.7-1,1.2-1.6,1.6c-0.6,0.4-1.2,0.7-2,0.9c-0.8,0.2-1.7,0.3-2.8,0.3H70.6z"/>
<path d="M96.1,96.5c0,0.7,0.2,1.4,0.5,2.1c0.3,0.7,0.7,1.2,1.3,1.5c0.6,0.3,1.1,0.5,1.7,0.5c0.9,0,1.7-0.4,2.3-1.1
	c0.6-0.7,1-1.7,1-2.9c0-1.2-0.3-2.1-0.9-2.8c-0.6-0.7-1.4-1-2.4-1c-1,0-1.8,0.3-2.4,1C96.4,94.5,96.1,95.3,96.1,96.5 M104.7,89.1
	l-2.1,0.2c-0.2-0.8-0.5-1.4-0.8-1.8c-0.6-0.6-1.3-0.9-2.1-0.9c-0.7,0-1.3,0.2-1.8,0.6c-0.7,0.5-1.2,1.2-1.6,2.1
	c-0.4,0.9-0.6,2.3-0.6,4c0.5-0.8,1.1-1.3,1.9-1.7c0.7-0.4,1.5-0.6,2.3-0.6c1.4,0,2.6,0.5,3.6,1.6c1,1,1.5,2.4,1.5,4
	c0,1.1-0.2,2.1-0.7,3c-0.5,0.9-1.1,1.6-1.9,2.1c-0.8,0.5-1.7,0.7-2.8,0.7c-1.8,0-3.2-0.6-4.3-1.9c-1.1-1.3-1.7-3.4-1.7-6.4
	c0-3.3,0.6-5.7,1.8-7.2c1.1-1.3,2.5-2,4.3-2c1.3,0,2.5,0.4,3.3,1.1C104,86.7,104.5,87.7,104.7,89.1z"/>
<path d="M109.3,93.6c0,2.8,0.3,4.7,1,5.6c0.7,0.9,1.5,1.4,2.4,1.4c1,0,1.8-0.5,2.4-1.4c0.7-0.9,1-2.8,1-5.6c0-2.8-0.3-4.7-1-5.6
	c-0.7-0.9-1.5-1.4-2.5-1.4c-1,0-1.7,0.4-2.3,1.2C109.6,88.8,109.3,90.7,109.3,93.6 M107.1,93.6c0-2,0.2-3.7,0.6-4.9
	c0.4-1.2,1-2.2,1.9-2.9c0.8-0.7,1.9-1,3.1-1c0.9,0,1.7,0.2,2.4,0.6c0.7,0.4,1.3,0.9,1.7,1.6c0.5,0.7,0.8,1.6,1.1,2.6
	c0.3,1,0.4,2.4,0.4,4.1c0,2-0.2,3.6-0.6,4.9c-0.4,1.2-1,2.2-1.9,2.9c-0.8,0.7-1.9,1-3.1,1c-1.7,0-3-0.6-3.9-1.8
	C107.7,99.1,107.1,96.8,107.1,93.6z"/>
</svg>
