<?xml version="1.0" encoding="utf-8"?>
<!-- Generator: Adobe Illustrator 19.2.0, SVG Export Plug-In . SVG Version: 6.00 Build 0)  -->
<svg version="1.1" id="Слой_1" xmlns="http://www.w3.org/2000/svg" xmlns:xlink="http://www.w3.org/1999/xlink" x="0px" y="0px"
	 viewBox="0 0 243.8 243.8" style="enable-background:new 0 0 243.8 243.8;" xml:space="preserve">
<style type="text/css">
	.st0{fill:#E6E0DF;stroke:#000000;stroke-width:0.7087;stroke-miterlimit:22.9256;}
	.st1{fill:#FFFFFF;stroke:#000000;stroke-width:0.7087;stroke-miterlimit:22.9256;}
</style>
<path class="st0" d="M121.9,1.4c66.5,0,120.5,53.9,120.5,120.5c0,66.5-53.9,120.5-120.5,120.5c-66.5,0-120.5-53.9-120.5-120.5
	C1.4,55.4,55.4,1.4,121.9,1.4z"/>
<path class="st1" d="M121.9,8.5c62.6,0,113.4,50.8,113.4,113.4s-50.8,113.4-113.4,113.4S8.5,184.5,8.5,121.9S59.3,8.5,121.9,8.5z"/>
<path d="M95.5,128.3h3.7c1.1,0,2-0.1,2.7-0.3c0.6-0.2,1.2-0.5,1.5-0.9c0.5-0.5,1-1.3,1.3-2.2c0.3-0.9,0.5-2,0.5-3.3
	c0-1.8-0.3-3.2-0.9-4.1c-0.6-1-1.3-1.6-2.2-1.9c-0.6-0.2-1.6-0.4-2.9-0.4h-3.6V128.3z M93.2,130.4v-17.2h5.9c1.3,0,2.4,0.1,3.1,0.2
	c1,0.2,1.8,0.6,2.5,1.2c0.9,0.8,1.6,1.7,2,2.9c0.5,1.2,0.7,2.6,0.7,4.1c0,1.3-0.2,2.5-0.5,3.5c-0.3,1-0.7,1.8-1.2,2.5
	c-0.5,0.7-1,1.2-1.6,1.6c-0.6,0.4-1.2,0.7-2,0.9c-0.8,0.2-1.7,0.3-2.8,0.3H93.2z"/>
<path d="M118.5,125.4c0,0.6,0.1,1.2,0.4,1.7c0.3,0.6,0.7,1,1.3,1.3c0.6,0.3,1.2,0.5,1.8,0.5c1,0,1.8-0.3,2.5-1c0.7-0.6,1-1.5,1-2.5
	c0-1-0.3-1.9-1-2.5c-0.7-0.7-1.5-1-2.5-1c-1,0-1.8,0.3-2.5,1C118.8,123.6,118.5,124.4,118.5,125.4 M119.2,117.5c0,0.8,0.3,1.5,0.8,2
	c0.5,0.5,1.2,0.8,2,0.8c0.8,0,1.5-0.3,2-0.8c0.5-0.5,0.8-1.1,0.8-1.9c0-0.8-0.3-1.4-0.8-2c-0.5-0.5-1.2-0.8-2-0.8
	c-0.8,0-1.5,0.3-2,0.8C119.4,116.1,119.2,116.8,119.2,117.5z M119.6,121.1c-0.9-0.3-1.5-0.8-1.9-1.4c-0.4-0.6-0.6-1.3-0.6-2.1
	c0-1.3,0.4-2.3,1.3-3.2c0.9-0.9,2.1-1.3,3.6-1.3c1.5,0,2.7,0.4,3.6,1.3c0.9,0.9,1.4,1.9,1.4,3.2c0,0.8-0.2,1.5-0.6,2.1
	c-0.4,0.6-1.1,1-1.9,1.4c1.1,0.3,1.9,0.9,2.4,1.7c0.5,0.8,0.8,1.7,0.8,2.7c0,1.5-0.5,2.7-1.6,3.7c-1,1-2.4,1.5-4.1,1.5
	c-1.7,0-3.1-0.5-4.1-1.5s-1.6-2.3-1.6-3.8c0-1.1,0.3-2.1,0.9-2.8C117.7,121.8,118.5,121.3,119.6,121.1z"/>
<path d="M131.8,121.9c0,2.8,0.3,4.7,1,5.6c0.7,0.9,1.5,1.4,2.4,1.4c1,0,1.8-0.5,2.4-1.4c0.7-0.9,1-2.8,1-5.6c0-2.8-0.3-4.7-1-5.6
	c-0.7-0.9-1.5-1.4-2.5-1.4c-1,0-1.7,0.4-2.3,1.2C132.2,117.1,131.8,119.1,131.8,121.9 M129.7,121.9c0-2,0.2-3.7,0.6-4.9
	c0.4-1.2,1-2.2,1.9-2.9c0.8-0.7,1.9-1,3.1-1c0.9,0,1.7,0.2,2.4,0.6c0.7,0.4,1.3,0.9,1.7,1.6c0.5,0.7,0.8,1.6,1.1,2.6
	c0.3,1,0.4,2.4,0.4,4.1c0,2-0.2,3.6-0.6,4.9c-0.4,1.2-1,2.2-1.9,2.9c-0.8,0.7-1.9,1-3.1,1c-1.7,0-3-0.6-3.9-1.8
	C130.2,127.5,129.7,125.1,129.7,121.9z"/>
</svg>
