<?xml version="1.0" encoding="utf-8"?>
<!-- Generator: Adobe Illustrator 19.2.0, SVG Export Plug-In . SVG Version: 6.00 Build 0)  -->
<svg version="1.1" id="Слой_1" xmlns="http://www.w3.org/2000/svg" xmlns:xlink="http://www.w3.org/1999/xlink" x="0px" y="0px"
	 viewBox="0 0 292 292" style="enable-background:new 0 0 292 292;" xml:space="preserve">
<style type="text/css">
	.st0{fill:#E6E0DF;stroke:#000000;stroke-width:0.7087;stroke-miterlimit:22.9256;}
	.st1{fill:#FFFFFF;stroke:#000000;stroke-width:0.7087;stroke-miterlimit:22.9256;}
</style>
<path class="st0" d="M146,1.4c79.8,0,144.6,64.7,144.6,144.6c0,79.8-64.7,144.6-144.6,144.6C66.2,290.6,1.4,225.8,1.4,146
	C1.4,66.2,66.2,1.4,146,1.4z"/>
<path class="st1" d="M146,8.5c75.9,0,137.5,61.6,137.5,137.5c0,75.9-61.6,137.5-137.5,137.5C70.1,283.5,8.5,221.9,8.5,146
	C8.5,70.1,70.1,8.5,146,8.5z"/>
<path d="M125.3,152.4h3.7c1.1,0,2-0.1,2.7-0.3c0.6-0.2,1.2-0.5,1.5-0.9c0.5-0.5,1-1.3,1.3-2.2c0.3-0.9,0.5-2,0.5-3.3
	c0-1.8-0.3-3.2-0.9-4.1c-0.6-1-1.3-1.6-2.2-1.9c-0.6-0.2-1.6-0.4-2.9-0.4h-3.6V152.4z M123,154.5v-17.2h5.9c1.3,0,2.4,0.1,3.1,0.2
	c1,0.2,1.8,0.6,2.5,1.2c0.9,0.8,1.6,1.7,2,2.9c0.5,1.2,0.7,2.6,0.7,4.1c0,1.3-0.2,2.5-0.5,3.5c-0.3,1-0.7,1.8-1.2,2.5
	c-0.5,0.7-1,1.2-1.6,1.6c-0.6,0.4-1.2,0.7-2,0.9c-0.8,0.2-1.7,0.3-2.8,0.3H123z"/>
<path d="M155.1,142.9c0-1.2-0.3-2.2-1-2.9c-0.6-0.7-1.4-1.1-2.3-1.1c-0.9,0-1.8,0.4-2.4,1.1c-0.7,0.8-1,1.8-1,3c0,1.1,0.3,2,1,2.7
	c0.7,0.7,1.5,1,2.4,1c1,0,1.8-0.3,2.4-1C154.8,145.1,155.1,144.1,155.1,142.9 M146.5,150.5l2-0.2c0.2,1,0.5,1.6,1,2.1
	c0.5,0.4,1.1,0.6,1.9,0.6c0.6,0,1.2-0.1,1.7-0.4c0.5-0.3,0.9-0.7,1.2-1.2c0.3-0.5,0.6-1.2,0.8-2c0.2-0.8,0.3-1.7,0.3-2.6
	c0-0.1,0-0.2,0-0.4c-0.4,0.7-1,1.2-1.7,1.6c-0.7,0.4-1.5,0.6-2.4,0.6c-1.4,0-2.6-0.5-3.6-1.5c-1-1-1.5-2.4-1.5-4.1
	c0-1.7,0.5-3.1,1.5-4.2c1-1.1,2.3-1.6,3.9-1.6c1.1,0,2.1,0.3,3.1,0.9c0.9,0.6,1.6,1.5,2.1,2.6c0.5,1.1,0.7,2.7,0.7,4.8
	c0,2.2-0.2,3.9-0.7,5.2c-0.5,1.3-1.2,2.3-2.1,3c-0.9,0.7-2,1-3.3,1c-1.3,0-2.4-0.4-3.3-1.1C147.2,152.9,146.7,151.8,146.5,150.5z"/>
<path d="M159.7,139.5v-2h11.1v1.6c-1.1,1.2-2.2,2.7-3.3,4.6c-1.1,1.9-1.9,3.9-2.5,6c-0.4,1.4-0.7,3-0.8,4.7h-2.2
	c0-1.4,0.3-3,0.8-4.9c0.5-1.9,1.2-3.8,2.2-5.5c1-1.8,2-3.3,3-4.5H159.7z"/>
</svg>
