<?xml version="1.0" encoding="utf-8"?>
<!-- Generator: Adobe Illustrator 19.2.0, SVG Export Plug-In . SVG Version: 6.00 Build 0)  -->
<svg version="1.1" id="Слой_1" xmlns="http://www.w3.org/2000/svg" xmlns:xlink="http://www.w3.org/1999/xlink" x="0px" y="0px"
	 viewBox="0 0 286.3 201.3" style="enable-background:new 0 0 286.3 201.3;" xml:space="preserve">
<style type="text/css">
	.st0{fill:#E6E0DF;stroke:#000000;stroke-width:0.7087;stroke-miterlimit:22.9256;}
	.st1{fill:#FFFFFF;stroke:#000000;stroke-width:0.7087;stroke-miterlimit:22.9256;}
</style>
<path class="st0" d="M143.1,1.4c78.3,0,141.7,44.4,141.7,99.2c0,54.8-63.5,99.2-141.7,99.2S1.4,155.4,1.4,100.6
	C1.4,45.8,64.9,1.4,143.1,1.4z"/>
<path class="st1" d="M143.1,8.5c74.4,0,134.6,41.3,134.6,92.1c0,50.9-60.3,92.1-134.6,92.1c-74.4,0-134.6-41.3-134.6-92.1
	C8.5,49.8,68.8,8.5,143.1,8.5z"/>
<path d="M120.9,97.6c0-1.2-0.3-2.2-1-2.9c-0.6-0.7-1.4-1.1-2.3-1.1c-0.9,0-1.8,0.4-2.4,1.1c-0.7,0.8-1,1.8-1,3c0,1.1,0.3,2,1,2.7
	c0.7,0.7,1.5,1,2.4,1c1,0,1.8-0.3,2.4-1C120.6,99.7,120.9,98.8,120.9,97.6 M112.2,105.1l2-0.2c0.2,1,0.5,1.6,1,2.1
	c0.5,0.4,1.1,0.6,1.9,0.6c0.6,0,1.2-0.1,1.7-0.4c0.5-0.3,0.9-0.7,1.2-1.2c0.3-0.5,0.6-1.2,0.8-2c0.2-0.8,0.3-1.7,0.3-2.6
	c0-0.1,0-0.2,0-0.4c-0.4,0.7-1,1.2-1.7,1.6c-0.7,0.4-1.5,0.6-2.4,0.6c-1.4,0-2.6-0.5-3.6-1.5c-1-1-1.5-2.4-1.5-4.1
	c0-1.7,0.5-3.1,1.5-4.2c1-1.1,2.3-1.6,3.9-1.6c1.1,0,2.1,0.3,3.1,0.9c0.9,0.6,1.6,1.5,2.1,2.6c0.5,1.1,0.7,2.7,0.7,4.8
	c0,2.2-0.2,3.9-0.7,5.2c-0.5,1.3-1.2,2.3-2.1,3c-0.9,0.7-2,1-3.3,1c-1.3,0-2.4-0.4-3.3-1.1C112.9,107.5,112.4,106.5,112.2,105.1z"/>
<path d="M125.3,104.6l2.2-0.2c0.2,1.1,0.5,1.9,1.1,2.4c0.6,0.5,1.3,0.8,2.2,0.8c1,0,1.9-0.4,2.6-1.1c0.7-0.8,1.1-1.8,1.1-3
	c0-1.2-0.3-2.2-1-2.8c-0.7-0.7-1.6-1-2.7-1c-0.7,0-1.3,0.2-1.8,0.5c-0.5,0.3-1,0.7-1.3,1.2l-2-0.3l1.7-8.8h8.5v2H129l-0.9,4.6
	c1-0.7,2.1-1.1,3.2-1.1c1.5,0,2.8,0.5,3.8,1.6c1,1,1.5,2.4,1.5,4c0,1.6-0.5,2.9-1.4,4c-1.1,1.4-2.6,2.1-4.5,2.1
	c-1.6,0-2.8-0.4-3.8-1.3C126,107.2,125.4,106.1,125.3,104.6"/>
<path d="M137.8,109.1l4.5-6.5l-4.2-6h2.6l1.9,2.9c0.4,0.6,0.6,1,0.9,1.4c0.3-0.5,0.7-1,1-1.4l2.1-2.9h2.5l-4.3,5.9l4.6,6.6h-2.6
	l-2.6-3.9l-0.7-1l-3.3,4.9H137.8z"/>
<path d="M153,103.5c0,0.7,0.2,1.4,0.5,2.1c0.3,0.7,0.7,1.2,1.3,1.5c0.6,0.3,1.1,0.5,1.7,0.5c0.9,0,1.7-0.4,2.3-1.1
	c0.6-0.7,1-1.7,1-2.9c0-1.2-0.3-2.1-0.9-2.8s-1.4-1-2.4-1c-1,0-1.8,0.3-2.4,1C153.3,101.5,153,102.4,153,103.5 M161.6,96.1l-2.1,0.2
	c-0.2-0.8-0.5-1.4-0.8-1.8c-0.6-0.6-1.3-0.9-2.1-0.9c-0.7,0-1.3,0.2-1.8,0.6c-0.7,0.5-1.2,1.2-1.6,2.1c-0.4,0.9-0.6,2.3-0.6,4
	c0.5-0.8,1.1-1.3,1.9-1.7c0.7-0.4,1.5-0.6,2.3-0.6c1.4,0,2.6,0.5,3.6,1.6c1,1,1.5,2.4,1.5,4c0,1.1-0.2,2.1-0.7,3
	c-0.5,0.9-1.1,1.6-1.9,2.1c-0.8,0.5-1.7,0.7-2.8,0.7c-1.8,0-3.2-0.6-4.3-1.9c-1.1-1.3-1.7-3.4-1.7-6.4c0-3.3,0.6-5.7,1.8-7.2
	c1.1-1.3,2.5-2,4.3-2c1.3,0,2.5,0.4,3.3,1.1C160.9,93.8,161.4,94.8,161.6,96.1z"/>
<path d="M164,104.6l2.2-0.2c0.2,1.1,0.5,1.9,1.1,2.4c0.6,0.5,1.3,0.8,2.2,0.8c1,0,1.9-0.4,2.6-1.1c0.7-0.8,1.1-1.8,1.1-3
	c0-1.2-0.3-2.2-1-2.8c-0.7-0.7-1.6-1-2.7-1c-0.7,0-1.3,0.2-1.8,0.5c-0.5,0.3-1,0.7-1.3,1.2l-2-0.3l1.7-8.8h8.5v2h-6.9l-0.9,4.6
	c1-0.7,2.1-1.1,3.2-1.1c1.5,0,2.8,0.5,3.8,1.6c1,1,1.5,2.4,1.5,4c0,1.6-0.5,2.9-1.4,4c-1.1,1.4-2.6,2.1-4.5,2.1
	c-1.6,0-2.8-0.4-3.8-1.3C164.7,107.2,164.1,106.1,164,104.6"/>
</svg>
