<?xml version="1.0" encoding="utf-8"?>
<!-- Generator: Adobe Illustrator 19.2.0, SVG Export Plug-In . SVG Version: 6.00 Build 0)  -->
<svg version="1.1" id="Слой_1" xmlns="http://www.w3.org/2000/svg" xmlns:xlink="http://www.w3.org/1999/xlink" x="0px" y="0px"
	 viewBox="0 0 413.9 206.9" style="enable-background:new 0 0 413.9 206.9;" xml:space="preserve">
<style type="text/css">
	.st0{fill:#E6E0DF;stroke:#000000;stroke-width:0.7087;stroke-miterlimit:22.9256;}
	.st1{fill:#FFFFFF;stroke:#000000;stroke-width:0.7087;stroke-miterlimit:22.9256;}
</style>
<path class="st0" d="M18,62.9c10.3-12,25.4-23,44.8-32.4c19.3-9.4,41.8-16.7,66.3-21.6c24.4-4.9,50.8-7.5,77.8-7.5
	s53.4,2.6,77.8,7.5c24.5,4.9,47,12.2,66.3,21.6c19.4,9.4,34.5,20.4,44.8,32.4h0c10.8,12.6,16.5,26.3,16.5,40.6h0
	c0,14.2-5.7,27.9-16.6,40.5c-10.3,12-25.4,23-44.8,32.4c-19.3,9.4-41.8,16.7-66.3,21.6c-24.4,4.9-50.8,7.5-77.8,7.5
	s-53.4-2.6-77.8-7.5c-24.5-4.9-47-12.2-66.3-21.6C43.4,167,28.3,156,18,144C7.1,131.4,1.4,117.7,1.4,103.5
	C1.4,89.2,7.1,75.5,18,62.9z"/>
<path class="st1" d="M65.9,36.9c-37,18-57.4,41.6-57.4,66.6c0,25,20.4,48.6,57.4,66.6c37.6,18.3,87.7,28.4,141.1,28.4
	c53.3,0,103.4-10.1,141.1-28.4c37-18,57.3-41.6,57.3-66.6c0-25-20.4-48.6-57.3-66.6C310.4,18.6,260.3,8.5,206.9,8.5
	C153.6,8.5,103.5,18.6,65.9,36.9z"/>
<path d="M177,111.9h-2.1V98.5c-0.5,0.5-1.2,1-2,1.5c-0.8,0.5-1.6,0.8-2.2,1.1v-2c1.2-0.6,2.2-1.2,3.1-2c0.9-0.8,1.5-1.6,1.9-2.3h1.4
	V111.9z"/>
<path d="M189.2,105.9v-7.7l-5.4,7.7H189.2z M189.2,111.9v-4.1h-7.5v-1.9l7.8-11.1h1.7v11.1h2.3v1.9h-2.3v4.1H189.2z"/>
<path d="M198,103.5c0,2.8,0.3,4.7,1,5.6c0.7,0.9,1.5,1.4,2.4,1.4c1,0,1.8-0.5,2.4-1.4c0.7-0.9,1-2.8,1-5.6c0-2.8-0.3-4.7-1-5.6
	c-0.7-0.9-1.5-1.4-2.5-1.4c-1,0-1.7,0.4-2.3,1.2C198.3,98.7,198,100.7,198,103.5 M195.8,103.5c0-2,0.2-3.7,0.6-4.9
	c0.4-1.2,1-2.2,1.9-2.9c0.8-0.7,1.9-1,3.1-1c0.9,0,1.7,0.2,2.4,0.6c0.7,0.4,1.3,0.9,1.7,1.6c0.5,0.7,0.8,1.6,1.1,2.6
	c0.3,1,0.4,2.4,0.4,4.1c0,2-0.2,3.6-0.6,4.9c-0.4,1.2-1,2.2-1.9,2.9c-0.8,0.7-1.9,1-3.1,1c-1.7,0-3-0.6-3.9-1.8
	C196.4,109,195.8,106.7,195.8,103.5z"/>
<path d="M208.3,111.9l4.5-6.5l-4.2-6h2.6l1.9,2.9c0.4,0.6,0.6,1,0.9,1.4c0.3-0.5,0.7-1,1-1.4l2.1-2.9h2.5l-4.3,5.9l4.6,6.6h-2.6
	l-2.6-3.9l-0.7-1l-3.3,4.9H208.3z"/>
<path d="M223.5,106.4c0,0.7,0.2,1.4,0.5,2.1c0.3,0.7,0.7,1.2,1.3,1.5c0.6,0.3,1.1,0.5,1.7,0.5c0.9,0,1.7-0.4,2.3-1.1
	c0.6-0.7,1-1.7,1-2.9c0-1.2-0.3-2.1-0.9-2.8c-0.6-0.7-1.4-1-2.4-1c-1,0-1.8,0.3-2.4,1C223.8,104.4,223.5,105.3,223.5,106.4
	 M232.1,99l-2.1,0.2c-0.2-0.8-0.5-1.4-0.8-1.8c-0.6-0.6-1.3-0.9-2.1-0.9c-0.7,0-1.3,0.2-1.8,0.6c-0.7,0.5-1.2,1.2-1.6,2.1
	c-0.4,0.9-0.6,2.3-0.6,4c0.5-0.8,1.1-1.3,1.9-1.7c0.7-0.4,1.5-0.6,2.3-0.6c1.4,0,2.6,0.5,3.6,1.6c1,1,1.5,2.4,1.5,4
	c0,1.1-0.2,2.1-0.7,3c-0.5,0.9-1.1,1.6-1.9,2.1c-0.8,0.5-1.7,0.7-2.8,0.7c-1.8,0-3.2-0.6-4.3-1.9c-1.1-1.3-1.7-3.4-1.7-6.4
	c0-3.3,0.6-5.7,1.8-7.2c1.1-1.3,2.5-2,4.3-2c1.3,0,2.5,0.4,3.3,1.1C231.4,96.6,231.9,97.6,232.1,99z"/>
<path d="M234.6,97v-2h11.1v1.6c-1.1,1.2-2.2,2.7-3.3,4.6c-1.1,1.9-1.9,3.9-2.5,6c-0.4,1.4-0.7,3-0.8,4.7H237c0-1.4,0.3-3,0.8-4.9
	c0.5-1.9,1.2-3.8,2.2-5.5c1-1.8,2-3.3,3-4.5H234.6z"/>
</svg>
