<?xml version="1.0" encoding="utf-8"?>
<!-- Generator: Adobe Illustrator 13.0.0, SVG Export Plug-In . SVG Version: 6.00 Build 14948)  -->
<svg version="1.2" baseProfile="tiny" id="Layer_1" xmlns="http://www.w3.org/2000/svg" xmlns:xlink="http://www.w3.org/1999/xlink"
	 x="0px" y="0px" width="64px" height="50.092px" viewBox="0 0 64 50.092" xml:space="preserve">
<g>
	<g>
		<path fill="#4B4B4B" d="M29.165,0.679c-5.266,0.699-9.953,1.91-13.948,3.587c-3.943,1.655-7.192,3.757-9.636,6.258
			c-1.789,1.83-3.147,3.851-4.075,6.052C0.58,18.773,0.077,21.164,0,23.738h0.004v1.418H0c0.027,0.908,0.104,1.842,0.232,2.8
			c0.128,0.956,0.31,1.945,0.546,2.968l0.003,0.013H0.78c1.023,3.93,3.155,7.274,6.372,10.015c3.275,2.789,7.688,4.97,13.216,6.521
			c3.208,0.9,6.557,1.522,9.894,1.936c3.362,0.416,6.674,0.619,9.799,0.684v-0.004h4.671v0.004c1.071-0.021,2.137-0.058,3.184-0.104
			c0.976-0.045,1.96-0.103,2.933-0.169v-0.001c3.793-0.314,6.482-1.358,8.387-2.683c1.866-1.297,2.983-2.86,3.652-4.256
			c0.327-0.681,0.583-1.407,0.77-2.167c0.186-0.759,0.301-1.541,0.344-2.338h-0.002v-1.518H64c-0.073-1.382-0.348-2.791-0.817-4.172
			c-0.465-1.369-1.122-2.707-1.968-3.959c-0.461-0.683-0.985-1.275-1.538-1.818c-0.569-0.559-1.192-1.089-1.805-1.61v-0.004
			c-0.607-0.518-1.198-1.02-1.713-1.516c-0.567-0.546-1.1-1.128-1.579-1.798h-0.006c-1.114-1.554-1.914-3.216-2.385-4.938
			c-0.475-1.731-0.61-3.507-0.396-5.277c0.223-1.838,0.819-3.632,1.765-5.332c0.934-1.679,2.201-3.26,3.779-4.697l0.006-0.005
			h-0.002c-2.744-0.568-5.616-0.999-8.537-1.288C45.842,0.148,42.838,0,39.873,0v0.005c-1.866,0-3.698,0.056-5.476,0.168
			C32.603,0.287,30.852,0.455,29.165,0.679"/>
	</g>
</g>
</svg>
