<?xml version="1.0" encoding="utf-8"?>
<!-- Generator: Adobe Illustrator 19.2.0, SVG Export Plug-In . SVG Version: 6.00 Build 0)  -->
<svg version="1.1" id="Слой_1" xmlns="http://www.w3.org/2000/svg" xmlns:xlink="http://www.w3.org/1999/xlink" x="0px" y="0px"
	 viewBox="0 0 85 85" style="enable-background:new 0 0 85 85;" xml:space="preserve">
<style type="text/css">
	.st0{fill:#A5A5A5;}
</style>
<path class="st0" d="M71.1,42.5c0-1-0.3-1.8-1-2.5l-20-20l-5-5c-0.7-0.7-1.5-1-2.5-1s-1.8,0.3-2.5,1l-5,5l-20,20
	c-0.7,0.7-1,1.5-1,2.5s0.3,1.8,1,2.5l5,5c0.7,0.7,1.5,1,2.5,1s1.8-0.3,2.5-1l10.5-10.5v27.8c0,1,0.4,1.8,1.1,2.5
	c0.7,0.7,1.5,1.1,2.5,1.1h7.1c1,0,1.8-0.4,2.5-1.1c0.7-0.7,1.1-1.5,1.1-2.5V39.5L60.1,50c0.7,0.7,1.5,1.1,2.5,1.1s1.8-0.4,2.5-1.1
	l5-5C70.8,44.3,71.1,43.5,71.1,42.5z M85,42.5c0,7.7-1.9,14.8-5.7,21.3s-9,11.7-15.5,15.5C57.3,83.1,50.2,85,42.5,85
	s-14.8-1.9-21.3-5.7c-6.5-3.8-11.7-9-15.5-15.5S0,50.2,0,42.5s1.9-14.8,5.7-21.3s9-11.7,15.5-15.5S34.8,0,42.5,0s14.8,1.9,21.3,5.7
	s11.7,9,15.5,15.5S85,34.8,85,42.5z"/>
</svg>
