<?xml version="1.0" encoding="utf-8"?>
<!-- Generator: Adobe Illustrator 22.0.1, SVG Export Plug-In . SVG Version: 6.00 Build 0)  -->
<svg version="1.2" baseProfile="tiny" id="Слой_1"
	 xmlns="http://www.w3.org/2000/svg" xmlns:xlink="http://www.w3.org/1999/xlink" x="0px" y="0px" viewBox="0 0 58.8 36"
	 xml:space="preserve">
<g id="vertical_1_">
	<path id="fonem_2_" d="M0.3,30.1h1v5.2H3v-6.7H0.3V30.1z M4.2,31.9c0,2.2,1.4,3.6,3.4,3.6c0.6,0,1.2-0.1,1.8-0.5v-1.9
		c-0.3,0.4-0.9,0.7-1.6,0.7c-1.1,0-1.7-0.8-1.7-1.8c0-1.1,0.7-1.9,1.7-1.9c0.7,0,1.3,0.4,1.6,0.8v-2c-0.6-0.4-1.3-0.5-1.8-0.5
		C5.8,28.4,4.2,29.7,4.2,31.9z M17.6,31.2h-1v-1h3.1v-1.6h-5l0,6.7h2.9c0.5,0,2.6,0,2.6-2.1C20.3,31.2,18.1,31.2,17.6,31.2z
		 M17.5,34h-0.8v-1.4h0.8c0.6,0,0.9,0.2,0.9,0.7C18.4,33.8,18,34,17.5,34z M23.1,32.6v-4h-1.8v6.7h1.8l2.6-4v4h1.8v-6.7h-1.8
		L23.1,32.6z M28.3,30.2h1.5v5.1h1.9v-5.1h1.5v-1.6h-4.9V30.2z M36.8,28.6h-2.8v6.7h1.9v-2.2h1c1.9,0,2.5-1.3,2.5-2.3
		C39.2,29.9,38.7,28.6,36.8,28.6z M36.3,31.6h-0.5v-1.5h0.5c0.8,0,0.9,0.4,0.9,0.8C37.3,31.1,37.2,31.6,36.3,31.6z M41.8,32.6v-4H40
		v6.7h1.8l2.6-4v4h1.8v-6.7h-1.8L41.8,32.6z M53.5,28.6h-2.2l-2,2.8v-2.8h-1.9l0,6.7h1.9v-2.9l2,2.9h2.4L51,31.8L53.5,28.6z
		 M57,30.1c0.7,0,1.3,0.4,1.6,0.8v-2c-0.6-0.4-1.3-0.5-1.8-0.5c-1.8,0-3.4,1.3-3.4,3.6c0,2.2,1.4,3.6,3.4,3.6c0.6,0,1.2-0.1,1.8-0.5
		v-1.9c-0.3,0.4-0.9,0.7-1.6,0.7c-1.1,0-1.7-0.8-1.7-1.8C55.3,30.9,55.9,30.1,57,30.1z M12.1,30.9c-0.6,0-1.1,0.5-1.1,1.1
		c0,0.6,0.5,1.1,1.1,1.1c0.6,0,1.1-0.5,1.1-1.1C13.2,31.4,12.7,30.9,12.1,30.9z"/>
	<path id="graph_2_" fill="#CB202E" d="M30,0.3c-0.8,0-1.6,0.1-2.3,0.3V11c0,1.3,1.1,2.3,2.3,2.3c1.3,0,2.3-1.1,2.3-2.3
		c0-1.2-1-2.3-2.2-2.3V6.8c2.3,0.1,4.1,1.9,4.1,4.2c0,2.3-1.9,4.2-4.2,4.2c-2.3,0-4.2-1.9-4.2-4.2V1.1c-0.3,0.1-0.5,0.2-0.8,0.4V11
		c0,2.8,2.2,5,5,5c2.8,0,5-2.2,5-5c0-2.7-2.2-4.9-4.8-5V4.2c3.7,0.1,6.7,3.1,6.7,6.9c0,3.8-3.1,6.9-6.9,6.9c-3.8,0-6.9-3.1-6.9-6.9
		V2.7c-2.4,2-3.9,5-3.9,8.3c0,6,4.8,10.8,10.8,10.8c6,0,10.8-4.8,10.8-10.8C40.8,5.1,35.9,0.3,30,0.3z"/>
</g>
</svg>
