<?xml version="1.0" encoding="utf-8"?>
<!-- Generator: Adobe Illustrator 13.0.0, SVG Export Plug-In . SVG Version: 6.00 Build 14948)  -->
<svg version="1.2" baseProfile="tiny" id="Layer_1" xmlns="http://www.w3.org/2000/svg" xmlns:xlink="http://www.w3.org/1999/xlink"
	 x="0px" y="0px" width="20px" height="20px" viewBox="0 0 20 20" xml:space="preserve">
<path fill="none" d="M11.238,14.522c-1.574-0.237-5.363-3.773-5.76-5.761C5.35,8.119,5.535,7.602,5.68,7.26L1.844,3.423
	C1.834,3.431,0.377,4.936,2.16,8.248c0.577,1.071,2.073,3.612,4.083,5.617c1.974,1.969,4.457,3.409,5.509,3.975
	c3.311,1.783,4.816,0.325,4.824,0.317l-3.838-3.836C12.398,14.465,12.023,14.641,11.238,14.522z"/>
<path fill="#FF3300" d="M14.544,11.751c-0.242-0.185-0.586-0.161-0.801,0.055l-1.295,1.295c-1.315,1.314-3.711-1.457-3.913-1.636
	C8.357,11.263,5.668,8.784,6.9,7.551l1.295-1.294c0.216-0.216,0.238-0.56,0.053-0.802L4.267,0.24C4.16,0.1,3.998,0.013,3.823,0.001
	C3.647-0.01,3.474,0.054,3.35,0.178L1.045,2.484C0.721,2.857-1.156,4.568,1.081,8.816c1.541,2.925,3.308,4.866,4.287,5.816
	c0.951,0.979,2.892,2.746,5.816,4.286c4.247,2.237,5.958,0.359,6.332,0.037l2.306-2.307c0.124-0.123,0.189-0.297,0.178-0.473
	c-0.012-0.174-0.1-0.337-0.238-0.443L14.544,11.751z"/>
</svg>
