<?xml version="1.0" encoding="utf-8"?>
<!-- Generator: Adobe Illustrator 13.0.0, SVG Export Plug-In . SVG Version: 6.00 Build 14948)  -->
<svg version="1.2" baseProfile="tiny" id="Layer_1" xmlns="http://www.w3.org/2000/svg" xmlns:xlink="http://www.w3.org/1999/xlink"
	 x="0px" y="0px" width="28px" height="20px" viewBox="0 0 28 20" xml:space="preserve">
<path fill="#FF3300" d="M0.855,0C0.383,0,0,0.386,0,0.861v18.277C0,19.614,0.383,20,0.855,20h26.288C27.615,20,28,19.614,28,19.139
	V0.861C28,0.386,27.615,0,27.144,0 M1.713,2.836l4.093,3.816l-4.093,3.9V2.836z M3.043,1.725h21.913L13.999,11.938L3.043,1.725z
	 M26.286,2.836v7.716l-4.095-3.9L26.286,2.836z M1.713,18.276v-5.348l5.354-5.102l6.351,5.92c0.165,0.152,0.374,0.229,0.582,0.229
	c0.209,0,0.418-0.076,0.583-0.229l6.351-5.92l5.231,4.985c0.037,0.037,0.079,0.068,0.122,0.096v5.369H1.713z"/>
</svg>
