<?xml version="1.0" encoding="utf-8"?>
<!-- Generator: Adobe Illustrator 22.0.1, SVG Export Plug-In . SVG Version: 6.00 Build 0)  -->
<svg version="1.2" baseProfile="tiny" id="Слой_1"
	 xmlns="http://www.w3.org/2000/svg" xmlns:xlink="http://www.w3.org/1999/xlink" x="0px" y="0px" viewBox="0 0 50 45"
	 xml:space="preserve">
<g id="surface1">
	<path fill="#FFFFFF" d="M19.4,0.2c-3.5,0-6.4,2.5-7,5.9l-0.2,1.3h-5C3.2,7.3,0,10.5,0,14.5v23.2c0,3.9,3.2,7.1,7.1,7.1h35.7
		c3.9,0,7.1-3.2,7.1-7.1V14.5c0-3.9-3.2-7.1-7.1-7.1h-5l-0.2-1.3c-0.6-3.4-3.6-5.9-7-5.9H19.4z M19.4,3.8h11.1
		c1.7,0,3.2,1.2,3.5,2.9l0.2,1.3c0.3,1.7,1.8,2.9,3.5,2.9h5c2,0,3.6,1.6,3.6,3.6v23.2c0,2-1.6,3.6-3.6,3.6H7.1c-2,0-3.6-1.6-3.6-3.6
		V14.5c0-2,1.6-3.6,3.6-3.6h5c1.7,0,3.2-1.2,3.5-2.9l0.2-1.3C16.2,5,17.7,3.8,19.4,3.8z M25,14.5c-6.4,0-11.6,5.2-11.6,11.6
		S18.6,37.7,25,37.7s11.6-5.2,11.6-11.6S31.4,14.5,25,14.5z M25,18c4.4,0,8,3.6,8,8s-3.6,8-8,8s-8-3.6-8-8S20.6,18,25,18z"/>
</g>
</svg>
